<svg xmlns="http://www.w3.org/2000/svg" xmlns:xlink="http://www.w3.org/1999/xlink" viewBox= "0 0 117 117" width="117px" height="117px">
<!--Created with Scratch Jr-->
<g xmlns="http://www.w3.org/2000/svg" id="layer1" style="pointer-events:visiblePainted">
<g id="Starfish.svg" transform="rotate(0)">
<path id="Body_2_" fill="rgb(255, 244, 46)" stroke="#AF2851" stroke-width="3.3614" stroke-miterlimit="10" d="M56.72999572753906,12.529998779296875C64.47100830078125,12.375,62.72900390625,41.566009521484375,68.95700073242188,45.649993896484375C75.18600463867188,49.733001708984375,102.38699340820312,36.36399841308594,104.55300903320312,45.4949951171875C106.72100830078125,54.626007080078125,77.62399291992188,55.09100341796875,76.54100036621094,65.92399597167969C75.45700073242188,76.75700378417969,103.31298828125,98.88900756835938,96.65899658203125,104.76998901367188C90.0050048828125,110.6510009765625,67.40699768066406,80.43600463867188,57.3489990234375,81.08999633789062C47.290008544921875,81.74400329589844,36.45599365234375,110.80499267578125,27.016006469726562,104.45899963378906C17.576004028320312,98.11399841308594,42.71600341796875,78.4580078125,40.0159912109375,68.55499267578125C37.31700134277344,58.649993896484375,9.837997436523438,52.61399841308594,11.850006103515625,45.80499267578125C13.86199951171875,38.9949951171875,39.43299865722656,50.0780029296875,46.36199951171875,45.18499755859375C53.290008544921875,40.2919921875,48.99000549316406,12.68499755859375,56.72999572753906,12.529998779296875z"/>
<path id="Dark_x5F_Patch_2_" fill="rgb(255, 244, 46)" d="M57.56500244140625,38.84300231933594C60.92399597167969,38.7760009765625,62.57600402832031,49.375,65.281005859375,51.147003173828125C67.9840087890625,52.91999816894531,73.57499694824219,50.25999450683594,74.51499938964844,54.225006103515625C75.4530029296875,58.188995361328125,68.82699584960938,58.75700378417969,68.3590087890625,63.459991455078125C67.88800048828125,68.16299438476562,73.29800415039062,73.73199462890625,70.41099548339844,76.28500366210938C67.52099609375,78.83999633789062,62.977996826171875,71.63900756835938,58.610992431640625,71.92399597167969C54.246002197265625,72.20899963378906,51.680999755859375,78.27200317382812,47.582000732421875,75.5159912109375C43.4840087890625,72.76100158691406,50.8070068359375,68.52799987792969,49.634002685546875,64.23100280761719C48.462005615234375,59.92999267578125,42.09100341796875,58.97900390625,42.964996337890625,56.02299499511719C43.83900451660156,53.066009521484375,49.962005615234375,52.76100158691406,52.968994140625,50.636993408203125C55.977996826171875,48.50999450683594,54.20599365234375,38.910003662109375,57.56500244140625,38.84300231933594z"/>
<path fill="#F76189" d="M25.251007080078125,50.0050048828125C25.251007080078125,50.8590087890625,24.557998657226562,51.552001953125,23.7030029296875,51.552001953125C22.847991943359375,51.552001953125,22.154998779296875,50.8590087890625,22.154998779296875,50.0050048828125C22.154998779296875,49.149993896484375,22.847991943359375,48.457000732421875,23.7030029296875,48.457000732421875S25.251007080078125,49.149993896484375,25.251007080078125,50.0050048828125zM33.227996826171875,94.77099609375C32.373992919921875,94.77099609375,31.67999267578125,95.46200561523438,31.67999267578125,96.3179931640625C31.67999267578125,97.1719970703125,32.37300109863281,97.86599731445312,33.227996826171875,97.86599731445312C34.0830078125,97.86599731445312,34.7760009765625,97.17401123046875,34.7760009765625,96.3179931640625C34.7760009765625,95.4639892578125,34.082000732421875,94.77099609375,33.227996826171875,94.77099609375zM87.19699096679688,92.71600341796875C86.34300231933594,92.71600341796875,85.64999389648438,93.40798950195312,85.64999389648438,94.26400756835938C85.64999389648438,95.11799621582031,86.33999633789062,95.81100463867188,87.19699096679688,95.81100463867188C88.05099487304688,95.81100463867188,88.7449951171875,95.12100219726562,88.7449951171875,94.26400756835938C88.7449951171875,93.40798950195312,88.052001953125,92.71600341796875,87.19699096679688,92.71600341796875zM94.5780029296875,46.80400085449219C93.7239990234375,46.80400085449219,93.02899169921875,47.49700927734375,93.02899169921875,48.35200500488281C93.02899169921875,49.20599365234375,93.72200012207031,49.899993896484375,94.5780029296875,49.899993896484375C95.43399047851562,49.899993896484375,96.12600708007812,49.207000732421875,96.12600708007812,48.35200500488281S95.43399047851562,46.80400085449219,94.5780029296875,46.80400085449219zM57.447998046875,25.5570068359375C56.180999755859375,25.5570068359375,55.15399169921875,26.583999633789062,55.15399169921875,27.850997924804688C55.15399169921875,29.117996215820312,56.180999755859375,30.145004272460938,57.447998046875,30.145004272460938C58.71299743652344,30.145004272460938,59.740997314453125,29.117996215820312,59.740997314453125,27.850997924804688S58.71299743652344,25.5570068359375,57.447998046875,25.5570068359375zM33.51100158691406,50.72599792480469C32.24400329589844,50.72599792480469,31.216995239257812,51.753997802734375,31.216995239257812,53.02099609375C31.216995239257812,54.287994384765625,32.2449951171875,55.31500244140625,33.51100158691406,55.31500244140625C34.777008056640625,55.31500244140625,35.80499267578125,54.287994384765625,35.80499267578125,53.02099609375S34.777008056640625,50.72599792480469,33.51100158691406,50.72599792480469zM84.3070068359375,48.6719970703125C83.03900146484375,48.6719970703125,82.01400756835938,49.699005126953125,82.01400756835938,50.96600341796875C82.01400756835938,52.233001708984375,83.03900146484375,53.26100158691406,84.3070068359375,53.26100158691406C85.57499694824219,53.26100158691406,86.60198974609375,52.233001708984375,86.60198974609375,50.96600341796875C86.60198974609375,49.699005126953125,85.57199096679688,48.6719970703125,84.3070068359375,48.6719970703125zM77.86099243164062,81.54000854492188C76.33799743652344,81.54000854492188,75.10099792480469,82.77499389648438,75.10099792480469,84.302001953125C75.10099792480469,85.82598876953125,76.33499145507812,87.06300354003906,77.86099243164062,87.06300354003906C79.38699340820312,87.06300354003906,80.62399291992188,85.82901000976562,80.62399291992188,84.302001953125S79.38699340820312,81.54000854492188,77.86099243164062,81.54000854492188zM40.60699462890625,84.15200805664062C39.339996337890625,84.15200805664062,38.313995361328125,85.18099975585938,38.313995361328125,86.447998046875C38.313995361328125,87.71600341796875,39.339996337890625,88.74299621582031,40.60699462890625,88.74299621582031C41.87300109863281,88.74299621582031,42.902008056640625,87.71600341796875,42.902008056640625,86.447998046875C42.902008056640625,85.1820068359375,41.873992919921875,84.15200805664062,40.60699462890625,84.15200805664062zM57.60600280761719,36.23899841308594C55.566009521484375,36.23899841308594,53.91099548339844,37.89399719238281,53.91099548339844,39.933990478515625C53.91099548339844,41.9739990234375,55.566009521484375,43.6300048828125,57.60600280761719,43.6300048828125C59.64500427246094,43.6300048828125,61.300994873046875,41.975006103515625,61.300994873046875,39.933990478515625S59.64500427246094,36.23899841308594,57.60600280761719,36.23899841308594zM45.46299743652344,53.8070068359375C43.73199462890625,53.8070068359375,42.3280029296875,55.21099853515625,42.3280029296875,56.94200134277344C42.3280029296875,58.67399597167969,43.73100280761719,60.0780029296875,45.46299743652344,60.0780029296875C47.19200134277344,60.0780029296875,48.597991943359375,58.67399597167969,48.597991943359375,56.94200134277344C48.597991943359375,55.21099853515625,47.19200134277344,53.8070068359375,45.46299743652344,53.8070068359375zM49.57099914550781,69.21400451660156C47.531005859375,69.21400451660156,45.87699890136719,70.86900329589844,45.87699890136719,72.90899658203125C45.87699890136719,74.94999694824219,47.531005859375,76.60299682617188,49.57099914550781,76.60299682617188C51.61000061035156,76.60299682617188,53.2659912109375,74.94999694824219,53.2659912109375,72.90899658203125C53.266998291015625,70.86900329589844,51.61000061035156,69.21400451660156,49.57099914550781,69.21400451660156zM68.43399047851562,71.17500305175781C66.39300537109375,71.17500305175781,64.73899841308594,72.83000183105469,64.73899841308594,74.8699951171875C64.73899841308594,76.9110107421875,66.39300537109375,78.56399536132812,68.43399047851562,78.56399536132812C70.47100830078125,78.56399536132812,72.12799072265625,76.9110107421875,72.12799072265625,74.8699951171875C72.12799072265625,72.83000183105469,70.47100830078125,71.17500305175781,68.43399047851562,71.17500305175781zM72.54100036621094,51.0050048828125C70.50199890136719,51.0050048828125,68.84799194335938,52.65899658203125,68.84799194335938,54.69999694824219C68.84799194335938,56.740997314453125,70.50199890136719,58.39599609375,72.54100036621094,58.39599609375C74.58000183105469,58.39599609375,76.23599243164062,56.740997314453125,76.23599243164062,54.69999694824219C76.23599243164062,52.660003662109375,74.58000183105469,51.0050048828125,72.54100036621094,51.0050048828125z" id="path 1"/>
<path fill="#AF2851" d="M23.7030029296875,52.552001953125C22.298004150390625,52.552001953125,21.154998779296875,51.40899658203125,21.154998779296875,50.0050048828125C21.154998779296875,48.600006103515625,22.298004150390625,47.457000732421875,23.7030029296875,47.457000732421875C25.108001708984375,47.457000732421875,26.251007080078125,48.600006103515625,26.251007080078125,50.0050048828125C26.251007080078125,51.40899658203125,25.108001708984375,52.552001953125,23.7030029296875,52.552001953125zM23.7030029296875,49.457000732421875C23.4010009765625,49.457000732421875,23.154998779296875,49.7030029296875,23.154998779296875,50.0050048828125C23.154998779296875,50.3070068359375,23.4010009765625,50.552001953125,23.7030029296875,50.552001953125C24.0050048828125,50.552001953125,24.251007080078125,50.3070068359375,24.251007080078125,50.0050048828125C24.251007080078125,49.7030029296875,24.0050048828125,49.457000732421875,23.7030029296875,49.457000732421875zM33.227996826171875,98.86599731445312C31.822998046875,98.86599731445312,30.67999267578125,97.72299194335938,30.67999267578125,96.3179931640625C30.67999267578125,94.91400146484375,31.822998046875,93.77099609375,33.227996826171875,93.77099609375C34.63299560546875,93.77099609375,35.7760009765625,94.91400146484375,35.7760009765625,96.3179931640625C35.7760009765625,97.7239990234375,34.63299560546875,98.86599731445312,33.227996826171875,98.86599731445312zM33.227996826171875,95.77099609375C32.925994873046875,95.77099609375,32.67999267578125,96.0159912109375,32.67999267578125,96.3179931640625C32.67999267578125,96.6199951171875,32.925994873046875,96.86599731445312,33.227996826171875,96.86599731445312C33.529998779296875,96.86599731445312,33.7760009765625,96.6199951171875,33.7760009765625,96.3179931640625S33.529998779296875,95.77099609375,33.227996826171875,95.77099609375zM87.19699096679688,96.81100463867188C85.79299926757812,96.81100463867188,84.64999389648438,95.66799926757812,84.64999389648438,94.26400756835938C84.64999389648438,92.8590087890625,85.79299926757812,91.71600341796875,87.19699096679688,91.71600341796875C88.60198974609375,91.71600341796875,89.7449951171875,92.8590087890625,89.7449951171875,94.26400756835938C89.7449951171875,95.66799926757812,88.60299682617188,96.81100463867188,87.19699096679688,96.81100463867188zM87.19699096679688,93.71600341796875C86.89498901367188,93.71600341796875,86.64999389648438,93.96200561523438,86.64999389648438,94.26400756835938C86.64999389648438,94.56600952148438,86.89498901367188,94.81100463867188,87.19699096679688,94.81100463867188C87.49899291992188,94.81100463867188,87.7449951171875,94.56600952148438,87.7449951171875,94.26400756835938S87.49899291992188,93.71600341796875,87.19699096679688,93.71600341796875zM94.5780029296875,50.899993896484375C93.17300415039062,50.899993896484375,92.02899169921875,49.75700378417969,92.02899169921875,48.35200500488281C92.02899169921875,46.946990966796875,93.17300415039062,45.80400085449219,94.5780029296875,45.80400085449219C95.98300170898438,45.80400085449219,97.12600708007812,46.946990966796875,97.12600708007812,48.35200500488281S95.98300170898438,50.899993896484375,94.5780029296875,50.899993896484375zM94.5780029296875,47.80400085449219C94.27499389648438,47.80400085449219,94.02899169921875,48.05000305175781,94.02899169921875,48.35200500488281C94.02899169921875,48.65399169921875,94.27499389648438,48.899993896484375,94.5780029296875,48.899993896484375C94.8800048828125,48.899993896484375,95.12600708007812,48.65399169921875,95.12600708007812,48.35200500488281S94.8800048828125,47.80400085449219,94.5780029296875,47.80400085449219zM57.447998046875,31.145004272460938C55.63200378417969,31.145004272460938,54.15399169921875,29.6669921875,54.15399169921875,27.850997924804688C54.15399169921875,26.035003662109375,55.63200378417969,24.5570068359375,57.447998046875,24.5570068359375C59.26300048828125,24.5570068359375,60.740997314453125,26.035003662109375,60.740997314453125,27.850997924804688S59.264007568359375,31.145004272460938,57.447998046875,31.145004272460938zM57.447998046875,26.5570068359375C56.7340087890625,26.5570068359375,56.15399169921875,27.13800048828125,56.15399169921875,27.850997924804688C56.15399169921875,28.563995361328125,56.73500061035156,29.145004272460938,57.447998046875,29.145004272460938C58.16099548339844,29.145004272460938,58.740997314453125,28.563995361328125,58.740997314453125,27.850997924804688S58.16099548339844,26.5570068359375,57.447998046875,26.5570068359375zM33.51100158691406,56.31500244140625C31.69500732421875,56.31500244140625,30.216995239257812,54.837005615234375,30.216995239257812,53.02099609375C30.216995239257812,51.20399475097656,31.69500732421875,49.72599792480469,33.51100158691406,49.72599792480469C35.326995849609375,49.72599792480469,36.80499267578125,51.20399475097656,36.80499267578125,53.02099609375C36.80499267578125,54.837005615234375,35.3280029296875,56.31500244140625,33.51100158691406,56.31500244140625zM33.51100158691406,51.72599792480469C32.7969970703125,51.72599792480469,32.21699523925781,52.3070068359375,32.21699523925781,53.02099609375C32.21699523925781,53.7340087890625,32.798004150390625,54.31500244140625,33.51100158691406,54.31500244140625C34.2239990234375,54.31500244140625,34.80499267578125,53.7340087890625,34.80499267578125,53.02099609375C34.80499267578125,52.3070068359375,34.225006103515625,51.72599792480469,33.51100158691406,51.72599792480469zM84.3070068359375,54.26100158691406C82.49200439453125,54.26100158691406,81.01400756835938,52.78300476074219,81.01400756835938,50.96600341796875C81.01400756835938,49.149993896484375,82.49200439453125,47.6719970703125,84.3070068359375,47.6719970703125C86.12300109863281,47.6719970703125,87.60198974609375,49.149993896484375,87.60198974609375,50.96600341796875C87.60198974609375,52.78300476074219,86.12300109863281,54.26100158691406,84.3070068359375,54.26100158691406zM84.3070068359375,49.6719970703125C83.593994140625,49.6719970703125,83.01400756835938,50.25299072265625,83.01400756835938,50.96600341796875C83.01400756835938,51.67999267578125,83.593994140625,52.26100158691406,84.3070068359375,52.26100158691406C85.02099609375,52.26100158691406,85.60198974609375,51.67999267578125,85.60198974609375,50.96600341796875C85.60198974609375,50.25199890136719,85.02099609375,49.6719970703125,84.3070068359375,49.6719970703125zM77.86099243164062,88.06300354003906C75.78799438476562,88.06300354003906,74.10099792480469,86.375,74.10099792480469,84.302001953125C74.10099792480469,82.22799682617188,75.78799438476562,80.54000854492188,77.86099243164062,80.54000854492188C79.93600463867188,80.54000854492188,81.62399291992188,82.22799682617188,81.62399291992188,84.302001953125C81.62399291992188,86.375,79.93699645996094,88.06300354003906,77.86099243164062,88.06300354003906zM77.86099243164062,82.54000854492188C76.88999938964844,82.54000854492188,76.10099792480469,83.33000183105469,76.10099792480469,84.302001953125C76.10099792480469,85.27301025390625,76.88999938964844,86.06300354003906,77.86099243164062,86.06300354003906C78.8330078125,86.06300354003906,79.62399291992188,85.27301025390625,79.62399291992188,84.302001953125C79.62399291992188,83.33000183105469,78.8330078125,82.54000854492188,77.86099243164062,82.54000854492188zM40.60699462890625,89.74299621582031C38.79100036621094,89.74299621582031,37.313995361328125,88.26400756835938,37.313995361328125,86.447998046875C37.313995361328125,84.63099670410156,38.79100036621094,83.15200805664062,40.60699462890625,83.15200805664062C42.42399597167969,83.15200805664062,43.902008056640625,84.63099670410156,43.902008056640625,86.447998046875C43.902008056640625,88.26499938964844,42.42399597167969,89.74299621582031,40.60699462890625,89.74299621582031zM40.60699462890625,85.15200805664062C39.89399719238281,85.15200805664062,39.313995361328125,85.73300170898438,39.313995361328125,86.447998046875C39.313995361328125,87.16200256347656,39.89399719238281,87.74299621582031,40.60699462890625,87.74299621582031C41.32099914550781,87.74299621582031,41.902008056640625,87.16200256347656,41.902008056640625,86.447998046875C41.902008056640625,85.73300170898438,41.32099914550781,85.15200805664062,40.60699462890625,85.15200805664062zM57.60600280761719,44.6300048828125C55.016998291015625,44.6300048828125,52.91099548339844,42.52400207519531,52.91099548339844,39.933990478515625C52.91099548339844,37.345001220703125,55.016998291015625,35.23899841308594,57.60600280761719,35.23899841308594C60.194000244140625,35.23899841308594,62.300994873046875,37.345001220703125,62.300994873046875,39.933990478515625C62.300994873046875,42.52299499511719,60.194000244140625,44.6300048828125,57.60600280761719,44.6300048828125zM57.60600280761719,37.23899841308594C56.1199951171875,37.23899841308594,54.91099548339844,38.447998046875,54.91099548339844,39.933990478515625C54.91099548339844,41.41999816894531,56.1199951171875,42.6300048828125,57.60600280761719,42.6300048828125C59.09199523925781,42.6300048828125,60.300994873046875,41.42100524902344,60.300994873046875,39.933990478515625C60.300994873046875,38.447998046875,59.09199523925781,37.23899841308594,57.60600280761719,37.23899841308594zM45.46299743652344,61.0780029296875C43.18299865722656,61.0780029296875,41.3280029296875,59.222991943359375,41.3280029296875,56.94200134277344C41.3280029296875,54.66200256347656,43.18299865722656,52.8070068359375,45.46299743652344,52.8070068359375C47.74299621582031,52.8070068359375,49.597991943359375,54.66200256347656,49.597991943359375,56.94200134277344C49.597991943359375,59.222991943359375,47.74299621582031,61.0780029296875,45.46299743652344,61.0780029296875zM45.46299743652344,54.8070068359375C44.28599548339844,54.8070068359375,43.3280029296875,55.76499938964844,43.3280029296875,56.94200134277344C43.3280029296875,58.1199951171875,44.28599548339844,59.0780029296875,45.46299743652344,59.0780029296875C46.63999938964844,59.0780029296875,47.597991943359375,58.1199951171875,47.597991943359375,56.94200134277344C47.597991943359375,55.76499938964844,46.63999938964844,54.8070068359375,45.46299743652344,54.8070068359375zM49.57099914550781,77.60400390625C46.983001708984375,77.60400390625,44.87699890136719,75.49899291992188,44.87699890136719,72.91000366210938C44.87699890136719,70.32099914550781,46.98199462890625,68.21499633789062,49.57099914550781,68.21499633789062C50.824005126953125,68.21499633789062,52.003997802734375,68.7030029296875,52.8909912109375,69.58999633789062C53.77899169921875,70.47799682617188,54.266998291015625,71.65699768066406,54.2659912109375,72.91000366210938C54.2659912109375,75.49800109863281,52.160003662109375,77.60400390625,49.57099914550781,77.60400390625zM49.57099914550781,70.21400451660156C48.08599853515625,70.21400451660156,46.87699890136719,71.42300415039062,46.87699890136719,72.90899658203125C46.87699890136719,74.39399719238281,48.084991455078125,75.60299682617188,49.57099914550781,75.60299682617188C51.0570068359375,75.60299682617188,52.2659912109375,74.39399719238281,52.2659912109375,72.90899658203125C52.2659912109375,72.18899536132812,51.985992431640625,71.51300048828125,51.47599792480469,71.00399780273438C50.96699523925781,70.49400329589844,50.290008544921875,70.21400451660156,49.57099914550781,70.21400451660156zM68.43399047851562,79.56399536132812C65.84500122070312,79.56399536132812,63.73899841308594,77.45899963378906,63.73899841308594,74.8699951171875C63.73899841308594,72.281005859375,65.84500122070312,70.17500305175781,68.43399047851562,70.17500305175781C71.02299499511719,70.17500305175781,73.12799072265625,72.281005859375,73.12799072265625,74.8699951171875S71.02200317382812,79.56399536132812,68.43399047851562,79.56399536132812zM68.43399047851562,72.17500305175781C66.947998046875,72.17500305175781,65.73899841308594,73.38400268554688,65.73899841308594,74.8699951171875C65.73899841308594,76.35501098632812,66.947998046875,77.56399536132812,68.43399047851562,77.56399536132812C69.91900634765625,77.56399536132812,71.12799072265625,76.35501098632812,71.12799072265625,74.8699951171875C71.12799072265625,73.38400268554688,69.91900634765625,72.17500305175781,68.43399047851562,72.17500305175781zM72.54100036621094,59.39599609375C69.9530029296875,59.39599609375,67.84799194335938,57.290008544921875,67.84799194335938,54.69999694824219C67.84799194335938,52.110992431640625,69.9530029296875,50.0050048828125,72.54100036621094,50.0050048828125C75.1300048828125,50.0050048828125,77.23599243164062,52.110992431640625,77.23599243164062,54.69999694824219C77.23599243164062,57.290008544921875,75.1300048828125,59.39599609375,72.54100036621094,59.39599609375zM72.54100036621094,52.0050048828125C71.05599975585938,52.0050048828125,69.84799194335938,53.21400451660156,69.84799194335938,54.69999694824219C69.84799194335938,56.186004638671875,71.05599975585938,57.39599609375,72.54100036621094,57.39599609375C74.02700805664062,57.39599609375,75.23599243164062,56.18699645996094,75.23599243164062,54.69999694824219S74.02700805664062,52.0050048828125,72.54100036621094,52.0050048828125z" id="path 2"/>
</g>
</g>
</svg>