<svg xmlns="http://www.w3.org/2000/svg" xmlns:xlink="http://www.w3.org/1999/xlink" viewBox= "0 0 355 393" width="355px" height="393px">
<!--Created with Scratch Jr-->
<g xmlns="http://www.w3.org/2000/svg" id="layer1" style="pointer-events:visiblePainted">
<g id="SailBoat.svg" transform="rotate(0)">
<path id="Boat1" fill="#C1C1C1" d="M79.2040023803711,344.6969909667969C72.00399780273438,344.6969909667969,64.33799743652344,344.5799865722656,56.41600036621094,344.3479919433594L56.33300018310547,342.3550109863281C81.55500030517578,339.4880065917969,123.2659912109375,334.59600830078125,178.74899291992188,327.5679931640625C245.2440185546875,319.14300537109375,299.2120056152344,305.9410095214844,325.4639892578125,298.82000732421875L326.14300537109375,300.6929931640625C290.5570068359375,317.0360107421875,198.5030059814453,344.69500732421875,79.2040023803711,344.6969909667969z"/>
<path id="Boat" fill="rgb(255, 0, 35)" d="M313.156005859375,379.7300109863281L312.5509948730469,379.72698974609375L13.820999145507812,379.1000061035156L14.420997619628906,377.7049865722656C17.44499969482422,370.6839904785156,24.972000122070312,353.5299987792969,29.54199981689453,345.9100036621094L29.854995727539062,345.3890075683594L30.461997985839844,345.4259948730469C46.62799835205078,346.4320068359375,63.02799987792969,346.94500732421875,79.20600128173828,346.94500732421875C157.1439971923828,346.9429931640625,219.6519775390625,335.3009948730469,258.3659973144531,325.5369873046875C300.72601318359375,314.8489990234375,328.6109924316406,303.00799560546875,339.6159973144531,296.1109924316406L341.260009765625,295.0830078125L341.1449890136719,297.0199890136719C339.28399658203125,328.58599853515625,317.74200439453125,371.010986328125,313.4419860839844,379.1969909667969L313.156005859375,379.7300109863281z"/>
<path id="Boat3" fill="rgb(195, 0, 1)" d="M19.972999572753906,360.0530090332031C15.768997192382812,370.29400634765625,12.122001647949219,380.2229919433594,12.122001647949219,380.2229919433594L313.8290100097656,380.8590087890625C313.8290100097656,380.8590087890625,322.10699462890625,364.4840087890625,329.7510070800781,343.82000732421875C254.02001953125,368.7980041503906,229.97998046875,374.5249938964844,149.40499877929688,376.3999938964844C83.68000030517578,377.9259948730469,39.0050048828125,365.156005859375,19.972999572753906,360.0530090332031z"/>
<path id="BoatBorder" fill="rgb(195, 0, 1)" d="M29.39800262451172,342.1050109863281C28.62799835205078,342.0469970703125,27.891998291015625,342.42498779296875,27.474998474121094,343.0780029296875C21.72800064086914,352.0159912109375,10.632999420166016,378.2829895019531,10.16400146484375,379.39599609375C9.88800048828125,380.04901123046875,9.957000732421875,380.79901123046875,10.349998474121094,381.39300537109375C10.743000030517578,381.9880065917969,11.405998229980469,382.3420104980469,12.118000030517578,382.34600830078125L313.82501220703125,382.98199462890625C313.82598876953125,382.98199462890625,313.8280029296875,382.98199462890625,313.8290100097656,382.98199462890625C314.60699462890625,382.98199462890625,315.3240051269531,382.55499267578125,315.6960144042969,381.87298583984375C316.87298583984375,379.7099914550781,344.52099609375,328.4859924316406,344.52099609375,292.8070068359375C344.52099609375,291.9930114746094,344.0509948730469,291.2449951171875,343.3160095214844,290.8909912109375C342.5799865722656,290.5369873046875,341.70599365234375,290.635986328125,341.0679931640625,291.1470031738281C341.27899169921875,290.97900390625,341.5190124511719,290.8760070800781,341.7650146484375,290.7950134277344L341.7560119628906,290.7770080566406C341.0719909667969,290.9939880371094,272.26300048828125,312.4469909667969,178.33799743652344,324.34100341796875C84.22899627685547,336.2640075683594,29.5780029296875,342.05499267578125,29.037002563476562,342.11199951171875L29.035995483398438,342.1289978027344C29.156997680664062,342.11700439453125,29.2760009765625,342.0979919433594,29.39800262451172,342.1050109863281zM340.1449890136719,296.96099853515625C338.2869873046875,328.48199462890625,316.4519958496094,371.31500244140625,312.5530090332031,378.73199462890625L15.339000701904297,378.10699462890625C18.30999755859375,371.21099853515625,25.847999572753906,354.01800537109375,30.399002075195312,346.42999267578125C46.58799743652344,347.43798828125,63.000999450683594,347.95098876953125,79.20500183105469,347.95098876953125C157.24400329589844,347.95001220703125,219.83999633789062,336.2919921875,258.6090087890625,326.5119934082031C299.1289978027344,316.2860107421875,327.9119873046875,304.625,340.1449890136719,296.96099853515625zM79.2040023803711,343.6969909667969C71.64900207519531,343.6969909667969,64.0479965209961,343.58599853515625,56.44599914550781,343.3630065917969L56.44599914550781,343.3479919433594C81.50399780273438,340.49798583984375,123.30599975585938,335.5979919433594,178.87399291992188,328.5589904785156C245.42999267578125,320.1260070800781,299.44500732421875,306.9129943847656,325.7250061035156,299.7850036621094L325.72698974609375,299.7869873046875C287.93798828125,317.1409912109375,195.04200744628906,343.69500732421875,79.2040023803711,343.6969909667969z"/>
<path id="Mast" fill="#56534A" d="M189.76600646972656,19.643999099731445C190.19400024414062,19.714000701904297,190.5709991455078,19.915000915527344,190.8699951171875,20.19499969482422L190.5449981689453,10.97599983215332L177.60699462890625,10.97599983215332C176.2270050048828,10.97599983215332,175.10699462890625,12.095000267028809,175.10699462890625,13.47599983215332C175.10699462890625,14.857000350952148,176.2259979248047,15.97599983215332,177.60699462890625,15.97599983215332L185.71600341796875,15.97599983215332L186.02499389648438,24.704999923706055L187.43499755859375,20.986000061035156C187.79200744628906,20.04199981689453,188.76800537109375,19.47599983215332,189.76600646972656,19.643999099731445zM195.74899291992188,300.802001953125C195.74899291992188,300.802001953125,200.38600158691406,300.6669921875,200.73800659179688,300.4219970703125L201.91400146484375,333.77301025390625C200.26600646972656,334.04400634765625,198.60899353027344,334.3070068359375,196.93899536132812,334.57000732421875L195.8509979248047,303.677001953125L83.38099670410156,303.677001953125C82.2770004272461,303.677001953125,81.38099670410156,302.781005859375,81.38099670410156,301.677001953125C81.38099670410156,300.8479919433594,81.88600158691406,300.1369934082031,82.60600280761719,299.8330078125C82.61599731445312,299.8500061035156,82.62100219726562,299.8680114746094,82.63200378417969,299.8840026855469C83.02899932861328,300.4590148925781,83.68299865722656,300.802001953125,84.38099670410156,300.802001953125L195.74899291992188,300.802001953125z"/>
<path id="Sails" fill="#FFFCEE" d="M192.01600646972656,309.73199462890625C189.95399475097656,309.73199462890625,187.89500427246094,309.7019958496094,185.89300537109375,309.6390075683594L184.5709991455078,309.6000061035156L184.9709930419922,308.33599853515625C186.0240020751953,305.00799560546875,187.11700439453125,301.4679870605469,188.2969970703125,297.5480041503906L86.01100158691406,297.5480041503906L188.5,27.341999053955078L192.49400329589844,136.7740020751953L160.56300354003906,136.7740020751953C160.28700256347656,136.7740020751953,160.06300354003906,136.99899291992188,160.06300354003906,137.2740020751953C160.06300354003906,137.5489959716797,160.28700256347656,137.7740020751953,160.56300354003906,137.7740020751953L192.531005859375,137.7740020751953L194.55599975585938,193.2740020751953L141.95199584960938,193.2740020751953C141.67599487304688,193.2740020751953,141.45199584960938,193.49899291992188,141.45199584960938,193.7740020751953C141.45199584960938,194.0489959716797,141.67599487304688,194.2740020751953,141.95199584960938,194.2740020751953L194.58900451660156,194.2740020751953L196.53700256347656,247.66600036621094L201.7530059814453,247.10499572753906C214.28700256347656,192.822998046875,217.58200073242188,150.3090057373047,218.13800048828125,124.16000366210938C218.75399780273438,95.01899719238281,216.43299865722656,75.11499786376953,214.99200439453125,65.84500122070312L214.42999267578125,62.23699951171875L216.75,65.05599975585938C302.9960021972656,169.84800720214844,334.10699462890625,259.2449951171875,339.4679870605469,276.1029968261719L339.7510070800781,276.9930114746094L338.8819885253906,277.33599853515625C325.1780090332031,282.7439880371094,253.67999267578125,309.73199462890625,192.01600646972656,309.73199462890625z"/>
<path id="SailsBorder" fill="#C6C0A7" d="M183.91200256347656,300.802001953125L84.38200378417969,300.802001953125C83.68399810791016,300.802001953125,83.02999877929688,300.4590148925781,82.63300323486328,299.8840026855469C82.23699951171875,299.3110046386719,82.14800262451172,298.57598876953125,82.3949966430664,297.9230041503906L186.98800659179688,22.160999298095703L186.98199462890625,22.166000366210938C186.7969970703125,21.548999786376953,187.0290069580078,20.861000061035156,187.59100341796875,20.488000869750977C187.6529998779297,20.447999954223633,187.71499633789062,20.413000106811523,187.7790069580078,20.382999420166016L187.78199768066406,20.388999938964844C188.2530059814453,19.819000244140625,189,19.516000747680664,189.76100158691406,19.643999099731445C190.75900268554688,19.808000564575195,191.5030059814453,20.652999877929688,191.5399932861328,21.663999557495117L191.62100219726562,23.871000289916992L191.62100219726562,23.871999740600586L212.82899475097656,55.98899841308594L212.82899475097656,55.99100112915039C213.28799438476562,56.08399963378906,213.71600341796875,56.32699966430664,214.03399658203125,56.707000732421875C312.8489990234375,174.40499877929688,342.87200927734375,276.04901123046875,343.1629943847656,277.0610046386719C343.4620056152344,278.10198974609375,342.9339904785156,279.2030029296875,341.9320068359375,279.6159973144531C341.1239929199219,279.95001220703125,260.3500061035156,312.9840087890625,192.01100158691406,312.9840087890625C188.93600463867188,312.9840087890625,185.88900756835938,312.91900634765625,182.9499969482422,312.7869873046875C182.28900146484375,312.7569885253906,181.6790008544922,312.4209899902344,181.302001953125,311.87799072265625C180.9250030517578,311.3349914550781,180.822998046875,310.64898681640625,181.0240020751953,310.01800537109375L183.91200256347656,300.802001953125zM199.63299560546875,241.76800537109375C210.8459930419922,191.7449951171875,214.28799438476562,151.85899353027344,214.88499450683594,124.31400299072266C215.80299377441406,81.93900299072266,210.3990020751953,58.79600143432617,210.343994140625,58.56800079345703C210.27000427246094,58.257999420166016,210.2760009765625,57.948001861572266,210.3350067138672,57.652000427246094L210.3350067138672,57.6510009765625L191.83399963378906,29.631000518798828L191.83599853515625,29.634000778198242L199.58599853515625,241.98500061035156M189.64300537109375,296.552001953125C188.4459991455078,300.5400085449219,187.21499633789062,304.56298828125,185.9239959716797,308.64300537109375C187.9239959716797,308.7049865722656,189.96400451660156,308.7340087890625,192.01600646972656,308.7340087890625C253.87799072265625,308.7340087890625,326.2699890136719,281.2430114746094,338.51800537109375,276.4079895019531C334.0880126953125,262.47698974609375,302.9339904785156,171.34500122070312,215.9810028076172,65.69400024414062C217.56500244140625,75.88999938964844,219.74899291992188,95.56600189208984,219.13900756835938,124.18399810791016C218.43798828125,157.26600646972656,213.68600463867188,207.968994140625,196.4510040283203,272.56500244140625C194.36900329589844,280.35699462890625,192.10000610351562,288.3590087890625,189.64300537109375,296.552001953125zM185.20599365234375,296.552001953125C189.28700256347656,283.02801513671875,192.83200073242188,270.0350036621094,195.90199279785156,257.61199951171875L195.90199279785156,257.57598876953125L195.68899536132812,251.7760009765625L123.74200439453125,251.7760009765625C122.91299438476562,251.7760009765625,122.24200439453125,251.10400390625,122.24200439453125,250.2760009765625C122.24200439453125,249.4499969482422,122.91299438476562,248.7760009765625,123.74200439453125,248.7760009765625L195.58099365234375,248.7760009765625L193.6280059814453,195.2760009765625L141.9550018310547,195.2760009765625C141.12600708007812,195.2760009765625,140.4550018310547,194.60400390625,140.4550018310547,193.7760009765625C140.4550018310547,192.947998046875,141.12600708007812,192.2760009765625,141.9550018310547,192.2760009765625L193.51699829101562,192.2760009765625L191.56399536132812,138.7760009765625L160.56399536132812,138.7760009765625C159.73500061035156,138.7760009765625,159.06399536132812,138.10400390625,159.06399536132812,137.2760009765625C159.06399536132812,136.447998046875,159.73500061035156,135.7760009765625,160.56399536132812,135.7760009765625L191.45799255371094,135.7760009765625L187.6820068359375,32.31999969482422L87.45999908447266,296.552001953125L185.1999969482422,296.552001953125"/>
</g>
</g>
</svg>