<svg xmlns="http://www.w3.org/2000/svg" xmlns:xlink="http://www.w3.org/1999/xlink" viewBox= "0 0 193 163" width="193px" height="163px">
<!--Created with Scratch Jr-->
<g xmlns="http://www.w3.org/2000/svg" id="layer1" style="pointer-events:visiblePainted">
<g id="Frog.svg" transform="rotate(0)">
<path id="Frog" fill="#28B219" d="M180.75,112.6669921875C181.0159912109375,108.95999145507812,175.697998046875,107.92500305175781,168.281005859375,107.39599609375C160.86300659179688,106.86700439453125,153,104.9169921875,153,104.9169921875L145.06597900390625,102.23800659179688L145.052001953125,101.85299682617188C144.9630126953125,99.89999389648438,144.77301025390625,98.08700561523438,144.44097900390625,96.57499694824219L142.01699829101562,89.08000183105469C150.15802001953125,79.96299743652344,160.30999755859375,67.6820068359375,155.49899291992188,64.4169921875C149.74200439453125,60.50999450683594,138.80999755859375,64.72299194335938,131.7689971923828,69.8179931640625L131.33399963378906,69.90899658203125C130.5240020751953,68.0989990234375,129.41799926757812,66.36799621582031,127.93699645996094,64.78900146484375C144.166015625,53.501007080078125,146.29299926757812,45.55999755859375,136.16900634765625,42.871002197265625C139.64999389648438,40.016998291015625,142.60699462890625,36.2760009765625,142.60699462890625,29.964996337890625C142.60699462890625,21.524993896484375,140.48101806640625,14.592002868652344,132.74899291992188,13.09100341796875C122.72900390625,11.262001037597656,118.40299987792969,21.2969970703125,116.11300659179688,22.932998657226562C113.822998046875,24.5679931640625,89.82000732421875,26.496002197265625,87.82199096679688,21.623992919921875C86.24200439453125,17.731002807617188,80.3909912109375,12.423004150390625,74.24899291992188,12.417999267578125C68.00299072265625,12.417999267578125,59.748992919921875,18.34100341796875,59.748992919921875,28.917999267578125C59.628997802734375,33.96600341796875,61.66600036621094,40.501007080078125,65.13400268554688,44.12799072265625C65.13400268554688,44.12799072265625,62.66999816894531,45.66600036621094,61.85600280761719,49.17500305175781C61.04100036621094,52.68499755859375,60.53199768066406,56.53700256347656,63.28199768066406,62.649993896484375C63.28199768066406,62.649993896484375,60.7449951171875,66.1510009765625,58.75599670410156,72.260009765625L57.91999816894531,72.80400085449219C49.26800537109375,67.11399841308594,30.035995483398438,56.04400634765625,25.878005981445312,62.5C21.326995849609375,69.56500244140625,28.910003662109375,77.625,34.41099548339844,81.90399169921875C39.912994384765625,86.18399047851562,54.88999938964844,98.10400390625,45.415008544921875,101.15899658203125C35.94000244140625,104.2139892578125,30.742996215820312,108.49299621582031,23.40899658203125,109.71600341796875C16.072998046875,110.94000244140625,10.878005981445312,112.46800231933594,11.488998413085938,116.13600158691406C12.100006103515625,119.802001953125,22.49200439453125,117.66299438476562,22.49200439453125,117.66299438476562C22.49200439453125,117.66299438476562,9.350006103515625,126.22000122070312,17.296005249023438,128.97300720214844C25.242996215820312,131.72300720214844,32.884002685546875,116.74700927734375,32.884002685546875,116.74700927734375C32.884002685546875,116.74700927734375,31.96600341796875,127.4429931640625,37.77400207519531,127.13900756835938C43.582000732421875,126.8330078125,40.83099365234375,116.13600158691406,40.83099365234375,116.13600158691406C40.83099365234375,116.13600158691406,50.9169921875,123.16500854492188,53.972991943359375,118.58099365234375C57.029998779296875,113.9949951171875,44.80499267578125,109.71600341796875,44.80499267578125,109.71600341796875L51.968994140625,106.96600341796875L51.97599792480469,106.99400329589844C54.321990966796875,114.76998901367188,57.9010009765625,123.9949951171875,57.9010009765625,123.9949951171875C58.055999755859375,126.48199462890625,38.14300537109375,127.47099304199219,39.99299621582031,134.4969940185547C41.75199890136719,141.1840057373047,54.70399475097656,132.91200256347656,55.968994140625,132.08599853515625C56.03399658203125,132.04299926757812,56.076995849609375,132.01600646972656,56.076995849609375,132.01600646972656C56.076995849609375,132.01600646972656,56.03300476074219,132.04400634765625,55.968994140625,132.08599853515625C54.4320068359375,133.09800720214844,35.389007568359375,145.85699462890625,44.74000549316406,150.71200561523438C54.47999572753906,155.76800537109375,59.4739990234375,136.5959930419922,59.4739990234375,136.5959930419922C59.4739990234375,136.5959930419922,57.686004638671875,152.25399780273438,67.11799621582031,149.9730224609375C76.55000305175781,147.69000244140625,68.59799194335938,134.6219940185547,68.59799194335938,134.6219940185547C68.59799194335938,134.6219940185547,77.66000366210938,146.08700561523438,82.83799743652344,139.92300415039062C88.0159912109375,133.75900268554688,71.18499755859375,125.7449951171875,71.18499755859375,125.7449951171875C71.18499755859375,125.7449951171875,65.06100463867188,112.63900756835938,61.342010498046875,103.54499816894531L60.30400085449219,99.22599792480469C64.88900756835938,105.9010009765625,74.11599731445312,111.78399658203125,90.95401000976562,112.16200256347656C109.33799743652344,112.16200256347656,119.114990234375,108.71200561523438,124.739990234375,103.38900756835938C124.92800903320312,103.21099853515625,133.24000549316406,105.87699890136719,133.24000549316406,105.87699890136719L132.52000427246094,121.69400024414062C131.72500610351562,129.41700744628906,115.16600036621094,130.77999877929688,118.99899291992188,137.61399841308594C122.83200073242188,144.447998046875,131.49899291992188,136.947998046875,131.49899291992188,136.947998046875C131.49899291992188,136.947998046875,127.33299255371094,150.114013671875,136.49899291992188,151.114013671875C145.66497802734375,152.114013671875,141.166015625,139.11399841308594,141.166015625,139.11399841308594C141.166015625,139.11399841308594,157.8330078125,151.447998046875,161.666015625,144.447998046875C165.49899291992188,137.447998046875,146.8330078125,132.7779998779297,146.8330078125,132.7779998779297C146.8330078125,132.7779998779297,163.166015625,135.2779998779297,161.666015625,128.9459991455078C161.26300048828125,127.24400329589844,159.82400512695312,126.239990234375,157.92599487304688,125.60699462890625L157.53900146484375,125.48899841308594C160.9420166015625,123.21800231933594,159.50701904296875,115.28298950195312,159.50701904296875,115.28298950195312C159.50701904296875,115.28298950195312,168.51898193359375,129.47500610351562,176.16998291015625,125.99200439453125C183.82400512695312,122.510009765625,169.93899536132812,115.22100830078125,169.93899536132812,115.22100830078125S180.4840087890625,116.37600708007812,180.75,112.6669921875zM151.98599243164062,124.55099487304688C147.91900634765625,124.14399719238281,144.07598876953125,123.968994140625,143.833984375,122.11199951171875C143.833984375,122.11199951171875,143.95098876953125,121.281005859375,144.11300659179688,119.89599609375L144.11798095703125,119.85800170898438C147.76400756835938,118.61000061035156,151.53799438476562,115.41799926757812,151.53799438476562,115.41799926757812C151.53799438476562,115.41799926757812,150.54299926757812,121.68899536132812,152.59600830078125,124.61700439453125L151.98599243164062,124.55099487304688zM145.02301025390625,108.86399841308594L146.97998046875,109.39999389648438C146.97998046875,109.39999389648438,146.125,109.79598999023438,144.94500732421875,110.45199584960938L145.02301025390625,108.86399841308594z"/>
<path id="Belly_1_" fill="#FFE6B3" d="M99.00100708007812,65.5C84.364990234375,65.5,72.50100708007812,78.16400146484375,72.50100708007812,93.78199768066406C72.50100708007812,99.46200561523438,74.08799743652344,104.73599243164062,76.78900146484375,109.1669921875C80.68499755859375,110.29598999023438,85.34600830078125,111.03399658203125,90.96701049804688,111.1610107421875C108.25199890136719,111.15899658203125,118.60000610351562,106.9320068359375,124.29499816894531,102.1929931640625C125.07200622558594,99.5360107421875,125.50199890136719,96.7139892578125,125.50199890136719,93.78199768066406C125.50199890136719,78.16400146484375,113.63699340820312,65.5,99.00100708007812,65.5z"/>
<path id="FrogBorder" fill="#137F00" d="M54.774993896484375,119.92800903320312C54.777008056640625,119.93399047851562,54.779998779296875,119.94200134277344,54.78199768066406,119.94900512695312C54.06199645996094,120.75599670410156,53.11199951171875,121.30300903320312,51.972991943359375,121.51998901367188C49.0830078125,122.06100463867188,45.404998779296875,120.50399780273438,42.87200927734375,119.13299560546875C43.12200927734375,121.54100036621094,43.07000732421875,124.6719970703125,41.60200500488281,126.67098999023438C40.718994140625,127.87300109863281,39.423004150390625,128.55299377441406,37.852996826171875,128.63499450683594C36.28199768066406,128.72300720214844,34.88600158691406,128.1840057373047,33.82600402832031,127.08700561523438C32.52000427246094,125.73599243164062,31.878997802734375,123.69999694824219,31.576004028320312,121.77499389648438C28.867996215820312,125.68499755859375,24.352005004882812,130.80799865722656,19.283004760742188,130.80799865722656C18.470001220703125,130.80799865722656,17.643997192382812,130.67599487304688,16.8070068359375,130.38800048828125C14.139999389648438,129.46299743652344,13.412994384765625,127.90800476074219,13.274002075195312,126.76300048828125C12.983993530273438,124.39999389648438,15.091995239257812,121.80300903320312,17.300003051757812,119.78199768066406C15.145004272460938,119.84300231933594,12.897003173828125,119.60699462890625,11.501007080078125,118.64999389648438C10.67999267578125,118.08700561523438,10.164993286132812,117.30099487304688,10.011993408203125,116.3800048828125C9.733001708984375,114.70401000976562,10.169998168945312,112.35099792480469,13.839004516601562,110.64599609375C15.858993530273438,109.7080078125,18.647994995117188,108.98800659179688,23.165008544921875,108.2340087890625C27.03399658203125,107.58799743652344,30.316009521484375,106.02899169921875,34.11700439453125,104.2239990234375C37.180999755859375,102.76699829101562,40.65399169921875,101.11900329589844,44.957000732421875,99.73001098632812C46.785003662109375,99.13999938964844,46.917999267578125,98.37899780273438,46.962005615234375,98.12899780273438C47.22700500488281,96.62899780273438,45.8280029296875,92.68099975585938,33.49200439453125,83.08499145507812C24.040008544921875,75.73300170898438,20.722000122070312,67.73300170898438,24.617996215820312,61.68499755859375C25.45599365234375,60.38299560546875,26.751998901367188,59.550994873046875,28.47100830078125,59.209991455078125C35.962005615234375,57.72599792480469,50.691009521484375,66.38800048828125,57.43499755859375,70.70500183105469C57.43499755859375,70.70500183105469,57.43499755859375,70.70500183105469,57.43499755859375,70.70599365234375L57.43699645996094,70.7080078125C57.634002685546875,70.39399719238281,57.83099365234375,70.08200073242188,58.031005859375,69.78399658203125L58.031005859375,69.78399658203125L58.02899169921875,69.78500366210938C59.389007568359375,66.1669921875,60.84100341796875,63.65699768066406,61.58099365234375,62.4949951171875C59.00199890136719,56.33799743652344,59.61000061035156,52.222991943359375,60.39599609375,48.83399963378906C60.933990478515625,46.516998291015625,62.0989990234375,44.92399597167969,63.024993896484375,43.96800231933594C60.04600524902344,40.1199951171875,58.125,34.16600036621094,58.251007080078125,28.880996704101562C58.251007080078125,17.1719970703125,67.54299926757812,10.916999816894531,74.25100708007812,10.916999816894531C81.23699951171875,10.9219970703125,87.53199768066406,16.91699981689453,89.21299743652344,21.05999755859375C89.5679931640625,21.925994873046875,92.98899841308594,23.2239990234375,100.94900512695312,23.2239990234375C108.0989990234375,23.2239990234375,114.3699951171875,22.22100830078125,115.26300048828125,21.697006225585938C115.5889892578125,21.464004516601562,116.24400329589844,20.613998413085938,116.87899780273438,19.792999267578125C119.31399536132812,16.64299774169922,123.38800048828125,11.369003295898438,130.37100219726562,11.369003295898438C131.2310028076172,11.369003295898438,132.1230010986328,11.451995849609375,133.01800537109375,11.614997863769531C140.4849853515625,13.06500244140625,144.10601806640625,19.065994262695312,144.10601806640625,29.964996337890625C144.10601806640625,35.9010009765625,141.5889892578125,39.72999572753906,139.052978515625,42.28599548339844C142.36199951171875,43.7550048828125,143.4420166015625,45.8280029296875,143.72500610351562,47.446990966796875C144.53900146484375,52.07899475097656,139.9730224609375,58.00199890136719,130.14700317382812,65.06300354003906C130.43600463867188,65.42900085449219,130.7030029296875,65.80300903320312,130.95899963378906,66.17999267578125C130.91299438476562,66.12100219726562,130.86599731445312,66.05599975585938,130.82000732421875,65.99800109863281L130.8179931640625,65.99600219726562C131.25599670410156,66.55000305175781,131.69900512695312,67.1409912109375,132.14199829101562,67.75299072265625L132.14199829101562,67.75299072265625L132.1439971923828,67.75299072265625C139.3590087890625,62.941009521484375,150.02899169921875,58.891998291015625,156.3380126953125,63.17500305175781C157.39999389648438,63.89399719238281,158.0419921875,64.97100830078125,158.19900512695312,66.28900146484375C158.8070068359375,71.3699951171875,152.11798095703125,79.92999267578125,143.7440185546875,89.38099670410156C143.74298095703125,89.37799072265625,143.74099731445312,89.375,143.739990234375,89.37200927734375L143.73800659179688,89.37200927734375C144.708984375,91.89300537109375,145.46099853515625,94.24899291992188,145.89898681640625,96.25299072265625C146.2130126953125,97.68499755859375,146.406982421875,99.36000061035156,146.510009765625,101.15699768066406L146.51400756835938,101.15798950195312C146.51199340820312,101.15299987792969,146.51199340820312,101.14900207519531,146.51199340820312,101.14300537109375L153.41400146484375,103.47500610351562C154.1409912109375,103.6510009765625,161.5159912109375,105.40899658203125,168.38299560546875,105.89900207519531C172.95098876953125,106.22500610351562,175.79400634765625,106.67999267578125,177.89300537109375,107.42401123046875C181.70700073242188,108.7760009765625,182.364013671875,111.0780029296875,182.24099731445312,112.77200317382812C182.17401123046875,113.70500183105469,181.7349853515625,114.53399658203125,180.97000122070312,115.1719970703125C179.66900634765625,116.25700378417969,177.447021484375,116.697998046875,175.302001953125,116.843994140625C177.69097900390625,118.64900207519531,180.031982421875,121.0360107421875,179.96600341796875,123.4169921875C179.9329833984375,124.5679931640625,179.35498046875,126.18600463867188,176.7860107421875,127.35499572753906C175.74200439453125,127.83099365234375,174.68798828125,128.04100036621094,173.6409912109375,128.04100036621094C168.843994140625,128.04100036621094,164.1920166015625,123.63299560546875,161.2760009765625,120.16500854492188C161.17300415039062,121.79000854492188,160.8380126953125,123.51199340820312,160.0469970703125,124.8909912109375L160.05099487304688,124.88900756835938L160.05099487304688,124.88900756835938C161.572021484375,125.69200134277344,162.71002197265625,126.85600280761719,163.12298583984375,128.60000610351562C163.56201171875,130.46099853515625,162.8699951171875,131.70399475097656,162.21002197265625,132.4199981689453C160.98599243164062,133.74600219726562,158.76400756835938,134.37899780273438,156.35601806640625,134.63699340820312C159.3599853515625,136.11599731445312,162.18402099609375,138.06700134277344,163.22900390625,140.45399475097656C163.906982421875,142.00100708007812,163.82000732421875,143.6300048828125,162.97900390625,145.1649932861328C162.19000244140625,146.60499572753906,160.9010009765625,147.55902099609375,159.25,147.9210205078125C154.62899780273438,148.94000244140625,147.65399169921875,145.15899658203125,143.53799438476562,142.54200744628906C143.94400024414062,145.14300537109375,143.98300170898438,148.43798828125,142.27398681640625,150.5789794921875C141.48699951171875,151.56597900390625,140.02899169921875,152.66400146484375,137.44000244140625,152.66400146484375C137.08999633789062,152.66400146484375,136.72300720214844,152.64398193359375,136.33299255371094,152.60198974609375C133.77200317382812,152.322998046875,131.83900451660156,151.20700073242188,130.58799743652344,149.28997802734375C128.86599731445312,146.64700317382812,128.8939971923828,143.0019989013672,129.25900268554688,140.2740020751953C127.3280029296875,141.33700561523438,124.79100036621094,142.3000030517578,122.38600158691406,141.87899780273438C120.4169921875,141.53500366210938,118.79299926757812,140.31300354003906,117.68899536132812,138.3419952392578C114.94100952148438,133.44400024414062,119.90499877929688,130.60800170898438,123.89199829101562,128.3280029296875C127.25300598144531,126.40699768066406,130.72999572753906,124.42098999023438,131.02699279785156,121.53500366210938C131.02999877929688,121.44999694824219,131.39100646972656,113.86799621582031,131.69700622558594,106.82598876953125L131.6999969482422,106.76499938964844L124.90499877929688,104.90299987792969L124.90399169921875,104.90299987792969L124.90399169921875,104.90299987792969C119.0679931640625,109.4169921875,108.83599853515625,113.65899658203125,90.9530029296875,113.65899658203125C90.94200134277344,113.65899658203125,90.93099975585938,113.65899658203125,90.91900634765625,113.65899658203125C78.1669921875,113.37200927734375,69.37200927734375,109.9739990234375,63.66400146484375,105.21200561523438L63.66600036621094,105.2139892578125C66.00100708007812,110.77099609375,69.18299865722656,117.8909912109375,72.32400512695312,124.62799072265625C74.79000854492188,125.85699462890625,84.02400207519531,130.78199768066406,85.19999694824219,136.197998046875C85.56600952148438,137.88600158691406,85.14700317382812,139.50599670410156,83.98899841308594,140.88600158691406C82.6929931640625,142.4290008544922,81.02099609375,143.24000549316406,79.14801025390625,143.24000549316406C79.11599731445312,143.24000549316406,79.08399963378906,143.24000549316406,79.05099487304688,143.24000549316406C76.8699951171875,143.20700073242188,74.67300415039062,142.0959930419922,72.78199768066406,140.72300720214844C73.32598876953125,142.92799377441406,73.49299621582031,145.31900024414062,72.64900207519531,147.35198974609375C72.05499267578125,148.78302001953125,70.67401123046875,150.6519775390625,67.47200012207031,151.42599487304688C64.30799865722656,152.19000244140625,62.292999267578125,151.15802001953125,61.160003662109375,150.15802001953125C59.511993408203125,148.70098876953125,58.6510009765625,146.4199981689453,58.220001220703125,144.1269989013672C56.584991455078125,147.45098876953125,54.196990966796875,150.97500610351562,51.0159912109375,152.3909912109375C50.01100158691406,152.8380126953125,48.98699951171875,153.06100463867188,47.949005126953125,153.06100463867188C46.66600036621094,153.06100463867188,45.363006591796875,152.72100830078125,44.05000305175781,152.03997802734375C41.38099670410156,150.65399169921875,40.74200439453125,148.72900390625,40.675994873046875,147.35800170898438C40.537994384765625,144.47900390625,42.88999938964844,141.2169952392578,45.75199890136719,138.3459930419922C44.16999816894531,138.6540069580078,42.6669921875,138.6739959716797,41.430999755859375,138.20599365234375C39.970001220703125,137.65199279785156,38.97200012207031,136.5,38.54400634765625,134.87399291992188C36.99299621582031,128.98199462890625,45.459991455078125,126.7080078125,51.64300537109375,125.0469970703125C53.19599914550781,124.6300048828125,55.220001220703125,124.08700561523438,56.16999816894531,123.66200256347656C55.86399841308594,122.85699462890625,55.36900329589844,121.54499816894531,54.774993896484375,119.92800903320312L54.774993896484375,119.92800903320312zM50.141998291015625,106.06100463867188L50.141998291015625,106.06100463867188C49.58599853515625,104.13200378417969,49.12699890136719,102.33200073242188,48.8330078125,100.81100463867188L48.83099365234375,100.80899047851562C48.83099365234375,100.81100463867188,48.832000732421875,100.81500244140625,48.832000732421875,100.81700134277344C48.214996337890625,101.4949951171875,47.28700256347656,102.1300048828125,45.876007080078125,102.58599853515625C41.76100158691406,103.91299438476562,38.52899169921875,105.44900512695312,35.40299987792969,106.93499755859375C31.56500244140625,108.75799560546875,27.94000244140625,110.48199462890625,23.656005859375,111.19500732421875C20.843002319335938,111.66500854492188,17.326995849609375,112.33599853515625,15.100997924804688,113.3699951171875C12.73199462890625,114.47100830078125,12.891998291015625,115.42999267578125,12.968994140625,115.8909912109375C12.977996826171875,115.947998046875,12.994003295898438,116.03900146484375,13.195999145507812,116.17900085449219C14.634994506835938,117.16600036621094,19.322006225585938,116.78298950195312,22.190994262695312,116.19599914550781C22.899002075195312,116.052001953125,23.604995727539062,116.427001953125,23.878997802734375,117.093994140625C24.152999877929688,117.760009765625,23.915008544921875,118.52799987792969,23.311004638671875,118.92098999023438C19.742996215820312,121.24800109863281,16.054000854492188,124.81100463867188,16.248992919921875,126.40200805664062C16.3179931640625,126.9639892578125,17.24200439453125,127.36700439453125,17.785995483398438,127.55400085449219C23.294998168945312,129.4499969482422,29.587005615234375,119.906005859375,31.5469970703125,116.06600952148438C31.873001098632812,115.42599487304688,32.602996826171875,115.10699462890625,33.29400634765625,115.30599975585938C33.983001708984375,115.50100708007812,34.43800354003906,116.16000366210938,34.37699890136719,116.87300109863281C34.24700927734375,118.41900634765625,34.26300048828125,123.22900390625,35.98100280761719,125.00199890136719C36.438995361328125,125.47599792480469,36.990997314453125,125.67401123046875,37.6929931640625,125.63999938964844C38.371002197265625,125.60501098632812,38.83000183105469,125.37399291992188,39.180999755859375,124.89599609375C40.60200500488281,122.95899963378906,39.777008056640625,118.07000732421875,39.376007080078125,116.50900268554688C39.220001220703125,115.90200805664062,39.4580078125,115.26100158691406,39.972991943359375,114.90399169921875C40.488006591796875,114.5469970703125,41.1719970703125,114.54901123046875,41.686004638671875,114.90399169921875C43.417999267578125,116.1090087890625,48.540008544921875,119.12300109863281,51.41400146484375,118.57199096679688C52.00799560546875,118.45899963378906,52.42399597167969,118.19699096679688,52.722991943359375,117.75C52.97100830078125,117.37799072265625,53.02099609375,117.07199096679688,52.89500427246094,116.69500732421875C52.22900390625,114.70401000976562,47.47200012207031,112.24299621582031,44.3070068359375,111.13200378417969C43.71299743652344,110.92300415039062,43.31300354003906,110.36599731445312,43.30400085449219,109.73599243164062C43.29499816894531,109.10699462890625,43.67900085449219,108.54100036621094,44.2659912109375,108.31399536132812L50.139007568359375,106.05999755859375L50.141998291015625,106.06100463867188zM153.47500610351562,123.20700073242188C154.718994140625,123.35299682617188,155.968017578125,123.54901123046875,157.14501953125,123.83999633789062L157.14501953125,123.83999633789062L157.14700317382812,123.84201049804688C157.1619873046875,123.82400512695312,157.177978515625,123.81300354003906,157.19400024414062,123.79400634765625C158.73699951171875,121.86700439453125,158.302001953125,117.07598876953125,158.02801513671875,115.55000305175781C157.90301513671875,114.843994140625,158.29299926757812,114.14900207519531,158.96099853515625,113.88699340820312C159.62600708007812,113.62600708007812,160.38800048828125,113.87399291992188,160.77301025390625,114.47900390625C163.08700561523438,118.11900329589844,170.25201416015625,127.03599548339844,175.5469970703125,124.62699890136719C176.072998046875,124.38900756835938,176.9539794921875,123.90200805664062,176.97198486328125,123.33599853515625C177.01699829101562,121.73199462890625,173.010986328125,118.53298950195312,169.24099731445312,116.55099487304688C168.60299682617188,116.21600341796875,168.29400634765625,115.47500610351562,168.50399780273438,114.78500366210938C168.7139892578125,114.09500122070312,169.38201904296875,113.64999389648438,170.10198974609375,113.73001098632812C173.00900268554688,114.04499816894531,177.7130126953125,113.989990234375,179.05499267578125,112.8699951171875C179.24298095703125,112.71200561523438,179.25,112.61799621582031,179.25399780273438,112.55999755859375C179.28799438476562,112.093994140625,179.35800170898438,111.125,176.89501953125,110.25199890136719C174.58200073242188,109.43299865722656,171.02001953125,109.093994140625,168.17498779296875,108.89199829101562C160.7139892578125,108.3590087890625,152.96499633789062,106.45401000976562,152.63900756835938,106.37200927734375C152.60000610351562,106.36199951171875,152.56100463867188,106.35099792480469,152.52200317382812,106.33700561523438L146.61700439453125,104.34300231933594L146.614013671875,104.34201049804688L146.614013671875,104.34201049804688C146.62100219726562,105.4429931640625,146.60400390625,106.56100463867188,146.57000732421875,107.67300415039062L146.572998046875,107.73199462890625L147.3809814453125,107.95500183105469C147.989013671875,108.12100219726562,148.427978515625,108.64999389648438,148.47998046875,109.27700805664062C148.531005859375,109.90699768066406,148.18499755859375,110.50100708007812,147.61300659179688,110.76300048828125C147.22799682617188,110.94100952148438,146.82000732421875,111.14199829101562,146.4019775390625,111.36099243164062L146.39398193359375,111.4219970703125C146.25701904296875,113.6300048828125,146.072998046875,115.7030029296875,145.89599609375,117.43800354003906C145.89398193359375,117.43800354003906,145.89398193359375,117.43800354003906,145.89398193359375,117.43800354003906L145.9019775390625,117.43800354003906C147.8590087890625,116.38900756835938,149.69500732421875,115.0159912109375,150.57400512695312,114.27200317382812C151.052978515625,113.86900329589844,151.73199462890625,113.80499267578125,152.27899169921875,114.11199951171875C152.82400512695312,114.41999816894531,153.12298583984375,115.03399658203125,153.02499389648438,115.65299987792969C152.69900512695312,117.71299743652344,152.6090087890625,121.26400756835938,153.51699829101562,123.21200561523438C153.5050048828125,123.21099853515625,153.49600219726562,123.20999145507812,153.4840087890625,123.20899963378906L153.47500610351562,123.20700073242188zM145.49600219726562,120.93399047851562L145.49600219726562,120.93399047851562C145.44097900390625,121.37399291992188,145.39398193359375,121.72500610351562,145.36300659179688,121.9639892578125C145.88201904296875,122.406005859375,148.36099243164062,122.69200134277344,150.24200439453125,122.87600708007812L150.24200439453125,122.87600708007812C150.2449951171875,122.87600708007812,150.24700927734375,122.87600708007812,150.24899291992188,122.87699890136719L150.2550048828125,122.87799072265625C150.25299072265625,122.87699890136719,150.25100708007812,122.87699890136719,150.24798583984375,122.87699890136719C149.885009765625,121.45401000976562,149.77499389648438,119.9219970703125,149.78900146484375,118.593994140625C148.57501220703125,119.40699768066406,147.07000732421875,120.2919921875,145.50201416015625,120.93600463867188L145.49600219726562,120.93399047851562zM131.83200073242188,103.70599365234375C131.98599243164062,100.01899719238281,132.10400390625,96.86399841308594,132.11700439453125,95.58200073242188L132.11700439453125,95.58200073242188L132.11700439453125,95.58399963378906C131.5800018310547,97.09100341796875,130.3280029296875,99.73599243164062,127.572998046875,102.54598999023438L127.57400512695312,102.54598999023438C127.57899475097656,102.54100036621094,127.58500671386719,102.5360107421875,127.58999633789062,102.531005859375L131.83299255371094,103.6929931640625L131.83200073242188,103.70599365234375zM130.30499267578125,89.23100280761719C129.20899963378906,86.40798950195312,127.82699584960938,83.26699829101562,126.76100158691406,81.01899719238281C126.40699768066406,80.26998901367188,126.72700500488281,79.37600708007812,127.47500610351562,79.02099609375C128.2270050048828,78.6669921875,129.11900329589844,78.98599243164062,129.47300720214844,79.7340087890625C129.69000244140625,80.19100952148438,130.53500366210938,81.989990234375,131.5070037841797,84.25199890136719C131.5070037841797,84.25299072265625,131.5070037841797,84.25399780273438,131.5070037841797,84.25599670410156C132.2169952392578,85.90699768066406,132.99400329589844,87.802001953125,133.64700317382812,89.60400390625L133.64700317382812,89.60400390625C134.48699951171875,91.92300415039062,135.1199951171875,94.08599853515625,135.1199951171875,95.35400390625C135.1199951171875,98.71099853515625,134.06500244140625,120.82598876953125,134.02000427246094,121.76400756835938C133.5590057373047,126.2659912109375,129.21499633789062,128.7469940185547,125.38299560546875,130.93800354003906C120.52799987792969,133.71099853515625,119.19400024414062,134.89300537109375,120.30899047851562,136.87899780273438C120.97500610351562,138.0679931640625,121.82598876953125,138.73899841308594,122.90499877929688,138.92799377441406C125.6510009765625,139.40699768066406,129.3300018310547,136.84100341796875,130.51800537109375,135.81300354003906C131.0240020751953,135.375,131.76100158691406,135.3260040283203,132.32400512695312,135.69400024414062C132.88499450683594,136.06300354003906,133.13299560546875,136.75799560546875,132.92999267578125,137.3990020751953C132.33999633789062,139.2740020751953,131.22300720214844,144.7740020751953,133.10800170898438,147.65802001953125C133.85400390625,148.80099487304688,135.01600646972656,149.4420166015625,136.66400146484375,149.62298583984375C138.99700927734375,149.88201904296875,139.70501708984375,149,139.93499755859375,148.7130126953125C141.62399291992188,146.59500122070312,140.33502197265625,141.29400634765625,139.75,139.60499572753906C139.53500366210938,138.98399353027344,139.75,138.2949981689453,140.27999877929688,137.906005859375C140.80902099609375,137.5189971923828,141.531982421875,137.52099609375,142.05902099609375,137.91000366210938C145.16900634765625,140.2100067138672,154.2080078125,145.96499633789062,158.61199951171875,144.99600219726562C159.42401123046875,144.8179931640625,159.97500610351562,144.4149932861328,160.35198974609375,143.72799682617188C160.74899291992188,142.99899291992188,160.791015625,142.36300659179688,160.4849853515625,141.66200256347656C159.0830078125,138.45599365234375,151.14501953125,135.406005859375,146.468994140625,134.23599243164062C145.69400024414062,134.04299926757812,145.20501708984375,133.27099609375,145.364013671875,132.48599243164062C145.52001953125,131.7010040283203,146.27398681640625,131.1739959716797,147.06100463867188,131.29800415039062C151.47100830078125,131.97000122070312,158.40301513671875,132.13400268554688,160.00799560546875,130.38999938964844C160.197021484375,130.18499755859375,160.35400390625,129.91099548339844,160.20599365234375,129.29400634765625C159.61099243164062,126.78500366210938,154.6710205078125,126.31500244140625,150.70001220703125,125.93699645996094C146.41799926757812,125.531005859375,142.72100830078125,125.177001953125,142.34600830078125,122.30999755859375C142.3280029296875,122.17500305175781,142.3289794921875,122.03900146484375,142.3480224609375,121.906005859375C142.37100219726562,121.73599243164062,144.7130126953125,104.82199096679688,142.97698974609375,96.89999389648438C141.86199951171875,91.8179931640625,138.50399780273438,84.12899780273438,134.66700744628906,77.3330078125L134.66700744628906,77.3330078125C134.66099548339844,77.322998046875,134.6540069580078,77.31199645996094,134.6479949951172,77.302001953125C133.94700622558594,76.05999755859375,133.23199462890625,74.85299682617188,132.5070037841797,73.6929931640625C132.41099548339844,73.54000854492188,131.83099365234375,72.62100219726562,131.63600158691406,72.32099914550781C131.3780059814453,71.92500305175781,130.60499572753906,70.77899169921875,130.4759979248047,70.59201049804688C130.23599243164062,70.2449951171875,129.9969940185547,69.906005859375,129.7570037841797,69.57598876953125C129.6529998779297,69.43099975585938,128.45599365234375,67.83999633789062,128.43099975585938,67.80400085449219L128.43299865722656,67.80400085449219C127.96299743652344,67.11700439453125,127.43699645996094,66.45098876953125,126.84199523925781,65.81700134277344C126.54400634765625,65.49899291992188,126.39999389648438,65.06700134277344,126.44500732421875,64.63400268554688C126.49200439453125,64.20098876953125,126.7239990234375,63.808990478515625,127.08200073242188,63.55999755859375C136.39599609375,57.08099365234375,139.52099609375,52.800994873046875,140.45599365234375,50.266998291015625L135.30099487304688,49.34300231933594C130.1580047607422,48.302001953125,123.75799560546875,47.00700378417969,114.91500854492188,47.45899963378906C107,47.86500549316406,96.54000854492188,50.319000244140625,88.13600158691406,52.29100036621094C82.77200317382812,53.55000305175781,78.53500366210938,54.54400634765625,75.98800659179688,54.78700256347656C75.59799194335938,54.824005126953125,75.20500183105469,54.84199523925781,74.81100463867188,54.84199523925781C70.31700134277344,54.84199523925781,65.677001953125,52.555999755859375,63.06199645996094,51.01800537109375L63.00799560546875,50.985992431640625C62.47200012207031,53.897003173828125,62.4429931640625,57.13299560546875,64.64900207519531,62.03599548339844C64.86900329589844,62.5260009765625,64.81100463867188,63.09600830078125,64.49600219726562,63.531005859375C64.468994140625,63.57000732421875,63.25700378417969,65.2919921875,61.88200378417969,68.35600280761719L61.88200378417969,68.35600280761719L61.88099670410156,68.35600280761719C62.0780029296875,68.83999633789062,62.022003173828125,69.41200256347656,61.67401123046875,69.85099792480469C61.373992919921875,70.23001098632812,61.07598876953125,70.64498901367188,60.77899169921875,71.07099914550781C60.781005859375,71.06399536132812,60.78399658203125,71.05599975585938,60.78700256347656,71.04901123046875C60.76100158691406,71.08700561523438,59.576995849609375,72.93699645996094,59.47100830078125,73.114990234375C59.261993408203125,73.468994140625,57.57499694824219,76.656005859375,57.48699951171875,76.8389892578125C57.29899597167969,77.22799682617188,55.925994873046875,80.32699584960938,55.826995849609375,80.5679931640625C55.59600830078125,81.13400268554688,55.36900329589844,81.70401000976562,55.1510009765625,82.2760009765625L55.1510009765625,82.2760009765625C52.787994384765625,88.48100280761719,51.26800537109375,94.90798950195312,51.49700927734375,98.31100463867188C51.90299987792969,104.33200073242188,59.22700500488281,123.26300048828125,59.300994873046875,123.45500183105469C59.35699462890625,123.60099792480469,59.38999938964844,123.75100708007812,59.399993896484375,123.90499877929688C59.53199768066406,126.0419921875,57.00599670410156,126.718994140625,52.42100524902344,127.95199584960938C47.73500061035156,129.21099853515625,40.65399169921875,131.11199951171875,41.44500732421875,134.1179962158203C41.675994873046875,134.9969940185547,42.12699890136719,135.26800537109375,42.49400329589844,135.4080047607422C45.087005615234375,136.38900756835938,51.248992919921875,133.3560028076172,54.8280029296875,131.0449981689453C55.01800537109375,130.91799926757812,55.165008544921875,130.8209991455078,55.264007568359375,130.75799560546875C55.957000732421875,130.31399536132812,56.8800048828125,130.5050048828125,57.332000732421875,131.19500732421875C57.78399658203125,131.88299560546875,57.59700012207031,132.80799865722656,56.91200256347656,133.26499938964844C56.826995849609375,133.32400512695312,56.686004638671875,133.41400146484375,56.498992919921875,133.53599548339844C51.28199768066406,136.98500061035156,43.4949951171875,143.51499938964844,43.673004150390625,147.2239990234375C43.699005126953125,147.77301025390625,43.910003662109375,148.59500122070312,45.4320068359375,149.385009765625C46.97999572753906,150.18701171875,48.406005859375,150.2769775390625,49.7969970703125,149.656982421875C54.18299865722656,147.70700073242188,57.222991943359375,139.2969970703125,58.02400207519531,136.218994140625C58.22200012207031,135.45599365234375,58.97700500488281,134.9810028076172,59.75,135.1219940185547C60.52299499511719,135.26600646972656,61.05499267578125,135.98399353027344,60.96600341796875,136.76600646972656C60.7030029296875,139.10000610351562,60.58099365234375,145.6529998779297,63.14900207519531,147.91799926757812C64.02999877929688,148.69500732421875,65.2139892578125,148.8909912109375,66.76699829101562,148.5159912109375C68.37699890136719,148.12600708007812,69.39498901367188,147.37100219726562,69.87799072265625,146.20700073242188C71.21299743652344,142.98800659179688,68.48300170898438,137.3159942626953,67.31900024414062,135.40199279785156C66.90699768066406,134.7259979248047,67.09300231933594,133.84500122070312,67.74299621582031,133.39199829101562C68.39300537109375,132.93899536132812,69.28399658203125,133.07000732421875,69.7760009765625,133.6929931640625C71.20700073242188,135.49899291992188,75.6719970703125,140.19500732421875,79.09700012207031,140.2449951171875C80.156005859375,140.2469940185547,80.9429931640625,139.8489990234375,81.69100952148438,138.9600067138672C82.25299072265625,138.29100036621094,82.43600463867188,137.61700439453125,82.26800537109375,136.83900451660156C81.53500366210938,133.46299743652344,74.68699645996094,129.07400512695312,70.54299926757812,127.10200500488281C70.22900390625,126.95401000976562,69.97698974609375,126.697998046875,69.82901000976562,126.38200378417969C67.9949951171875,122.45599365234375,59.875,104.94500732421875,57.636993408203125,97.8800048828125L57.636993408203125,97.88099670410156C57.54899597167969,97.60198974609375,57.470001220703125,97.33999633789062,57.399993896484375,97.093994140625C57.397003173828125,97.08200073242188,57.13800048828125,96.02799987792969,57.11500549316406,95.885009765625C57.1090087890625,95.85198974609375,57.100006103515625,95.81300354003906,57.09600830078125,95.781005859375C57.071990966796875,95.61799621582031,57.07899475097656,94.92300415039062,57.1090087890625,94.67900085449219C57.115997314453125,94.62699890136719,57.121002197265625,94.57598876953125,57.128997802734375,94.52301025390625C57.162994384765625,94.2860107421875,57.20899963378906,94.031005859375,57.266998291015625,93.75799560546875C57.26800537109375,93.75199890136719,57.27099609375,93.74200439453125,57.27400207519531,93.73001098632812C57.30499267578125,93.59300231933594,57.43299865722656,93.05499267578125,57.496002197265625,92.82000732421875C57.514007568359375,92.75299072265625,57.88499450683594,91.49600219726562,57.92399597167969,91.37600708007812C59.39599609375,86.78199768066406,62.27799987792969,80.63900756835938,62.70599365234375,79.73599243164062C63.061004638671875,78.98699951171875,63.95599365234375,78.66900634765625,64.70401000976562,79.02301025390625C65.4530029296875,79.37699890136719,65.77200317382812,80.27200317382812,65.4169921875,81.02099609375C63.34600830078125,85.39498901367188,60.05999755859375,93.15200805664062,60.05999755859375,95.35501098632812L60.279998779296875,96.40899658203125C64.26699829101562,103.8590087890625,73.64801025390625,110.26899719238281,90.97000122070312,110.66299438476562C125.24099731445312,110.65699768066406,129.37100219726562,94.48199462890625,129.52999877929688,93.79499816894531C129.61500549316406,93.42800903320312,129.73500061035156,92.96499633789062,129.8769989013672,92.41799926757812C130.06199645996094,91.70401000976562,130.29100036621094,90.81600952148438,130.5240020751953,89.80499267578125L130.30499267578125,89.23100280761719zM140.364013671875,46.97700500488281C139.4949951171875,45.59199523925781,137.49099731445312,44.77400207519531,135.78599548339844,44.32099914550781C135.24099731445312,44.175994873046875,134.82400512695312,43.73899841308594,134.7050018310547,43.188995361328125C134.58599853515625,42.639007568359375,134.78399658203125,42.0679931640625,135.2209930419922,41.71099853515625C138.13201904296875,39.324005126953125,141.1099853515625,36.06199645996094,141.1099853515625,29.964996337890625C141.1099853515625,20.602996826171875,138.364013671875,15.708999633789062,132.46499633789062,14.564002990722656C131.76400756835938,14.435997009277344,131.05499267578125,14.370002746582031,130.3730010986328,14.370002746582031C124.86099243164062,14.370002746582031,121.48800659179688,18.737998962402344,119.2550048828125,21.628005981445312C118.38299560546875,22.757003784179688,117.6929931640625,23.649002075195312,116.98599243164062,24.15399169921875C115.09201049804688,25.5050048828125,106.45700073242188,26.225006103515625,100.94900512695312,26.225006103515625C88.08799743652344,26.225006103515625,86.843994140625,23.190994262695312,86.43499755859375,22.19500732421875C85.03298950195312,18.738998413085938,79.72000122070312,13.923995971679688,74.24899291992188,13.918998718261719C68.80000305175781,13.918998718261719,61.25,19.132003784179688,61.25,28.91900634765625C61.128997802734375,34.00999450683594,63.218994140625,39.95500183105469,66.218994140625,43.09199523925781C66.531005859375,43.417999267578125,66.67900085449219,43.86700439453125,66.62300109863281,44.316009521484375C66.56700134277344,44.764007568359375,66.31199645996094,45.16200256347656,65.92900085449219,45.4010009765625C65.87600708007812,45.43499755859375,64.7760009765625,46.1719970703125,63.962005615234375,47.7550048828125L63.980010986328125,47.766998291015625C66.21299743652344,49.15699768066406,71.3330078125,51.96400451660156,75.67999267578125,51.55000305175781C78.00900268554688,51.3280029296875,82.35800170898438,50.30799865722656,87.39399719238281,49.126007080078125C95.92500305175781,47.125,106.54299926757812,44.63299560546875,114.75,44.212005615234375C123.99800109863281,43.74000549316406,130.9029998779297,45.13600158691406,135.9459991455078,46.156005859375L140.364013671875,46.97700500488281zM142.48199462890625,86.28900146484375L142.48199462890625,86.28900146484375C148.64398193359375,79.26899719238281,155.68701171875,70.51800537109375,155.2239990234375,66.64599609375C155.1669921875,66.18600463867188,154.99798583984375,65.88999938964844,154.65802001953125,65.65798950195312C149.93701171875,62.45599365234375,140.5579833984375,65.677001953125,133.82899475097656,70.18800354003906L133.82699584960938,70.18800354003906L133.82699584960938,70.18800354003906C135.427001953125,72.60000610351562,137.01400756835938,75.27899169921875,138.49600219726562,78.04800415039062L138.49600219726562,78.04800415039062L138.49899291992188,78.04800415039062C141.33700561523438,74.35800170898438,143.8380126953125,71.17800903320312,147.27001953125,69.2919921875C147.75100708007812,69.02499389648438,148.36199951171875,69.20199584960938,148.62701416015625,69.68600463867188C148.89501953125,70.16999816894531,148.71697998046875,70.77799987792969,148.23199462890625,71.04400634765625C145.06201171875,72.78700256347656,142.635009765625,75.94500732421875,139.82699584960938,79.60198974609375C139.72799682617188,79.73001098632812,139.6199951171875,79.86799621582031,139.51898193359375,79.99899291992188C139.51300048828125,79.98500061035156,139.50399780273438,79.97100830078125,139.49798583984375,79.95700073242188L139.4949951171875,79.95700073242188C140.58001708984375,82.0780029296875,141.58700561523438,84.21200561523438,142.47998046875,86.28900146484375L142.48199462890625,86.28900146484375zM51.00700378417969,108.93899536132812L48.81700134277344,109.77999877929688C49.78199768066406,110.25,50.832000732421875,110.82000732421875,51.822998046875,111.47599792480469C51.82499694824219,111.48199462890625,51.826995849609375,111.48899841308594,51.82899475097656,111.4949951171875L51.832000732421875,111.49700927734375C51.550994873046875,110.64599609375,51.274993896484375,109.79000854492188,51.00999450683594,108.94100952148438L51.00999450683594,108.94100952148438L51.00700378417969,108.93899536132812zM48.80000305175781,94.06600952148438C48.802001953125,94.052001953125,48.803009033203125,94.0419921875,48.80499267578125,94.02899169921875L48.80499267578125,94.02899169921875C49.49400329589844,89.5469970703125,51.24400329589844,83.68499755859375,53.53700256347656,78.32099914550781L53.535003662109375,78.32099914550781C53.53399658203125,78.32400512695312,53.53199768066406,78.32699584960938,53.531005859375,78.33099365234375C49.680999755859375,75.64999389648438,41.22200012207031,70.0570068359375,33.430999755859375,66.94000244140625C32.917999267578125,66.7340087890625,32.66900634765625,66.15299987792969,32.873992919921875,65.63999938964844C33.07899475097656,65.12799072265625,33.660003662109375,64.87899780273438,34.17399597167969,65.0830078125C42.03599548339844,68.22799682617188,50.32499694824219,73.6610107421875,54.3590087890625,76.4639892578125C54.3590087890625,76.46499633789062,54.358001708984375,76.46701049804688,54.35699462890625,76.468994140625L54.3590087890625,76.468994140625C54.86500549316406,75.37300109863281,55.38999938964844,74.3070068359375,55.93499755859375,73.29299926757812L55.93499755859375,73.29299926757812L55.93299865722656,73.29100036621094C47.10200500488281,67.58700561523438,34.60400390625,61.058990478515625,29.054000854492188,62.15399169921875C28.152999877929688,62.332000732421875,27.527008056640625,62.71099853515625,27.141006469726562,63.30999755859375C22.746002197265625,70.13200378417969,32.300994873046875,78.3590087890625,35.33399963378906,80.71800231933594C42.490997314453125,86.28500366210938,46.86399841308594,90.58799743652344,48.803009033203125,94.02799987792969C48.800994873046875,94.04100036621094,48.80000305175781,94.05099487304688,48.798004150390625,94.06500244140625L48.80000305175781,94.06600952148438z"/>
<path id="Cornea" fill="#FF7300" stroke="#FF4E00" stroke-width="1.6846" stroke-miterlimit="10" d="M132.18600463867188,15.665000915527344C137.33099365234375,15.665000915527344,141.5,21.597991943359375,141.5,28.916000366210938C141.5,36.2340087890625,137.3289794921875,42.1669921875,132.18600463867188,42.1669921875C127.03999328613281,42.1669921875,122.87200927734375,36.2340087890625,122.87200927734375,28.916000366210938C122.8699951171875,21.597991943359375,127.03999328613281,15.665000915527344,132.18600463867188,15.665000915527344zM72.05000305175781,15.665000915527344C66.64700317382812,15.665000915527344,62.266998291015625,21.89599609375,62.266998291015625,29.5830078125C62.266998291015625,37.27000427246094,66.64700317382812,43.501007080078125,72.05000305175781,43.501007080078125C77.4530029296875,43.501007080078125,81.83399963378906,37.27000427246094,81.83399963378906,29.5830078125S77.4530029296875,15.665000915527344,72.05000305175781,15.665000915527344z"/>
<path id="Pupils" fill="#420016" d="M133.54800415039062,19.287994384765625C137.24298095703125,19.287994384765625,140.239990234375,23.60699462890625,140.239990234375,28.934005737304688C140.239990234375,34.26100158691406,137.24298095703125,38.58000183105469,133.54800415039062,38.58000183105469C129.8520050048828,38.58000183105469,126.85600280761719,34.26100158691406,126.85600280761719,28.934005737304688C126.85499572753906,23.60699462890625,129.8520050048828,19.287994384765625,133.54800415039062,19.287994384765625zM72.66900634765625,19.470001220703125C68.78700256347656,19.470001220703125,65.63999938964844,24.005996704101562,65.63999938964844,29.602005004882812C65.63999938964844,35.196990966796875,68.78700256347656,39.733001708984375,72.66900634765625,39.733001708984375C76.55099487304688,39.733001708984375,79.69699096679688,35.196990966796875,79.69699096679688,29.602005004882812C79.69699096679688,24.005996704101562,76.55099487304688,19.470001220703125,72.66900634765625,19.470001220703125z"/>
</g>
</g>
</svg>