<svg xmlns="http://www.w3.org/2000/svg" xmlns:xlink="http://www.w3.org/1999/xlink" viewBox= "0 0 623 414" width="623px" height="414px">
<!--Created with Scratch Jr-->
<g xmlns="http://www.w3.org/2000/svg" id="layer1" style="pointer-events:visiblePainted">
<g id="Car2.svg" transform="rotate(0)">
<path fill="#AF3922" d="M24.875999450683594,357.2820129394531L464.9169921875,357.7149963378906L464.16900634765625,253.70700073242188L28.805999755859375,250.41099548339844L24.875999450683594,357.2820129394531z" id="path 1"/>
<path id="TiresBorder_1_" fill="#4F4F4F" d="M152.2729949951172,347.80499267578125C152.2729949951172,378.80999755859375,127.13999938964844,403.95001220703125,96.13600158691406,403.95001220703125C65.12999725341797,403.95001220703125,39.994998931884766,378.80999755859375,39.994998931884766,347.80499267578125C39.994998931884766,316.79998779296875,65.12999725341797,291.6659851074219,96.13600158691406,291.6659851074219C127.14100646972656,291.6659851074219,152.2729949951172,316.79998779296875,152.2729949951172,347.80499267578125zM376.1369934082031,291.6659851074219C345.1319885253906,291.6659851074219,319.99700927734375,316.79998779296875,319.99700927734375,347.80499267578125C319.99700927734375,378.80999755859375,345.1319885253906,403.95001220703125,376.1369934082031,403.95001220703125C407.1419982910156,403.95001220703125,432.2820129394531,378.80999755859375,432.2820129394531,347.80499267578125C432.27398681640625,316.79998779296875,407.1419982910156,291.6659851074219,376.1369934082031,291.6659851074219z"/>
<path id="Tires_1_" fill="#ADADAD" d="M136.5679931640625,347.8070068359375C136.5679931640625,370.1409912109375,118.45700073242188,388.239990234375,96.13600158691406,388.239990234375C73.79399871826172,388.239990234375,55.702003479003906,370.1409912109375,55.702003479003906,347.8070068359375C55.702003479003906,325.47698974609375,73.79399871826172,307.3760070800781,96.13600158691406,307.3760070800781C118.45700073242188,307.3760070800781,136.5679931640625,325.47698974609375,136.5679931640625,347.8070068359375zM376.1369934082031,307.3760070800781C353.7959899902344,307.3760070800781,335.7040100097656,325.47698974609375,335.7040100097656,347.8070068359375C335.7040100097656,370.1409912109375,353.7959899902344,388.239990234375,376.1369934082031,388.239990234375C398.4570007324219,388.239990234375,416.57501220703125,370.1409912109375,416.57501220703125,347.8070068359375C416.5690002441406,325.47698974609375,398.4570007324219,307.3760070800781,376.1369934082031,307.3760070800781z"/>
<path id="Rims_1_" fill="#DDDDDD" d="M131.01800537109375,354.5409851074219C133.58599853515625,352.87298583984375,133.41299438476562,342.5870056152344,131.01800537109375,341.0679931640625C130.11199951171875,341.1719970703125,116.03700256347656,342.6520080566406,106.04499816894531,343.7019958496094L105.93000030517578,343.7950134277344C113.79000091552734,337.4339904785156,124.98899841308594,328.3699951171875,125.56300354003906,327.9020080566406C126.20100402832031,324.9079895019531,118.80499267578125,317.7560119628906,116.03900146484375,318.3800048828125C115.4739990234375,319.09100341796875,106.61000061035156,330.0360107421875,100.29399871826172,337.83599853515625L100.24299621582031,337.89898681640625C101.302001953125,327.84100341796875,102.7959976196289,313.6600036621094,102.8740005493164,312.9200134277344C101.20800018310547,310.35101318359375,90.91899871826172,310.52398681640625,89.4010009765625,312.9200134277344C89.50499725341797,313.8280029296875,90.98500061035156,327.9079895019531,92.03500366210938,337.8949890136719L91.9209976196289,337.7489929199219C85.56900024414062,329.90301513671875,76.69599914550781,318.9419860839844,76.23500061035156,318.3739929199219C73.24199676513672,317.7349853515625,66.09100341796875,325.13299560546875,66.71199798583984,327.8970031738281C67.4260025024414,328.4590148925781,78.42900085449219,337.3760070800781,86.23300170898438,343.6940002441406L86.23100280761719,343.6940002441406C76.18199920654297,342.6319885253906,61.990997314453125,341.13800048828125,61.25700378417969,341.06500244140625C58.685997009277344,342.7309875488281,58.861000061035156,353.01300048828125,61.25700378417969,354.5360107421875C62.163002014160156,354.4320068359375,76.24199676513672,352.9519958496094,86.22899627685547,351.9010009765625L85.55699920654297,352.4460144042969C77.75499725341797,358.75799560546875,67.26599884033203,367.25201416015625,66.71099853515625,367.7019958496094C66.06999969482422,370.6960144042969,73.46900177001953,377.84600830078125,76.23400115966797,377.2229919433594C76.8010025024414,376.5090026855469,85.71299743652344,365.5050048828125,92.03199768066406,357.7019958496094L92.03099822998047,357.7040100097656C90.97200012207031,367.7569885253906,89.47599792480469,381.94500732421875,89.39800262451172,382.6780090332031C91.06600189208984,385.25,101.35099792480469,385.0740051269531,102.87200164794922,382.6780090332031C102.76899719238281,381.7770080566406,101.28900146484375,367.697998046875,100.23999786376953,357.70599365234375L100.24099731445312,357.7049865722656C100.24099731445312,357.7049865722656,100.24099731445312,357.7049865722656,100.24099731445312,357.70599365234375C106.5989990234375,365.5610046386719,115.57499694824219,376.6499938964844,116.04000091552734,377.2229919433594C119.03199768066406,377.8689880371094,126.18400573730469,370.46600341796875,125.56199645996094,367.7019958496094C124.8489990234375,367.1340026855469,113.84500122070312,358.2229919433594,106.04100036621094,351.9049987792969L131.01800537109375,354.5409851074219zM103.60399627685547,347.80499267578125C103.60399627685547,351.92999267578125,100.25900268554688,355.2770080566406,96.13700103759766,355.2770080566406C92.01200103759766,355.2770080566406,88.66999816894531,351.92999267578125,88.66999816894531,347.80499267578125C88.66999816894531,343.67999267578125,92.01200103759766,340.3370056152344,96.13700103759766,340.3370056152344C100.25900268554688,340.3370056152344,103.60399627685547,343.67999267578125,103.60399627685547,347.80499267578125zM411.0169982910156,341.0679931640625C410.1180114746094,341.1719970703125,396.0379943847656,342.6520080566406,386.04400634765625,343.7019958496094C386.04400634765625,343.7019958496094,404.99798583984375,328.3609924316406,405.56500244140625,327.9020080566406C406.2019958496094,324.9079895019531,398.79998779296875,317.7560119628906,396.0400085449219,318.3800048828125C395.4729919433594,319.093994140625,386.56201171875,330.093994140625,380.2439880371094,337.8999938964844C380.2439880371094,337.9020080566406,380.2439880371094,337.90399169921875,380.2439880371094,337.90399169921875L380.2049865722656,337.9519958496094C380.2179870605469,337.9309997558594,380.2300109863281,337.9200134277344,380.2439880371094,337.8999938964844C381.3030090332031,327.8429870605469,382.7969970703125,313.66400146484375,382.875,312.92401123046875C381.2090148925781,310.35400390625,370.9200134277344,310.52801513671875,369.4020080566406,312.92401123046875C369.5060119628906,313.8320007324219,370.9859924316406,327.9119873046875,372.0360107421875,337.9020080566406C372.0360107421875,337.9020080566406,356.6820068359375,318.92999267578125,356.2359924316406,318.3810119628906C353.2430114746094,317.7409973144531,346.0899963378906,325.1400146484375,346.7130126953125,327.9049987792969C347.427001953125,328.4670104980469,358.42999267578125,337.38299560546875,366.2340087890625,343.7019958496094L366.23199462890625,343.7019958496094C356.1759948730469,342.6400146484375,341.99200439453125,341.1440124511719,341.25299072265625,341.0710144042969C338.6839904785156,342.73699951171875,338.85699462890625,353.02398681640625,341.25299072265625,354.5429992675781C342.15899658203125,354.4389953613281,356.2380065917969,352.9590148925781,366.22900390625,351.90899658203125L346.7080078125,367.7090148925781C346.06500244140625,370.7030029296875,353.46600341796875,377.8529968261719,356.22900390625,377.2300109863281C356.7919921875,376.5159912109375,365.7080078125,365.5119934082031,372.02899169921875,357.7090148925781L372.02801513671875,357.71099853515625C370.9649963378906,367.7640075683594,369.4670104980469,381.9519958496094,369.39300537109375,382.68499755859375C371.0610046386719,385.2569885253906,381.3420104980469,385.08099365234375,382.8689880371094,382.68499755859375C382.7650146484375,381.78399658203125,381.2860107421875,367.7049865722656,380.23699951171875,357.7130126953125L380.2380065917969,357.7120056152344C380.2380065917969,357.7120056152344,380.2380065917969,357.7120056152344,380.2380065917969,357.7130126953125C386.5920104980469,365.5690002441406,395.5719909667969,376.6570129394531,396.0369873046875,377.2300109863281C399.02899169921875,377.8760070800781,406.17999267578125,370.4729919433594,405.5580139160156,367.7090148925781C404.8399963378906,367.1409912109375,393.8370056152344,358.2300109863281,386.0369873046875,351.9119873046875C386.0369873046875,351.9119873046875,410.2950134277344,354.468994140625,411.0119934082031,354.54400634765625C413.58599853515625,352.87298583984375,413.4119873046875,342.5870056152344,411.0169982910156,341.0679931640625zM376.1369934082031,355.27099609375C372.0119934082031,355.27099609375,368.6700134277344,351.9219970703125,368.6700134277344,347.7980041503906C368.6700134277344,343.6730041503906,372.0119934082031,340.3299865722656,376.1369934082031,340.3299865722656C380.2590026855469,340.3299865722656,383.60400390625,343.6730041503906,383.60400390625,347.7980041503906S380.2590026855469,355.27099609375,376.1369934082031,355.27099609375z"/>
<path id="Car_1_" fill="#FF603B" d="M310.89801025390625,366.1910095214844L309.70098876953125,366.1289978027344C309.4840087890625,366.1180114746094,286.9849853515625,365.0710144042969,199.2209930419922,365.0710144042969L163.572998046875,365.0710144042969L163.65499877929688,363.9939880371094C163.6840057373047,363.62701416015625,166.2469940185547,326.9620056152344,145.8939971923828,303.27099609375L142.98500061035156,300.1289978027344C131.66700744628906,288.81201171875,115.98200225830078,283.05999755859375,96.39299774169922,283.05999755859375C57.27899932861328,283.05999755859375,40.70199966430664,306.8139953613281,33.683998107910156,326.74200439453125C30.105998992919922,336.8890075683594,29.919998168945312,345.52899169921875,29.797000885009766,351.2430114746094C29.703998565673828,355.5830078125,29.648998260498047,358.20098876953125,28.1510009765625,359.2250061035156C26.384998321533203,360.4429931640625,24.902999877929688,360.6090087890625,23.562999725341797,360.6090087890625C22.99700164794922,360.6090087890625,22.39099884033203,360.57501220703125,21.72100067138672,360.5360107421875C20.93000030517578,360.489990234375,20.033000946044922,360.4339904785156,19,360.4339904785156C16.93899917602539,360.4339904785156,15.080999374389648,359.2950134277344,13.47599983215332,357.0509948730469C3.9549999237060547,343.7439880371094,4.130999565124512,290.9219970703125,17.906999588012695,250.52999877929688L18.184999465942383,249.71400451660156L20.222999572753906,250.09300231933594C20.61199951171875,250.16099548339844,24.125,250.77699279785156,28.45199966430664,250.77699279785156C33.76300048828125,250.77699279785156,38.055999755859375,249.88299560546875,41.215999603271484,248.13099670410156C47.367000579833984,244.71200561523438,47.125999450683594,226.5850067138672,44.8489990234375,210.76199340820312L44.26900100708008,206.73300170898438L44.62200164794922,206.37899780273438C70.11000061035156,180.76400756835938,127.05900573730469,139.41299438476562,137.84300231933594,134.1280059814453C151.13099670410156,125.48199462890625,174.0260009765625,118.75900268554688,194.8419952392578,117.39399719238281L194.843994140625,117.42400360107422C195.16400146484375,117.38999938964844,195.58399963378906,117.38999938964844,196.13099670410156,117.38999938964844C207.76199340820312,117.38999938964844,299.5060119628906,117.53600311279297,300.4320068359375,117.53700256347656C394.8330078125,118.01200103759766,449.4739990234375,119.84600067138672,483.1440124511719,123.66600036621094L488.5790100097656,124.39399719238281C515.8770141601562,129.09100341796875,556.2139892578125,149.8419952392578,580.4459838867188,171.64100646972656C582.427978515625,173.3489990234375,584.385986328125,175.18800354003906,586.2490234375,177.0919952392578L587.5670166015625,178.44500732421875L585.7080078125,178.77499389648438C585.5460205078125,178.8040008544922,585.3140258789062,178.88400268554688,585.1409912109375,179.1020050048828C584.1400146484375,180.33799743652344,587.4530029296875,190.2969970703125,594.97900390625,208.7050018310547L595.625,210.27699279785156L601.2100219726562,197.98599243164062L602.1290283203125,199.95199584960938C616.198974609375,230.07899475097656,609.1640014648438,264.5069885253906,599.9810180664062,278.2860107421875C588.9500122070312,294.8340148925781,578.6530151367188,306.51800537109375,567.2969970703125,319.0140075683594C555.1430053710938,332.385009765625,515.3770141601562,357.57598876953125,479.4010009765625,360.1650085449219C458.7909851074219,361.6520080566406,450.093994140625,361.96600341796875,446.4330139160156,361.96600341796875C443.63800048828125,361.96600341796875,443.177001953125,361.86199951171875,442.9119873046875,361.1820068359375L442.8269958496094,360.9639892578125L442.84600830078125,360.7349853515625C442.87298583984375,360.3949890136719,445.3399963378906,326.34698486328125,424.95001220703125,304.260009765625C413.29901123046875,291.6390075683594,396.4519958496094,285.239013671875,374.8789978027344,285.239013671875C353.7510070800781,285.239013671875,337.46099853515625,291.6029968261719,326.4599914550781,304.1669921875C306.0379943847656,327.4809875488281,310.7019958496094,364.62799072265625,310.75201416015625,365L310.89801025390625,366.1910095214844z"/>
<path id="Back_1_" fill="#8E341C" d="M215.1699981689453,118.41000366210938C215.15699768066406,117.87799835205078,214.93299865722656,117.37300109863281,214.54600524902344,117.00700378417969C214.15899658203125,116.64099884033203,213.6580047607422,116.44499969482422,213.11000061035156,116.45999908447266C213.0780029296875,116.46099853515625,209.85800170898438,116.55699920654297,207.93499755859375,116.55799865722656C177.78399658203125,117.06900024414062,124.24200439453125,151.69900512695312,100.62899780273438,175.31399536132812C92.072998046875,183.86900329589844,88.99600219726562,190.04400634765625,90.94400024414062,194.74899291992188C93.43599700927734,200.76499938964844,103.44300079345703,201.53700256347656,111.88200378417969,201.53700256347656C113.89800262451172,201.53700256347656,115.8550033569336,201.48800659179688,117.50300598144531,201.44000244140625C125.6719970703125,201.20199584960938,134.46499633789062,200.947998046875,142.86399841308594,200.70599365234375L142.86399841308594,200.70599365234375C143.05599975585938,200.7010040283203,143.24899291992188,200.69500732421875,143.4409942626953,200.68899536132812C164.28700256347656,200.08700561523438,182.55299377441406,199.56500244140625,182.5540008544922,199.56500244140625C183.00599670410156,199.552001953125,183.44200134277344,199.38600158691406,183.78700256347656,199.09300231933594L215.74099731445312,172.0850067138672C216.20399475097656,171.69400024414062,216.46499633789062,171.11399841308594,216.44900512695312,170.50799560546875L215.1699981689453,118.41000366210938z"/>
<path id="Chair_1_" fill="#1C4A8C" d="M129.52099609375,198.8459930419922C129.52099609375,168.71600341796875,144.3350067138672,152.72500610351562,165.66700744628906,146.72500610351562C186.99899291992188,140.72500610351562,201.33299255371094,168.05799865722656,201.33299255371094,168.05799865722656C201.33299255371094,168.05799865722656,193.86599731445312,134.68600463867188,222.60000610351562,120.03900146484375C251.33401489257812,105.39199829101562,262.989990234375,125.16500854492188,268.3059997558594,131.6649932861328C274.0840148925781,146.68499755859375,277.9519958496094,173.25999450683594,283.72601318359375,198.8459930419922"/>
<path id="ChairBorder_1_" fill="#0E3360" d="M283.7239990234375,201.31300354003906C282.1390075683594,201.31300354003906,280.7090148925781,201.22000122070312,280.34600830078125,199.60899353027344C278.4079895019531,191.02200317382812,276.6960144042969,182.3820037841797,275.0369873046875,174.02699279785156C271.8909912109375,158.1580047607422,268.9159851074219,143.1540069580078,265.2619934082031,133.40899658203125C264.9079895019531,132.96499633789062,264.5329895019531,132.47300720214844,264.1239929199219,131.9459991455078C258.0929870605469,124.10600280761719,247.99700927734375,110.98100280761719,224.1750030517578,123.12600708007812C198.13800048828125,136.3979949951172,204.6479949951172,166.99200439453125,204.7169952392578,167.3000030517578C205.0970001220703,168.9969940185547,204.16000366210938,170.71299743652344,202.5279998779297,171.31100463867188C200.89999389648438,171.91000366210938,199.072998046875,171.20700073242188,198.26499938964844,169.66600036621094C198.13600158691406,169.4219970703125,184.9510040283203,144.89700317382812,166.60699462890625,150.05999755859375C144.2989959716797,156.3350067138672,132.98800659179688,172.7480010986328,132.98800659179688,198.843994140625C132.98800659179688,200.75900268554688,131.43600463867188,202.30999755859375,129.52200317382812,202.30999755859375C127.60800170898438,202.30999755859375,126.05599975585938,200.75799560546875,126.05599975585938,198.843994140625C126.05599975585938,161.99899291992188,147.08599853515625,148.3489990234375,164.72999572753906,143.38600158691406C179.05799865722656,139.3560028076172,190.31199645996094,148.13600158691406,197.11900329589844,156.0070037841797C197.64599609375,144.05499267578125,201.9929962158203,126.65200805664062,221.02699279785156,116.947998046875C249.97698974609375,102.18800354003906,263.7430114746094,120.0780029296875,269.6199951171875,127.71800231933594C270.1210021972656,128.36900329589844,270.57598876953125,128.96099853515625,270.989990234375,129.46800231933594C271.22100830078125,129.75399780273438,271.4100036621094,130.07400512695312,271.5429992675781,130.41799926757812C275.4989929199219,140.7010040283203,278.5780029296875,156.23300170898438,281.8389892578125,172.677001953125C283.4859924316406,180.99000549316406,285.1929931640625,189.58200073242188,287.1099853515625,198.0800018310547C287.5320129394531,199.94700622558594,286.3599853515625,200.80299377441406,284.4930114746094,201.22500610351562C284.2330017089844,201.28500366210938,283.97698974609375,201.31300354003906,283.7239990234375,201.31300354003906z"/>
<path id="Steeringwheel_1_" fill="#212121" d="M415.0769958496094,135.875C413.7139892578125,133.91299438476562,411.09100341796875,131.57400512695312,406.3380126953125,131.57400512695312C402.0260009765625,131.57400512695312,396.7770080566406,133.5229949951172,390.302001953125,137.53199768066406C375.1549987792969,146.91099548339844,362.0799865722656,171.91099548339844,360.71600341796875,187.25399780273438C363.58099365234375,185.3300018310547,366.70001220703125,183.25100708007812,370.0140075683594,181.06399536132812C373.6600036621094,168.5590057373047,383.5929870605469,151.09300231933594,394.51300048828125,144.33399963378906C400.86700439453125,140.39999389648438,404.45098876953125,139.5749969482422,406.3380126953125,139.5749969482422C407.9049987792969,139.5749969482422,408.31298828125,140.16000366210938,408.50799560546875,140.4409942626953C409.7909851074219,142.28799438476562,409.8810119628906,147.7469940185547,407.0589904785156,155.3800048828125C406.9320068359375,155.66900634765625,406.43798828125,156.7760009765625,405.60400390625,158.42999267578125C409.2040100097656,156.24200439453125,412.8280029296875,154.06900024414062,416.45001220703125,151.94000244140625C417.6929931640625,146.58700561523438,418.12298583984375,140.25999450683594,415.0769958496094,135.875z"/>
<path id="Body_1_" fill="#FFFDFD" d="M403.197998046875,116.88800048828125C400.3269958496094,117.08699798583984,381.0419921875,124.81500244140625,378.8030090332031,125.32000732421875C376.5740051269531,125.82499694824219,346.7239990234375,126.67999267578125,340.0069885253906,125.56100463867188C333.2919921875,124.44200134277344,318.4389953613281,112.3740005493164,294.56298828125,104.16799926757812L296.82598876953125,126.79499816894531C296.82598876953125,126.79499816894531,337.6239929199219,144.5030059814453,343.9670104980469,143.01100158691406C350.31201171875,141.5189971923828,378.3529968261719,137.79400634765625,378.3529968261719,137.79400634765625C379.9230041503906,137.61500549316406,388.36199951171875,138.79400634765625,389.49798583984375,138.01100158691406C390.6300048828125,137.23199462890625,396.2359924316406,132.36199951171875,397.802001953125,131.8780059814453C399.3689880371094,131.39500427246094,401.156005859375,129.88600158691406,403.218994140625,133.1280059814453C404.75201416015625,135.73899841308594,402.5610046386719,138.6230010986328,401.6310119628906,139.11700439453125C400.7019958496094,139.61099243164062,398.2799987792969,139.76400756835938,397.8039855957031,141.447998046875C397.4129943847656,142.83200073242188,401.35101318359375,142.96200561523438,407.1189880371094,141.6529998779297C412.8900146484375,140.3459930419922,416.3909912109375,133.5970001220703,416.9119873046875,132.16000366210938C417.9930114746094,129.53199768066406,413.6889953613281,125.02499389648438,411.4280090332031,122.62000274658203C409.1679992675781,120.21499633789062,406.07000732421875,116.68800354003906,403.197998046875,116.88800048828125zM260.05499267578125,99.39199829101562C265.2239990234375,99.39199829101562,270.8059997558594,97.0260009765625,275.8420104980469,93.14299774169922C276.22100830078125,94.49700164794922,276.6510009765625,95.77400207519531,277.10101318359375,96.84400177001953C278.54901123046875,100.2699966430664,286.614013671875,99.15399932861328,288.9219970703125,98.97200012207031C291.22900390625,98.79199981689453,298.3009948730469,123.12300109863281,282.10101318359375,131.2530059814453C265.89801025390625,139.38400268554688,224.43600463867188,114.69499969482422,229.25999450683594,112.65499877929688C234.09100341796875,110.61499786376953,242.13299560546875,109.40499877929688,242.98199462890625,107.94300079345703C243.8350067138672,106.48300170898438,247.48699951171875,97.9800033569336,244.3159942626953,93.0790023803711C244.3159942626953,93.0790023803711,244.37100219726562,93.05699920654297,244.45199584960938,93.02400207519531C249.4320068359375,96.90899658203125,254.927001953125,99.39199829101562,260.05499267578125,99.39199829101562zM358.5880126953125,183.57000732421875C360.114990234375,184.2989959716797,362.19500732421875,184.67599487304688,364.2720031738281,184.875C368.8580017089844,181.8159942626953,373.9519958496094,178.45700073242188,379.39300537109375,174.927001953125C379.5719909667969,172.4709930419922,378.49700927734375,170.9199981689453,378.49700927734375,170.9199981689453C378.49700927734375,170.9199981689453,379.70599365234375,170.02099609375,379.8179931640625,167.27200317382812C379.93701171875,164.5189971923828,377.50799560546875,163.5540008544922,377.50799560546875,163.5540008544922C377.50799560546875,163.5540008544922,379.1579895019531,163.322998046875,379.2690124511719,160.6959991455078C379.37298583984375,158.06900024414062,377.4460144042969,157.14500427246094,373.82501220703125,156.9530029296875C370.2019958496094,156.76199340820312,367.63800048828125,155.9080047607422,360.4469909667969,157.78799438476562C357.5799865722656,158.53599548339844,356.0679931640625,159.96299743652344,355.27099609375,161.69200134277344L355.2749938964844,161.69400024414062C352.70001220703125,163.44500732421875,348.9630126953125,165.48800659179688,345.3340148925781,165.68099975585938C328.20098876953125,166.58900451660156,302.15899658203125,169.48300170898438,299.17999267578125,168.6699981689453C295.07598876953125,167.55099487304688,245.27301025390625,122.93000030517578,235.74000549316406,121.13600158691406C226.20700073242188,119.34200286865234,228.197998046875,139.99200439453125,232.34500122070312,146.78199768066406C236.49200439453125,153.57000732421875,288.9700012207031,187.24899291992188,296.4549865722656,187.88600158691406C297.6390075683594,187.98699951171875,299.25201416015625,187.9709930419922,301.1929931640625,187.86599731445312C303.4330139160156,186.43699645996094,306.0889892578125,185.5989990234375,308.9429931640625,185.5989990234375L322.0849914550781,185.5989990234375C330.15899658203125,184.54600524902344,338.79998779296875,183.35800170898438,346.260009765625,182.5260009765625C350.3890075683594,182.0659942626953,355.4599914550781,182.9010009765625,358.5870056152344,183.56399536132812L358.5880126953125,183.57000732421875z"/>
<path id="path 2" fill="rgb(255, 255, 255)" d="M288.6719970703125,76.84100341796875L288.64801025390625,76.85800170898438C288.6289978027344,76.88400268554688,288.614990234375,76.89600372314453,288.6050109863281,76.88700103759766L288.64801025390625,76.85800170898438C289.12799072265625,76.1729965209961,292.35699462890625,64.2300033569336,292.90399169921875,61.076995849609375C292.92498779296875,60.83100128173828,292.93499755859375,60.574005126953125,292.9530029296875,60.324005126953125C292.95098876953125,60.322998046875,292.95098876953125,60.316001892089844,292.947998046875,60.316001892089844L292.9490051269531,60.31700134277344C293.0690002441406,58.689998626708984,293.12701416015625,56.987998962402344,293.12701416015625,55.1870002746582C293.12701416015625,54.35499954223633,293.1109924316406,53.542999267578125,293.0870056152344,52.7400016784668C292.1969909667969,25.635000228881836,277.74798583984375,15.072999954223633,260.0559997558594,15.072999954223633C241.78799438476562,15.072999954223633,226.9810028076172,25.04400062561035,226.9810028076172,55.43000030517578C226.9810028076172,55.51599884033203,226.98199462890625,55.5989990234375,226.98199462890625,55.685001373291016C226.98500061035156,56.35300064086914,226.99000549316406,57.018001556396484,227.00599670410156,57.66899871826172C227.0070037841797,57.73099899291992,227.00799560546875,57.79199981689453,227.00999450683594,57.85300064086914C227.03199768066406,58.691001892089844,227.0659942626953,59.51599884033203,227.11500549316406,60.33100128173828C227.11199951171875,60.33100128173828,227.11099243164062,60.33799743652344,227.10800170898438,60.33900451660156C227.1269989013672,60.667999267578125,227.14599609375,60.99700164794922,227.16900634765625,61.321998596191406C227.78399658203125,64.90799713134766,231.02000427246094,77.03900146484375,231.31199645996094,76.7750015258789L231.31100463867188,76.77200317382812C231.36099243164062,76.87300109863281,231.41200256347656,76.9739990234375,231.46400451660156,77.07499694824219C234.5679931640625,83.11499786376953,239.32200622558594,88.83899688720703,244.6510009765625,92.94300079345703C244.6510009765625,92.94300079345703,244.6510009765625,92.94300079345703,244.65199279785156,92.94300079345703L244.65199279785156,92.94400024414062C244.65199279785156,92.94400024414062,244.65199279785156,92.94400024414062,244.6529998779297,92.94499969482422L244.65199279785156,92.94499969482422L244.65199279785156,92.94400024414062C244.65199279785156,92.94400024414062,244.65199279785156,92.94400024414062,244.6510009765625,92.94400024414062C244.56399536132812,92.97899627685547,244.50599670410156,93.00299835205078,244.45199584960938,93.02400207519531C249.43099975585938,96.90899658203125,254.927001953125,99.39099884033203,260.05499267578125,99.39099884033203C265.2239990234375,99.39099884033203,270.8059997558594,97.0250015258789,275.8420104980469,93.14199829101562C275.822998046875,93.07499694824219,275.8030090332031,93.01100158691406,275.78399658203125,92.94300079345703C281.0320129394531,88.91100311279297,285.6910095214844,83.22599792480469,288.6719970703125,76.84100341796875z"/>
<path id="Shirt_1_" fill="#5AECFF" d="M296.4530029296875,187.88800048828125C288.9679870605469,187.24899291992188,236.49000549316406,153.57000732421875,232.34300231933594,146.78199768066406C228.19700622558594,139.99400329589844,226.20399475097656,119.34400177001953,235.73800659179688,121.13800048828125C245.27200317382812,122.93199920654297,295.07501220703125,167.55299377441406,299.1780090332031,168.6719970703125C299.89801025390625,168.8679962158203,301.96099853515625,168.8470001220703,304.9079895019531,168.6929931640625C307.1210021972656,155.40199279785156,308.4849853515625,143.48399353027344,300.45001220703125,131.8209991455078C296.1499938964844,120.62999725341797,298.71600341796875,101.52899932861328,298.71600341796875,101.52899932861328C294.94500732421875,98.88899993896484,288.156005859375,97.00399780273438,284.75201416015625,97.50499725341797C281.69000244140625,98.09600067138672,282.87701416015625,122.64800262451172,282.87701416015625,122.64800262451172L260.62701416015625,128.6820068359375L239.13099670410156,107.56300354003906C222.53799438476562,112.84300231933594,220.3179931640625,123.3699951171875,221.0260009765625,136.0399932861328C221.72999572753906,148.7100067138672,223.6540069580078,167.5760040283203,225.43099975585938,179.30499267578125C226.22500610351562,184.552001953125,227.16000366210938,191.4040069580078,227.9290008544922,197.9530029296875C237.19900512695312,197.9409942626953,246.39498901367188,197.9340057373047,255.3280029296875,197.9340057373047L265.3280029296875,197.9340057373047C274.4159851074219,197.9340057373047,282.3909912109375,197.9409942626953,289.4580078125,197.9550018310547C289.4580078125,197.9550018310547,294.6319885253906,198.072998046875,294.6549987792969,197.91299438476562C295.3190002441406,193.42100524902344,298.0580139160156,189.6179962158203,301.8630065917969,187.4720001220703C301.6340026855469,187.60000610351562,301.4110107421875,187.72900390625,301.1919860839844,187.8679962158203C299.25,187.97300720214844,297.6369934082031,187.98899841308594,296.4530029296875,187.88800048828125z"/>
<path id="ShirtBorder_1_" fill="#37C6D1" d="M301.8999938964844,131.06199645996094C297.8919982910156,120.36599731445312,300.29901123046875,101.93000030517578,300.32598876953125,101.74500274658203C300.4070129394531,101.14299774169922,300.14300537109375,100.5459976196289,299.6470031738281,100.197998046875C296.1239929199219,97.73100280761719,290.1189880371094,95.79900360107422,285.9750061035156,95.79900360107422C285.45001220703125,95.79900360107422,284.9549865722656,95.83200073242188,284.4429931640625,95.90899658203125C283.2489929199219,96.13999938964844,280.1080017089844,96.74500274658203,281.1929931640625,121.4209976196289L261.1000061035156,126.8699951171875L240.2689971923828,106.40399932861328C239.83900451660156,105.98200225830078,239.21299743652344,105.83200073242188,238.63699340820312,106.01499938964844C220.5760040283203,111.76200103759766,218.718994140625,123.88600158691406,219.4029998779297,136.13099670410156C220.10299682617188,148.74200439453125,222.04600524902344,167.81399536132812,223.82400512695312,179.5489959716797C224.531005859375,184.218994140625,225.4810028076172,191.07400512695312,226.29299926757812,197.95599365234375C227.38499450683594,197.9550018310547,228.4759979248047,197.9530029296875,229.56500244140625,197.95199584960938C228.73899841308594,190.9040069580078,227.76100158691406,183.843994140625,227.03700256347656,179.06199645996094C225.27200317382812,167.41200256347656,223.343994140625,148.47500610351562,222.64700317382812,135.9499969482422C221.93699645996094,123.21701049804688,224.4029998779297,114.2979965209961,238.697998046875,109.41699981689453L259.489990234375,129.84100341796875C259.9010009765625,130.2449951171875,260.49700927734375,130.40199279785156,261.0530090332031,130.25L283.3030090332031,124.21600341796875C284.03900146484375,124.0159912109375,284.5369873046875,123.33099365234375,284.5,122.56900024414062C284.0270080566406,112.77999877929688,284.2460021972656,101.31400299072266,285.39599609375,99.06900024414062C285.5790100097656,99.05599975585938,285.7720031738281,99.04900360107422,285.97698974609375,99.04900360107422C289.1319885253906,99.04900360107422,293.9259948730469,100.51000213623047,296.9800109863281,102.34100341796875C296.5039978027344,106.54000091552734,295.0639953613281,122.33499908447266,298.9330139160156,132.4040069580078C298.97900390625,132.5240020751953,299.0379943847656,132.63699340820312,299.114013671875,132.7429962158203C306.5929870605469,143.5970001220703,305.5459899902344,154.75799560546875,303.4739990234375,167.40699768066406C304.4530029296875,167.36599731445312,305.5679931640625,167.30599975585938,306.7929992675781,167.22799682617188C308.8179931640625,154.63499450683594,309.7959899902344,142.64599609375,301.8999938964844,131.06199645996094z"/>
<path id="BodyBorder_1_" fill="#212121" d="M294.3940124511719,62.21400451660156L294.65899658203125,58.9109992980957L294.66900634765625,58.9119987487793C294.72900390625,57.71500015258789,294.7560119628906,56.47700119018555,294.7560119628906,55.1879997253418C294.7560119628906,28.507999420166016,282.1099853515625,13.206001281738281,260.0559997558594,13.206001281738281C244.2259979248047,13.206001281738281,225.3560028076172,20.489999771118164,225.3560028076172,55.1879997253418C225.3560028076172,56.433998107910156,225.375,57.652000427246094,225.4199981689453,58.8489990234375L225.63400268554688,62.13099670410156L225.6179962158203,62.13200378417969C226.03399658203125,66.84200286865234,227.01400756835938,71.302001953125,229.10499572753906,75.9280014038086L229.10899353027344,75.90299987792969L230.6510009765625,79.01000213623047C233.77099609375,84.80400085449219,237.9980010986328,90.66699981689453,243.41900634765625,94.84500122070312L243.41900634765625,94.84400177001953C245.04901123046875,98.80899810791016,242.6540069580078,105.19300079345703,241.6479949951172,107.01200103759766C241.54100036621094,107.08999633789062,241.36199951171875,107.177001953125,241.156005859375,107.26599884033203L243.56100463867188,109.62999725341797C243.927001953125,109.36900329589844,244.2030029296875,109.08699798583984,244.39199829101562,108.76100158691406C245.2130126953125,107.3550033569336,247.42401123046875,102.20600128173828,247.19000244140625,97.3489990234375C250.98001098632812,99.47899627685547,255.260986328125,100.77100372314453,260.0559997558594,100.77100372314453C264.86700439453125,100.77300262451172,270.0610046386719,98.8489990234375,274.89599609375,95.56700134277344C275.125,96.23899841308594,275.3609924316406,96.88899993896484,275.6090087890625,97.47699737548828C276.41900634765625,99.39099884033203,278.42999267578125,100.47799682617188,281.6960144042969,100.8010025024414C281.95599365234375,99.34200286865234,282.26300048828125,98.3280029296875,282.5889892578125,97.62000274658203C280.3909912109375,97.47899627685547,278.9280090332031,96.97799682617188,278.60400390625,96.21199798583984C278.2659912109375,95.41100311279297,277.9460144042969,94.49199676513672,277.64898681640625,93.52100372314453L277.65301513671875,93.52300262451172C282.31201171875,89.7490005493164,286.4739990234375,84.73400115966797,289.4079895019531,79.04399871826172L290.8869934082031,75.85600280761719L290.8999938964844,75.85800170898438C292.78900146484375,71.44100189208984,293.9100036621094,67.14600372314453,294.4209899902344,62.21900177001953M291.5010070800781,55.1879997253418C291.5010070800781,63.53700256347656,290.2550048828125,69.61100006103516,287.20001220703125,76.15399932861328C281.5119934082031,88.33699798583984,269.84100341796875,97.52400207519531,260.0509948730469,97.52400207519531C250.78399658203125,97.52400207519531,239.11599731445312,88.41400146484375,232.90899658203125,76.33399963378906C229.33299255371094,69.3740005493164,228.60000610351562,62.84700012207031,228.60000610351562,55.1879997253418C228.60000610351562,29.48699951171875,239.18099975585938,16.45599937438965,260.04998779296875,16.45599937438965C280.3320007324219,16.45599937438965,291.5010070800781,30.21099853515625,291.5010070800781,55.1879997253418zM414.906005859375,133.20700073242188C415.2929992675781,132.5189971923828,415.5409851074219,131.97500610351562,415.635009765625,131.70199584960938C416.38800048828125,129.86900329589844,411.99798583984375,125.20401000976562,410.5559997558594,123.6719970703125L410.0150146484375,123.093994140625C408.0979919433594,121.04199981689453,405.4729919433594,118.23200225830078,403.42999267578125,118.23200225830078L403.2879943847656,118.23699951171875C401.7040100097656,118.34700012207031,393.08599853515625,121.56099700927734,387.3840026855469,123.68800354003906C382.6960144042969,125.43699645996094,379.99700927734375,126.43699645996094,379.1059875488281,126.63900756835938C377.4070129394531,127.02400207519531,363.9599914550781,127.46299743652344,353.87298583984375,127.46299743652344C349.0039978027344,127.46299743652344,342.6059875488281,127.36399841308594,339.7909851074219,126.89498901367188C336.760986328125,126.38999938964844,332.5220031738281,124.00900268554688,326.6600036621094,120.71299743652344C319.87799072265625,116.9020004272461,310.9320068359375,111.88400268554688,299.80499267578125,107.53600311279297C299.8710021972656,106.4749984741211,299.95098876953125,105.5250015258789,300.01800537109375,104.71299743652344C311.68499755859375,109.19499969482422,320.9739990234375,114.41400146484375,327.98699951171875,118.3550033569336C333.3970031738281,121.39700317382812,337.67498779296875,123.79901123046875,340.23699951171875,124.22698974609375C342.3240051269531,124.57499694824219,347.0400085449219,124.75799560546875,353.8760070800781,124.75799560546875C365.3139953613281,124.75799560546875,377.4119873046875,124.25,378.5150146484375,124.00100708007812C379.27899169921875,123.82901000976562,382.7590026855469,122.52899932861328,386.4530029296875,121.15399932861328C395.0539855957031,117.94599914550781,401.2820129394531,115.66600036621094,403.114013671875,115.53900146484375C406.4530029296875,115.29900360107422,409.54400634765625,118.61199951171875,412.0060119628906,121.24800109863281L412.5400085449219,121.81800079345703C416.09600830078125,125.59600830078125,419.4590148925781,129.5469970703125,418.1730041503906,132.6739959716797C417.5400085449219,134.43699645996094,413.7959899902344,141.5290069580078,407.4280090332031,142.9709930419922C404.7040100097656,143.58900451660156,402.302001953125,143.9149932861328,400.47900390625,143.9149932861328C398.5780029296875,143.9149932861328,397.4159851074219,143.552001953125,396.82501220703125,142.77200317382812C396.4570007324219,142.28399658203125,396.34600830078125,141.68299865722656,396.51300048828125,141.0800018310547C397.06298828125,139.13999938964844,399.0469970703125,138.54200744628906,400.23699951171875,138.18499755859375C400.53900146484375,138.09500122070312,400.87799072265625,137.9929962158203,401.00799560546875,137.92100524902344C401.3699951171875,137.70599365234375,403.1449890136719,135.64999389648438,402.06500244140625,133.81100463867188C401.2070007324219,132.45599365234375,400.625,132.45599365234375,400.4280090332031,132.45599365234375C400.04901123046875,132.45599365234375,399.5870056152344,132.64300537109375,399.0979919433594,132.83999633789062C398.7959899902344,132.96299743652344,398.5,133.0800018310547,398.2120056152344,133.16900634765625C397.3580017089844,133.43499755859375,393.822998046875,136.2969970703125,392.31500244140625,137.5189971923828C391.35101318359375,138.3000030517578,390.65899658203125,138.86399841308594,390.27899169921875,139.1230010986328C389.7510070800781,139.49000549316406,388.96099853515625,139.63299560546875,387.4670104980469,139.63299560546875C385.9410095214844,139.63299560546875,383.9119873046875,139.47300720214844,382.125,139.33200073242188C380.5480041503906,139.20799255371094,379.0320129394531,139.07899475097656,378.52099609375,139.13600158691406C378.2650146484375,139.1699981689453,350.5,142.86599731445312,344.2919921875,144.3260040283203C343.93499755859375,144.41000366210938,343.52398681640625,144.4510040283203,343.04998779296875,144.4510040283203C336.15399169921875,144.4510040283203,312.42498779296875,134.83099365234375,301.6520080566406,130.3090057373047C301.29901123046875,129.26300048828125,301.0050048828125,128.1529998779297,300.7560119628906,127C314.3900146484375,132.79600524902344,336.97601318359375,141.74600219726562,343.0530090332031,141.74600219726562C343.3800048828125,141.74600219726562,343.5740051269531,141.7169952392578,343.6759948730469,141.6929931640625C350.010009765625,140.2030029296875,377.0429992675781,136.60400390625,378.1929931640625,136.4510040283203C378.375,136.42999267578125,378.5719909667969,136.42100524902344,378.8160095214844,136.42100524902344C379.6130065917969,136.42100524902344,380.87799072265625,136.52099609375,382.3370056152344,136.63600158691406C384.072998046875,136.7729949951172,386.0469970703125,136.92799377441406,387.4670104980469,136.92799377441406C388.3489990234375,136.92799377441406,388.7080078125,136.86700439453125,388.82598876953125,136.83900451660156C389.1629943847656,136.593994140625,389.8699951171875,136.02099609375,390.614990234375,135.41700744628906C393.7040100097656,132.91600036621094,396.1659851074219,130.9709930419922,397.41900634765625,130.58399963378906C397.63800048828125,130.51699829101562,397.85699462890625,130.4239959716797,398.0880126953125,130.33200073242188C398.7300109863281,130.072998046875,399.5260009765625,129.75,400.4330139160156,129.75C401.9540100097656,129.75,403.2449951171875,130.61700439453125,404.3760070800781,132.3990020751953C405.1440124511719,133.7030029296875,405.31298828125,135.15699768066406,404.8919982910156,136.64500427246094C404.3999938964844,138.38499450683594,403.17999267578125,139.83200073242188,402.2869873046875,140.3090057373047C401.9179992675781,140.5050048828125,401.4779968261719,140.63600158691406,401.0190124511719,140.7740020751953C400.6289978027344,140.89100646972656,400.1919860839844,141.0229949951172,399.8330078125,141.18899536132812C400.01800537109375,141.2010040283203,400.22900390625,141.20899963378906,400.4800109863281,141.20899963378906C402.01800537109375,141.20899963378906,404.1659851074219,140.92100524902344,406.5419921875,140.39700317382812L406.5419921875,140.39500427246094C407.3840026855469,139.83299255371094,407.9150085449219,139.00599670410156,408.2300109863281,138.32400512695312C409.0559997558594,136.5500030517578,409.0419921875,134.58700561523438,408.7950134277344,134.03199768066406L405.8479919433594,128.677001953125C405.57598876953125,128.17300415039062,405.7550048828125,127.54100036621094,406.2590026855469,127.26400756835938C406.76300048828125,126.98599243164062,407.3949890136719,127.17100524902344,407.6719970703125,127.67500305175781L410.6600036621094,133.11500549316406C411.17999267578125,134.29600524902344,411.1440124511719,136.55499267578125,410.34600830078125,138.63600158691406L410.34600830078125,138.63600158691406C411.08599853515625,138.08099365234375,411.75799560546875,137.44400024414062,412.35699462890625,136.78399658203125L412.35699462890625,136.7830047607422C412.94000244140625,135.56199645996094,413.08599853515625,133.9250030517578,412.79901123046875,133.2729949951172L410.01300048828125,127.85299682617188C409.7510070800781,127.34199523925781,409.95098876953125,126.71499633789062,410.4630126953125,126.4530029296875C410.97601318359375,126.19200134277344,411.60198974609375,126.39199829101562,411.8609924316406,126.90299987792969L414.6730041503906,132.3820037841797C414.781005859375,132.6300048828125,414.85699462890625,132.90899658203125,414.9129943847656,133.20199584960938L414.906005859375,133.20700073242188L414.906005859375,133.20700073242188zM369.19500732421875,177.9219970703125C368.64599609375,178.0919952392578,368.3399963378906,178.6750030517578,368.5069885253906,179.2239990234375C368.64898681640625,179.6699981689453,369.0589904785156,179.9550018310547,369.5,179.9550018310547C369.60400390625,179.9550018310547,369.70599365234375,179.94000244140625,369.81201171875,179.9080047607422C370.71600341796875,179.62600708007812,371.6549987792969,179.4810028076172,372.5150146484375,179.41400146484375C373.5360107421875,178.7429962158203,374.5769958496094,178.06100463867188,375.62799072265625,177.3730010986328C374.3240051269531,177.24400329589844,371.7250061035156,177.13600158691406,369.19500732421875,177.9219970703125zM354.9490051269531,181.53500366210938C353.0249938964844,181.25399780273438,350.89599609375,181.04299926757812,348.8299865722656,181.04299926757812C347.8609924316406,181.04299926757812,346.9460144042969,181.08999633789062,346.10699462890625,181.1840057373047C340.3609924316406,181.8249969482422,333.8659973144531,182.68299865722656,327.5840148925781,183.51400756835938C321.7510070800781,184.28500366210938,316.0799865722656,185.03399658203125,311.1109924316406,185.6009979248047L327.42401123046875,185.6009979248047C328.40301513671875,185.6009979248047,329.3590087890625,185.7010040283203,330.27801513671875,185.88600158691406C335.79901123046875,185.15699768066406,341.39300537109375,184.43099975585938,346.40399169921875,183.8730010986328C347.1409912109375,183.7899932861328,347.9590148925781,183.74899291992188,348.8269958496094,183.74899291992188C352.1549987792969,183.74899291992188,355.74700927734375,184.35499572753906,358.1839904785156,184.86700439453125L358.1820068359375,184.86599731445312C359.4469909667969,185.43800354003906,360.9549865722656,185.80299377441406,362.5320129394531,186.03599548339844C363.6860046386719,185.26199340820312,364.885986328125,184.46400451660156,366.1099853515625,183.6490020751953C362.6449890136719,183.45199584960938,358.5,182.8679962158203,357.6940002441406,181.1009979248047C357.28900146484375,180.21299743652344,356.9230041503906,179.01800537109375,356.6099853515625,177.55299377441406C356.4540100097656,176.82400512695312,355.7380065917969,176.3560028076172,355.0050048828125,176.51400756835938C354.2760009765625,176.6699981689453,353.81201171875,177.38900756835938,353.96600341796875,178.11900329589844C354.25201416015625,179.43800354003906,354.5799865722656,180.58299255371094,354.9490051269531,181.53500366210938L354.9490051269531,181.53500366210938zM376.7590026855469,162.43800354003906C375.60400390625,162.0489959716797,371.968994140625,161.01400756835938,368.385009765625,161.94500732421875C367.8280029296875,162.08900451660156,367.4939880371094,162.65699768066406,367.6390075683594,163.21299743652344C367.7850036621094,163.7689971923828,368.3599853515625,164.10299682617188,368.9100036621094,163.95899963378906C372.4989929199219,163.02999877929688,376.3389892578125,164.49400329589844,376.37799072265625,164.50900268554688C376.4590148925781,164.5399932861328,376.5419921875,164.56100463867188,376.625,164.57200622558594L376.6260070800781,164.56900024414062C376.73199462890625,164.66700744628906,376.8590087890625,164.7480010986328,377,164.8070068359375C377.1579895019531,164.87399291992188,378.54400634765625,165.51600646972656,378.4700012207031,167.21800231933594C378.3909912109375,169.17100524902344,377.68798828125,169.83700561523438,377.6969909667969,169.83700561523438L377.7040100097656,169.81900024414062C376.3320007324219,169.4770050048828,371.0159912109375,168.31900024414062,366.97198486328125,169.83799743652344C366.43499755859375,170.0399932861328,366.1619873046875,170.63999938964844,366.3680114746094,171.17799377441406C366.5669860839844,171.71600341796875,367.16900634765625,171.98599243164062,367.7080078125,171.78500366210938C371.64599609375,170.3040008544922,377.4100036621094,171.88999938964844,377.468994140625,171.90699768066406L377.53900146484375,171.94000244140625C377.7820129394531,172.41700744628906,378.25,173.58599853515625,378.0320129394531,175.20899963378906C377.9949951171875,175.49200439453125,377.9280090332031,175.72300720214844,377.8559875488281,175.93299865722656C378.8190002441406,175.3070068359375,379.79400634765625,174.67599487304688,380.77801513671875,174.03900146484375C380.7250061035156,172.7790069580078,380.41400146484375,171.76600646972656,380.1210021972656,171.08999633789062C380.5929870605469,170.36300659179688,381.10198974609375,169.16400146484375,381.1830139160156,167.33200073242188C381.2550048828125,165.63499450683594,380.5989990234375,164.3800048828125,379.7929992675781,163.5290069580078C380.2439880371094,162.88800048828125,380.5820007324219,161.98800659179688,380.63299560546875,160.7519989013672C380.82598876953125,155.97000122070312,375.79998779296875,155.70399475097656,373.906005859375,155.60400390625C373.2179870605469,155.5679931640625,372.5790100097656,155.5070037841797,371.927001953125,155.44700622558594C369.0849914550781,155.18099975585938,366.1449890136719,154.90499877929688,360.114990234375,156.4810028076172C356.9259948730469,157.31399536132812,355.177001953125,158.9530029296875,354.22100830078125,160.7760009765625C351.8070068359375,162.38299560546875,348.4530029296875,164.16400146484375,345.2699890136719,164.33299255371094C338.2250061035156,164.70700073242188,329.5379943847656,165.42599487304688,321.8699951171875,166.06199645996094C313.1759948730469,166.78199768066406,304.9630126953125,167.46299743652344,301.2239990234375,167.46299743652344C299.95599365234375,167.46299743652344,299.6029968261719,167.38400268554688,299.55999755859375,167.3730010986328C298.0799865722656,166.86399841308594,289.07000732421875,159.4600067138672,280.3559875488281,152.2989959716797C259.5119934082031,135.16799926757812,241.78700256347656,120.89900207519531,236,119.80999755859375C233.12399291992188,119.26899719238281,230.75999450683594,120.4020004272461,229.3040008544922,122.9990005493164C225.8520050048828,129.1529998779297,227.98300170898438,142.22000122070312,231.2010040283203,147.48800659179688C235.56100463867188,154.62399291992188,288.53399658203125,188.56900024414062,296.3500061035156,189.23699951171875C296.9179992675781,189.28500366210938,297.59100341796875,189.30999755859375,298.35101318359375,189.30999755859375C298.6579895019531,189.30999755859375,298.98699951171875,189.3040008544922,299.32000732421875,189.29600524902344C300.8420104980469,187.9290008544922,302.6600036621094,186.88800048828125,304.66400146484375,186.26400756835938C302.18499755859375,186.47799682617188,300.0379943847656,186.60499572753906,298.35101318359375,186.60499572753906C297.6669921875,186.60499572753906,297.072998046875,186.58399963378906,296.5799865722656,186.54200744628906C289.39300537109375,185.9290008544922,237.52200317382812,152.64999389648438,233.50900268554688,146.07899475097656C230.7530059814453,141.56900024414062,228.83700561523438,129.35899353027344,231.66200256347656,124.322998046875C232.4040069580078,122.9990005493164,233.3459930419922,122.38300323486328,234.625,122.38300323486328C234.8990020751953,122.38300323486328,235.1929931640625,122.41200256347656,235.49899291992188,122.46900177001953C241.07699584960938,123.51800537109375,263.6820068359375,142.0959930419922,278.6400146484375,154.38900756835938C291.9639892578125,165.33999633789062,297.1579895019531,169.52000427246094,298.8330078125,169.97799682617188C299.31298828125,170.10899353027344,300.0530090332031,170.16799926757812,301.2250061035156,170.16799926757812C305.07598876953125,170.16799926757812,312.96099853515625,169.51499938964844,322.0929870605469,168.75799560546875C329.739990234375,168.12399291992188,338.4110107421875,167.406005859375,345.4150085449219,167.03500366210938C348.1210021972656,166.89100646972656,350.8380126953125,165.83099365234375,353.1510009765625,164.58299255371094C353.05499267578125,165.47000122070312,353.0469970703125,166.29800415039062,353.0400085449219,166.99000549316406C353.02801513671875,167.73699951171875,353.62799072265625,168.35000610351562,354.375,168.36000061035156C354.3810119628906,168.36000061035156,354.38800048828125,168.36000061035156,354.3940124511719,168.36000061035156C355.1319885253906,168.36000061035156,355.739013671875,167.76600646972656,355.74798583984375,167.02499389648438C355.7950134277344,163.3979949951172,356.2080078125,160.29800415039062,360.802001953125,159.10000610351562C366.3680114746094,157.64500427246094,368.947998046875,157.88699340820312,371.68499755859375,158.14199829101562C372.3689880371094,158.20599365234375,373.0450134277344,158.2689971923828,373.7690124511719,158.30799865722656C378.02099609375,158.5330047607422,377.9679870605469,159.75399780273438,377.9330139160156,160.64500427246094C377.88800048828125,161.75900268554688,377.4939880371094,162.16700744628906,377.3380126953125,162.218994140625C377.11700439453125,162.2469940185547,376.92498779296875,162.32400512695312,376.7590026855469,162.43800354003906L376.7590026855469,162.43800354003906z"/>
<path id="Hair_1_" fill="#FF6E0B" d="M223.6909942626953,47.89899826049805C222.8769989013672,54.46699905395508,223,59.33300018310547,223,59.33300018310547C223,59.33300018310547,223,59.33300018310547,241.33399963378906,51.66600036621094C258.1499938964844,44.632999420166016,271.5929870605469,35.35499954223633,274.73199462890625,22.29199981689453L274.7200012207031,22.288999557495117C278.3840026855469,35.71500015258789,294.6629943847656,58.66600036621094,294.6629943847656,58.66600036621094C294.6629943847656,58.66600036621094,298.3299865722656,52.66600036621094,293.99700927734375,36.999000549316406C289.84100341796875,21.972999572753906,275.260009765625,13.522998809814453,274.0740051269531,17.430999755859375L274.0849914550781,17.434999465942383C271.07598876953125,14.878999710083008,262.3210144042969,9.583999633789062,244.66299438476562,13.999000549316406C233.88099670410156,16.694000244140625,228.45399475097656,27.08300018310547,225.7270050048828,37.23500061035156C215.73899841308594,32.724998474121094,199.00399780273438,30.15599822998047,188.66299438476562,34.999000549316406C162.32899475097656,47.33000183105469,179.66299438476562,84.9990005493164,161.3300018310547,87.9990005493164C206,98.33300018310547,194.0970001220703,56.00899887084961,217,49.33300018310547C219.68899536132812,48.54999923706055,221.8820037841797,48.125999450683594,223.6909942626953,47.89899826049805z"/>
<path id="HairBorder_1_" fill="#DD4F00" d="M240.70700073242188,50.16699981689453L224.64599609375,56.882999420166016C224.88099670410156,48.38199996948242,227.02699279785156,20.083999633789062,245.05999755859375,15.576000213623047C249.43798828125,14.480998992919922,253.56500244140625,13.927000045776367,257.3280029296875,13.927000045776367C267.4830017089844,13.927000045776367,272.2909851074219,17.865999221801758,273.6409912109375,19.2189998626709C272.1990051269531,31.376998901367188,261.4150085449219,41.50699996948242,240.70700073242188,50.16699981689453zM294.1180114746094,55.00400161743164C289.1650085449219,47.68600082397461,276.07501220703125,27.512001037597656,275.6390075683594,18.106000900268555C275.6400146484375,18.106000900268555,275.6409912109375,18.106000900268555,275.6419982910156,18.106000900268555C279.03900146484375,18.106000900268555,289.1629943847656,25.60700035095215,292.4330139160156,37.43299865722656C294.89898681640625,46.347999572753906,294.6730041503906,51.96900177001953,294.1180114746094,55.00400161743164zM223.76400756835938,38.17499923706055C223.0570068359375,41.04899978637695,222.55599975585938,43.87200164794922,222.20199584960938,46.4739990234375L222.20599365234375,46.47600173950195C220.572998046875,46.737998962402344,218.72000122070312,47.138999938964844,216.5449981689453,47.77299880981445C206.947998046875,50.56999969482422,203.03399658203125,59.10699462890625,199.24899291992188,67.36199951171875C194.38600158691406,77.97000122070312,189.79200744628906,87.99099731445312,173.9290008544922,87.99099731445312C171.75100708007812,87.99099731445312,169.38400268554688,87.7969970703125,166.85299682617188,87.41200256347656C171.69000244140625,83.6449966430664,172.48800659179688,75.96199798583984,173.322998046875,67.93299865722656C174.5500030517578,56.13100051879883,175.93899536132812,42.75400161743164,189.3560028076172,36.47200012207031C192.78799438476562,34.8650016784668,197.3350067138672,34.01499938964844,202.50399780273438,34.01499938964844C210.1649932861328,34.01499938964844,218.02699279785156,35.816001892089844,223.7760009765625,38.178001403808594L223.76400756835938,38.17499923706055zM224.63800048828125,34.9900016784668C218.2790069580078,32.441001892089844,210.06300354003906,30.764999389648438,202.50399780273438,30.764999389648438C196.77999877929688,30.764999389648438,191.89300537109375,31.69499969482422,187.9770050048828,33.52799987792969C172.89599609375,40.59000015258789,171.33999633789062,55.564998626708984,170.08999633789062,67.59700012207031C168.95399475097656,78.52300262451172,167.91099548339844,85.2770004272461,161.07000732421875,86.39600372314453C160.3040008544922,86.52100372314453,159.73399353027344,87.1709976196289,159.70899963378906,87.9469985961914C159.6840057373047,88.72200012207031,160.21099853515625,89.40799713134766,160.9669952392578,89.58300018310547C165.7239990234375,90.68399810791016,170.0850067138672,91.24199676513672,173.9290008544922,91.24199676513672C191.8769989013672,91.24199676513672,197.36399841308594,79.2750015258789,202.20399475097656,68.71700286865234C205.84500122070312,60.7760009765625,209.2830047607422,53.2760009765625,217.4550018310547,50.89400100708008C219.09100341796875,50.41699981689453,220.52000427246094,50.08700180053711,221.81100463867188,49.84600067138672L221.80599975585938,49.84600067138672C221.2899932861328,55.090999603271484,221.36300659179688,58.880001068115234,221.375,59.374000549316406C221.38800048828125,59.910003662109375,221.6649932861328,60.404998779296875,222.11500549316406,60.696998596191406C222.38299560546875,60.8699951171875,222.69000244140625,60.95800018310547,222.99899291992188,60.95800018310547C223.21099853515625,60.95800018310547,223.4250030517578,60.91600036621094,223.62600708007812,60.832000732421875L241.9600067138672,53.165000915527344C259.4909973144531,45.83300018310547,270.30999755859375,37.32699966430664,274.739990234375,27.334999084472656C274.739013671875,27.333999633789062,274.739013671875,27.33300018310547,274.7380065917969,27.33100128173828L274.7430114746094,27.329002380371094C274.74200439453125,27.33100128173828,274.7409973144531,27.33300018310547,274.739990234375,27.334999084472656C280.08599853515625,40.83300018310547,292.6719970703125,58.66400146484375,293.3399963378906,59.60600280761719C293.6449890136719,60.03700256347656,294.1400146484375,60.29100036621094,294.6650085449219,60.29100036621094C294.6839904785156,60.29100036621094,294.7019958496094,60.29100036621094,294.72100830078125,60.290000915527344C295.2669982910156,60.27099609375,295.7669982910156,59.97900390625,296.052001953125,59.51300048828125C296.2170104980469,59.24299621582031,300.0350036621094,52.72600173950195,295.5679931640625,36.566001892089844C291.9010009765625,23.309999465942383,280.4219970703125,14.854999542236328,275.6419982910156,14.854999542236328C274.9939880371094,14.854999542236328,274.4129943847656,14.994998931884766,273.927001953125,15.253000259399414L273.93499755859375,15.264999389648438C271.0849914550781,13.239999771118164,265.80999755859375,10.675999641418457,257.3299865722656,10.675999641418457C253.302001953125,10.675999641418457,248.90899658203125,11.26300048828125,244.2729949951172,12.422000885009766C233.3560028076172,15.150999069213867,227.6300048828125,25.00200080871582,224.63299560546875,34.986000061035156"/>
<path id="Headlight1_1_" fill="#FFD0B0" d="M436.3139953613281,267.65899658203125C466.67498779296875,267.65899658203125,498.6319885253906,249.00900268554688,509.0770263671875,252.4739990234375C519.5150146484375,255.94100952148438,532.0089721679688,266.8789978027344,534.552001953125,269.98199462890625C523.1129760742188,283.52899169921875,491.489990234375,295.656005859375,465.2449951171875,295.1440124511719C439.00201416015625,294.6319885253906,436.3139953613281,267.65899658203125,436.3139953613281,267.65899658203125zM585.7039794921875,179.56199645996094C584.4710083007812,181.08999633789062,595.6510009765625,208.427001953125,595.6510009765625,208.427001953125L599.5050048828125,199.93899536132812C599.510009765625,199.93800354003906,586.93798828125,178.03399658203125,585.7039794921875,179.56199645996094z"/>
<path id="Headlight_1_" fill="#F4F4F4" d="M499.3550109863281,279.22698974609375C498.4530029296875,284.3500061035156,496.3030090332031,288.7179870605469,493.4259948730469,291.58099365234375C489.3399963378906,292.6310119628906,485.17401123046875,293.4750061035156,481.02099609375,294.08099365234375C475.29901123046875,291.2690124511719,471.16900634765625,283.2510070800781,471.16900634765625,273.77899169921875C471.16900634765625,268.82598876953125,472.3139953613281,264.2770080566406,474.2030029296875,260.6520080566406C480.7879943847656,258.62298583984375,486.8949890136719,256.52301025390625,492.22100830078125,254.90399169921875C492.9930114746094,255.51699829101562,493.7229919433594,256.2340087890625,494.4079895019531,257.0419921875L494.4079895019531,257.0429992675781C494.86700439453125,255.85699462890625,495.4280090332031,254.76800537109375,496.072998046875,253.78799438476562C501.71002197265625,252.24700927734375,506.21002197265625,251.52301025390625,509.0770263671875,252.47601318359375C510.156005859375,252.83001708984375,511.25799560546875,253.28799438476562,512.3670043945312,253.78799438476562C514.2579956054688,256.6600036621094,515.426025390625,260.5169982910156,515.426025390625,264.77301025390625C515.426025390625,273.62701416015625,510.40899658203125,280.8080139160156,504.219970703125,280.8080139160156C502.47601318359375,280.8080139160156,500.82501220703125,280.24200439453125,499.35400390625,279.22198486328125"/>
<path id="Taillight_1_" fill="#FF452C" d="M29.264999389648438,230.4199981689453C25.953998565673828,235.75399780273438,23.231998443603516,243.71499633789062,21.854000091552734,247.5449981689453C23.124000549316406,247.6699981689453,26.71900177001953,248.77699279785156,28.451000213623047,248.77699279785156C33.00899887084961,248.77699279785156,38.750999450683594,246.03700256347656,41.27199935913086,244.63099670410156C44.375999450683594,242.906005859375,43.87900161743164,226.78399658203125,42.560001373291016,213.81900024414062C39.48400115966797,217.4340057373047,32.137001037597656,225.79299926757812,29.264999389648438,230.4199981689453z"/>
<path id="CarBorder_1_" fill="#D33C1E" d="M178.03599548339844,247.40899658203125C162.5489959716797,247.40899658203125,157.15899658203125,246.91200256347656,156.50599670410156,237.13099670410156C156.41000366210938,235.697998046875,157.49400329589844,234.4600067138672,158.927001953125,234.36399841308594C160.34100341796875,234.27699279785156,161.59800720214844,235.3489990234375,161.69400024414062,236.78399658203125C162.00799560546875,241.48599243164062,162.05599975585938,242.2100067138672,178.03700256347656,242.2100067138672C196.33900451660156,242.2100067138672,196.33900451660156,239.8679962158203,196.33900451660156,237.15699768066406C196.33900451660156,235.718994140625,197.5030059814453,234.55599975585938,198.93899536132812,234.55599975585938C200.375,234.55599975585938,201.53900146484375,235.71600341796875,201.53900146484375,237.15699768066406C201.53700256347656,246.69500732421875,192.23199462890625,247.40899658203125,178.03599548339844,247.40899658203125zM498.2550048828125,273.8370056152344C498.2550048828125,266.75201416015625,495.8240051269531,260.2869873046875,491.8659973144531,256.7139892578125C489.4460144042969,257.46099853515625,486.8680114746094,258.29998779296875,484.15399169921875,259.1839904785156C481.3039855957031,260.1080017089844,478.375,261.06298828125,475.3070068359375,262.0140075683594C473.625,265.47100830078125,472.7449951171875,269.5419921875,472.7449951171875,273.8370056152344C472.7449951171875,282.2720031738281,476.1629943847656,289.6910095214844,481.2950134277344,292.5090026855469C485.05499267578125,291.9440002441406,488.8580017089844,291.17498779296875,492.6159973144531,290.2250061035156C496.15301513671875,286.49700927734375,498.2550048828125,280.4110107421875,498.2550048828125,273.8370056152344zM496.2179870605469,256.86700439453125C496.2179870605469,256.8659973144531,496.2179870605469,256.8659973144531,496.2179870605469,256.86700439453125C499.47100830078125,261.15399169921875,501.4010009765625,267.28399658203125,501.4010009765625,273.8370056152344C501.4010009765625,275.4150085449219,501.28302001953125,276.97100830078125,501.0670166015625,278.4830017089844C501.06097412109375,278.4830017089844,501.0560302734375,278.4809875488281,501.052978515625,278.47900390625L501.0670166015625,278.4830017089844C502.05401611328125,279.0039978027344,503.1190185546875,279.2980041503906,504.219970703125,279.2980041503906C509.53302001953125,279.2980041503906,513.8599853515625,272.8089904785156,513.8599853515625,264.8320007324219C513.8599853515625,261.70599365234375,513.1749877929688,258.7120056152344,511.9219970703125,256.218994140625C511.72698974609375,255.82998657226562,511.52099609375,255.45001220703125,511.2960205078125,255.08700561523438C510.281982421875,254.6409912109375,509.39300537109375,254.291015625,508.5830078125,254.02398681640625C507.88702392578125,253.79498291015625,507.00799560546875,253.67498779296875,505.969970703125,253.67498779296875C503.81201171875,253.67498779296875,500.97198486328125,254.16000366210938,497.0740051269531,255.19900512695312C496.8890075683594,255.49899291992188,496.74700927734375,255.8280029296875,496.5880126953125,256.14599609375L496.2179870605469,256.86700439453125zM471.10699462890625,264.1050109863281C461.0450134277344,267.06201171875,450.0400085449219,269.6400146484375,439.08599853515625,270.02301025390625C440.4519958496094,276.4020080566406,445.8219909667969,292.46099853515625,465.2900085449219,292.8450012207031C468.7969970703125,292.9110107421875,472.42999267578125,292.7409973144531,476.11199951171875,292.3680114746094C476.12200927734375,292.37799072265625,476.1319885253906,292.3890075683594,476.135986328125,292.3909912109375C472.1109924316406,288.1619873046875,469.5979919433594,281.322998046875,469.5979919433594,273.8290100097656C469.60400390625,270.4230041503906,470.1260070800781,267.1310119628906,471.10699462890625,264.1050109863281zM537.6170043945312,270.06201171875L536.3460083007812,271.55999755859375C524.4400024414062,285.66400146484375,492.61700439453125,297.5769958496094,466.8599853515625,297.5769958496094C466.2980041503906,297.5769958496094,465.7510070800781,297.5679931640625,465.1990051269531,297.5580139160156C437.1889953613281,297.0090026855469,433.9989929199219,268.2439880371094,433.9700012207031,267.9530029296875L433.7120056152344,265.3609924316406L436.3160095214844,265.3609924316406C452.5039978027344,265.3609924316406,469.3789978027344,259.8659973144531,482.9469909667969,255.44900512695312C492.7179870605469,252.26300048828125,500.4410095214844,249.75,505.9639892578125,249.75C507.44500732421875,249.75,508.7080078125,249.92999267578125,509.82098388671875,250.30099487304688C520.9439697265625,253.9940185546875,533.802978515625,265.4230041503906,536.375,268.5480041503906L537.6170043945312,270.06201171875zM516.1309814453125,258.4519958496094C516.697998046875,260.4670104980469,516.9959716796875,262.6260070800781,516.9959716796875,264.8330078125C516.9959716796875,274.5419921875,511.2650146484375,282.4389953613281,504.219970703125,282.4389953613281C502.90802001953125,282.4389953613281,501.6400146484375,282.1650085449219,500.4490051269531,281.65399169921875C500.45001220703125,281.6499938964844,500.45098876953125,281.64599609375,500.4519958496094,281.6400146484375C499.8890075683594,283.8999938964844,499.09100341796875,286.0190124511719,498.0740051269531,287.9129943847656C498.072998046875,287.91400146484375,498.072998046875,287.9150085449219,498.072998046875,287.9150085449219C498.072998046875,287.9150085449219,498.072998046875,287.91400146484375,498.0740051269531,287.9129943847656C511.91400146484375,283.7250061035156,524.385986328125,277.2569885253906,531.3480224609375,270.0589904785156C528.4860229492188,267.239990234375,522.4920043945312,262.18798828125,516.1309814453125,258.4519958496094zM386.4419860839844,121.21099853515625C390.010986328125,119.87799835205078,393.1709899902344,118.70800018310547,395.7829895019531,117.78299713134766C377.9320068359375,117.28399658203125,347.3030090332031,116.90299987792969,324.9209899902344,116.63400268554688C324.60699462890625,116.62999725341797,331.94000244140625,120.60900115966797,332.031005859375,120.61000061035156C350.77398681640625,120.83100128173828,369.92999267578125,121.13300323486328,385.6210021972656,121.51699829101562C385.8949890136719,121.41600036621094,386.1669921875,121.31400299072266,386.4419860839844,121.21099853515625zM292.1400146484375,198.0290069580078C223.03599548339844,197.84300231933594,118.40499877929688,198.4530029296875,117.04100036621094,198.46099853515625C98.57099914550781,198.46099853515625,93.61100006103516,195.84800720214844,92.7040023803711,193.656005859375C91.28099822998047,190.2220001220703,97.88800048828125,183.0540008544922,102.9800033569336,177.96200561523438C128.78900146484375,152.1510009765625,181.38999938964844,120.61399841308594,207.96499633789062,120.16300201416016L215.61300659179688,120.1780014038086L218.3040008544922,118.5009994506836C219.75399780273438,117.56800079345703,220.09800720214844,117.49700164794922,222.24099731445312,116.22200012207031L207.93600463867188,116.16300201416016C207.67100524902344,116.16799926757812,207.40499877929688,116.17500305175781,207.13600158691406,116.18499755859375L207.13099670410156,116.04199981689453L207.1009979248047,115.20500183105469C207.093994140625,115.20500183105469,207.08799743652344,115.20500183105469,207.08200073242188,115.20600128173828L207.08200073242188,115.20500183105469L204.68699645996094,115.20600128173828L202,115.2040023803711C179.66299438476562,115.2040023803711,152.27699279785156,122.4530029296875,136.8489990234375,132.44400024414062C123.23899841308594,139.2100067138672,50.27799987792969,192.62399291992188,33.45199966430664,216.1199951171875C3.8030004501342773,253.50701904296875,-0.4139995574951172,333.4840087890625,10.166999816894531,355.3999938964844C12.440000534057617,360.1109924316406,15.41200065612793,362.5,19,362.5C19.9950008392334,362.5,20.886999130249023,362.5530090332031,21.604000091552734,362.59600830078125C22.316001892089844,362.6369934082031,22.958999633789062,362.6719970703125,23.562000274658203,362.6719970703125C25.144001007080078,362.6719970703125,27.06100082397461,362.46600341796875,29.283000946044922,360.9429931640625C31.625999450683594,359.3370056152344,31.694000244140625,356.1610107421875,31.797000885009766,351.343994140625C31.91699981689453,345.75799560546875,32.099998474121094,337.32000732421875,35.56999969482422,327.4679870605469C42.374000549316406,308.156005859375,58.448997497558594,285.125,96.39199829101562,285.125C115.5979995727539,285.125,130.89100646972656,290.77301025390625,141.927001953125,301.97698974609375L141.95399475097656,301.9570007324219L143.36099243164062,303.5060119628906C164.25599670410156,326.5039978027344,161.68899536132812,363.531005859375,161.66099548339844,363.9020080566406L161.41400146484375,367.1310119628906L199.2220001220703,367.1310119628906C287.2980041503906,367.1310119628906,309.3890075683594,368.1759948730469,309.6050109863281,368.1919860839844L313.20001220703125,368.3659973144531L312.72198486328125,364.79998779296875C312.6719970703125,364.4389953613281,308.14801025390625,328.156005859375,327.95098876953125,305.5480041503906C338.55499267578125,293.4440002441406,354.3389892578125,287.3030090332031,374.864990234375,287.3030090332031C395.8479919433594,287.3030090332031,412.20098876953125,293.4859924316406,423.4580078125,305.66900634765625C443.2019958496094,327.0450134277344,440.8680114746094,360.3059997558594,440.8420104980469,360.63800048828125L440.7860107421875,361.3349914550781L441.04400634765625,361.9840087890625C441.85699462890625,364.0270080566406,443.6759948730469,364.0270080566406,446.42999267578125,364.0270080566406C450.1239929199219,364.0270080566406,458.8680114746094,363.7139892578125,479.53399658203125,362.218994140625C516.041015625,359.5880126953125,556.4190063476562,334,568.7630004882812,320.4150085449219C580.1699829101562,307.8630065917969,590.5170288085938,296.1199951171875,601.6279907226562,279.4519958496094C607.5460205078125,270.57501220703125,613.051025390625,252.52499389648438,612.0059814453125,232.21499633789062C611.1199951171875,215.0240020751953,605.1530151367188,190.30799865722656,581.7769775390625,170.2100067138672C555.4409790039062,146.51800537109375,512.9569702148438,125.30599975585938,485.0480041503906,121.91999816894531L483.25,121.70099639892578L483.2510070800781,121.7030029296875L482.0769958496094,120.85600280761719C470.38299560546875,112.4209976196289,429.7980041503906,84.01499938964844,398.510009765625,72.63400268554688L397.8070068359375,72.37799835205078L397.05999755859375,72.43599700927734C374.1289978027344,74.1989974975586,330.9159851074219,94.09500122070312,297.50799560546875,116.3030014038086C296.5260009765625,116.95700073242188,295.552001953125,117.61499786376953,294.58599853515625,118.27100372314453C294.5840148925781,118.27100372314453,294.5820007324219,118.27100372314453,294.5799865722656,118.27100372314453C283.15301513671875,126.04901123046875,273.0220031738281,134.052001953125,265.4630126953125,141.61000061035156L262.7539978027344,144.31900024414062L265.7200012207031,146.74400329589844C272.8800048828125,152.60000610351562,294.8349914550781,169.38400268554688,312.9490051269531,183.156005859375L308.9360046386719,183.156005859375C300.2929992675781,183.156005859375,293.1570129394531,189.66299438476562,292.1310119628906,198.0330047607422L292.1400146484375,198.0290069580078zM41.560001373291016,216.88099670410156C42.87900161743164,229.84800720214844,42.375999450683594,242.97000122070312,39.27199935913086,244.6929931640625C36.750999450683594,246.09100341796875,33.007999420166016,246.83700561523438,28.451000213623047,246.83700561523438C26.720001220703125,246.83700561523438,25.124000549316406,246.73300170898438,23.854000091552734,246.60800170898438C25.231998443603516,242.7779998779297,27.955001831054688,235.81700134277344,31.264999389648438,230.48300170898438C34.137001037597656,225.8520050048828,38.48400115966797,220.49099731445312,41.560001373291016,216.88099670410156zM588.9730224609375,186.0469970703125C591.427978515625,189.75599670410156,594.6400146484375,195.02499389648438,597.5689697265625,200.08900451660156L595.75,204.09100341796875C593.0859985351562,197.44900512695312,590.5499877929688,190.72900390625,588.9730224609375,186.0469970703125zM339.37200927734375,200.1009979248047C339.37200927734375,206.68499755859375,334.0159912109375,212.04400634765625,327.42999267578125,212.04400634765625L308.94500732421875,212.04400634765625C302.3599853515625,212.04400634765625,297.00299072265625,206.68800354003906,297.00299072265625,200.1009979248047C297.00299072265625,193.51600646972656,302.3599853515625,188.15899658203125,308.94500732421875,188.15899658203125L327.42999267578125,188.15899658203125C334.0159912109375,188.15899658203125,339.37200927734375,193.51600646972656,339.37200927734375,200.1009979248047zM344.6619873046875,202.48899841308594C344.718994140625,202.49200439453125,344.77099609375,202.5019989013672,344.83099365234375,202.49899291992188C345.3179931640625,202.48899841308594,394.4070129394531,201.4459991455078,457.7300109863281,216.23199462890625C491.1809997558594,224.04400634765625,508.1259765625,237.8000030517578,508.2919921875,237.9429931640625C508.614990234375,238.21099853515625,509.0059814453125,238.33900451660156,509.39599609375,238.33900451660156C509.8909912109375,238.33900451660156,510.385009765625,238.125,510.73297119140625,237.7100067138672C511.33697509765625,236.97500610351562,511.24102783203125,235.8820037841797,510.5040283203125,235.27200317382812C509.79901123046875,234.68600463867188,492.8380126953125,220.8730010986328,458.5169982910156,212.85400390625C406.3479919433594,200.6719970703125,363.7030029296875,199.16600036621094,349.6629943847656,199.02200317382812L349.66400146484375,199.02200317382812C372.71099853515625,183.15699768066406,454.1659851074219,128.30099487304688,480.2130126953125,127.12899780273438L489.7760009765625,126.697998046875C516.6790161132812,131.81900024414062,555.5540161132812,151.9980010986328,579.1240234375,173.197998046875C581,174.81100463867188,582.833984375,176.5279998779297,584.5800170898438,178.302001953125L584.5780029296875,178.2989959716797C584.5,178.3679962158203,584.427001953125,178.44500732421875,584.3599853515625,178.5279998779297C583.6580200195312,179.3979949951172,582.47998046875,180.85299682617188,594.0479736328125,209.13900756835938L595.5689697265625,212.8560028076172L600.6710205078125,201.6320037841797L600.666015625,201.6320037841797C613.93701171875,230.8769989013672,607.1640014648438,263.9490051269531,598.3079833984375,277.2330017089844C587.3519897460938,293.6709899902344,577.1119995117188,305.2950134277344,565.8099975585938,317.7239990234375C553.8499755859375,330.88299560546875,514.7009887695312,355.6730041503906,479.2510070800781,358.2279968261719C458.7030029296875,359.7090148925781,450.06298828125,360.02398681640625,446.43499755859375,360.02398681640625C445.7250061035156,360.02398681640625,445.22900390625,360.00799560546875,444.885986328125,359.99798583984375C445.1319885253906,354.2200012207031,445.4549865722656,323.60198974609375,426.4209899902344,302.97698974609375C414.375,289.91900634765625,397.031005859375,283.29998779296875,374.8699951171875,283.29998779296875C353.1409912109375,283.29998779296875,336.343994140625,289.9010009765625,324.94500732421875,302.90899658203125C306.0190124511719,324.51300048828125,308.01300048828125,357.52301025390625,308.63299560546875,364.1409912109375C303.0769958496094,363.9389953613281,276.29400634765625,363.12799072265625,199.22000122070312,363.12799072265625L165.70399475097656,363.12799072265625C165.802001953125,360.7489929199219,165.91299438476562,354.6390075683594,165.00900268554688,346.7659912109375L165.01100158691406,346.7749938964844L294.677001953125,347.8630065917969L294.70599365234375,344.3949890136719L164.75,343.3030090332031L164.55799865722656,343.2909851074219C164.19000244140625,340.75799560546875,163.71299743652344,338.0889892578125,163.1009979248047,335.3380126953125L163.1009979248047,335.3370056152344L293.7349853515625,335.3370056152344L293.8290100097656,332.9389953613281C294.0039978027344,328.45098876953125,295.6499938964844,315.60400390625,301.0989990234375,310.15899658203125L297.5660095214844,306.6239929199219C291.2850036621094,312.9020080566406,289.4960021972656,325.1449890136719,289.0050048828125,330.3429870605469L162.32200622558594,330.3429870605469L161.86399841308594,330.37701416015625C159.197998046875,320.760009765625,154.75799560546875,310.5849914550781,147.41000366210938,302.03399658203125L147.35699462890625,302.0350036621094C146.7169952392578,291.23199462890625,145.80299377441406,280.2019958496094,144.91799926757812,269.5190124511719C142.33399963378906,238.35699462890625,139.89300537109375,208.92300415039062,146.00900268554688,202.33099365234375L145.98699951171875,202.30999755859375L146.00900268554688,202.30999755859375C182.2899932861328,202.13999938964844,245.35800170898438,201.9010009765625,292.1180114746094,202.0260009765625C292.1610107421875,202.0260009765625,292.1289978027344,202.11199951171875,292.135009765625,202.15499877929688C293.1549987792969,210.52999877929688,300.2980041503906,217.04100036621094,308.94500732421875,217.04100036621094L327.4289855957031,217.04100036621094C335.8269958496094,217.04100036621094,342.8009948730469,210.8939971923828,344.125,202.85899353027344C344.1239929199219,202.85899353027344,344.1239929199219,202.85899353027344,344.1239929199219,202.85899353027344C344.27301025390625,202.75999450683594,344.4570007324219,202.63099670410156,344.6619873046875,202.48899841308594zM100.1520004272461,175.13400268554688C91.89600372314453,183.38900756835938,86.84200286865234,189.95899963378906,89.00800323486328,195.18699645996094C91.11900329589844,200.28599548339844,99.50299835205078,202.46099853515625,117.052001953125,202.46099853515625C117.45799255371094,202.45899963378906,126.93499755859375,202.4040069580078,141.8679962158203,202.33200073242188C136.7010040283203,212.34300231933594,138.8249969482422,238.00900268554688,141.46200561523438,269.8110046386719C142.2310028076172,279.0820007324219,143.01199340820312,288.6210021972656,143.6230010986328,298.02398681640625L143.6199951171875,298.0199890136719C131.9550018310547,286.8089904785156,116.072998046875,281.125,96.39099884033203,281.125C56.108001708984375,281.125,39.02899932861328,305.60400390625,31.794998168945312,326.1409912109375C28.11199951171875,336.5929870605469,27.922000885009766,345.4209899902344,27.796001434326172,351.2619934082031C27.733001708984375,354.17999267578125,27.667999267578125,357.1990051269531,27.016998291015625,357.64300537109375C25.22100067138672,358.8760070800781,23.893001556396484,358.72100830078125,21.834999084472656,358.60198974609375C21.016998291015625,358.55499267578125,20.089000701904297,358.5,18.99799919128418,358.5C17.6200008392334,358.5,16.30900001525879,357.64599609375,15.100000381469727,355.9540100097656C5.843000411987305,343.0159912109375,6.197999954223633,291.1199951171875,19.79599952697754,251.239990234375L19.843000411987305,251.10101318359375L20.03700065612793,251.13800048828125C20.190000534057617,251.16000366210938,23.84600067138672,251.83001708984375,28.448001861572266,251.83001708984375C33.93000030517578,251.83001708984375,38.38800048828125,250.89500427246094,41.696998596191406,249.0590057373047C49.99800109863281,244.4499969482422,46.9630012512207,218.51199340820312,45.834999084472656,210.6699981689453L45.50400161743164,208.375L46.03499984741211,207.8419952392578C71.4489974975586,182.3000030517578,128.20799255371094,141.0780029296875,138.76800537109375,135.947998046875L138.8769989013672,135.88600158691406C150.2220001220703,128.48699951171875,169.3000030517578,122.39399719238281,187.68899536132812,120.14199829101562L187.9219970703125,120.11299896240234C157.81199645996094,130.05299377441406,118.75399780273438,156.5290069580078,100.1520004272461,175.13400268554688zM343.52099609375,194.83099365234375L343.52099609375,194.83099365234375C341.29400634765625,188.06300354003906,334.92498779296875,183.15899658203125,327.42401123046875,183.15899658203125L324.4119873046875,183.15899658203125C307.37701416015625,170.2259979248047,283.61199951171875,152.11599731445312,273.1510009765625,143.822998046875C302.8559875488281,116.04100036621094,367.6260070800781,82.14700317382812,396.8550109863281,79.41300201416016C422.59698486328125,88.9530029296875,454.843994140625,110.24400329589844,471.0150146484375,121.51699829101562C454.9469909667969,120.13600158691406,434.2929992675781,119.0250015258789,408.86700439453125,118.18299865722656C409.9880065917969,119.16200256347656,411.0379943847656,120.28399658203125,411.99200439453125,121.30500030517578L412.5260009765625,121.875C412.6659851074219,122.02300262451172,412.79901123046875,122.1729965209961,412.9440002441406,122.3219985961914C432.14599609375,122.99500274658203,448.50299072265625,123.8280029296875,462.09698486328125,124.82199096679688L462.09698486328125,124.82000732421875C424.7340087890625,139.2530059814453,360.3810119628906,183.13099670410156,343.52099609375,194.83099365234375z"/>
<path id="WindShield_1_" opacity="0.5" fill="#D7E9FF" enable-background="new    " d="M396.8580017089844,79.41300201416016C367.6289978027344,82.14600372314453,302.8590087890625,116.04100036621094,273.1570129394531,143.822998046875C283.6180114746094,152.11599731445312,307.38299560546875,170.2259979248047,324.4179992675781,183.15899658203125L327.42999267578125,183.15899658203125C334.9320068359375,183.15899658203125,341.29998779296875,188.06399536132812,343.52398681640625,194.83099365234375C361.8739929199219,182.09800720214844,436.47198486328125,131.2519989013672,471.3290100097656,121.72699737548828C455.2569885253906,110.51100158691406,422.7669982910156,89.01200103759766,396.8580017089844,79.41300201416016z"/>
<path id="Vents_1_" fill="#D33C1E" d="M607.39599609375,225.86300659179688C607.39599609375,225.86300659179688,607.3900146484375,242.0659942626953,606.625,245.9250030517578C605.85498046875,249.7830047607422,606.625,257.4989929199219,582.7050170898438,283.7349853515625C573.5490112304688,292.0710144042969,565.4619750976562,299.14300537109375,558.1279907226562,305.14898681640625L557.572021484375,278.4670104980469C558.22998046875,277.9100036621094,558.885986328125,277.35400390625,559.551025390625,276.78900146484375C600.4530029296875,239.7530059814453,600.4530029296875,232.8090057373047,607.39599609375,225.86300659179688zM473.906005859375,316.1449890136719C463.1029968261719,316.1449890136719,464.64599609375,337.7489929199219,473.906005859375,337.7489929199219C503.19500732421875,337.7489929199219,520.5139770507812,333.89599609375,548.7750244140625,312.52301025390625C549.301025390625,305.5369873046875,550.1489868164062,294.61700439453125,551.02099609375,283.9949951171875C529.875,301.7099914550781,510.00799560546875,316.1449890136719,473.906005859375,316.1449890136719zM550.198974609375,261.7900085449219C559.676025390625,255.18399047851562,583.7979736328125,234.4770050048828,588.968017578125,221.69900512695312C594.1370239257812,208.9219970703125,582.0759887695312,192.6230010986328,582.0759887695312,192.6230010986328C582.0759887695312,192.6230010986328,531.677978515625,236.67999267578125,517.4630126953125,245.0500030517578C517.4630126953125,245.0500030517578,540.7239990234375,268.39801025390625,550.198974609375,261.7900085449219z"/>
</g>
</g>
</svg>