<?xml version="1.0" encoding="UTF-8"?>
<svg xmlns="http://www.w3.org/2000/svg" xmlns:xlink="http://www.w3.org/1999/xlink" width="118pt" height="34pt" viewBox="0 0 118 34" version="1.1">
<g id="surface1">
<path style=" stroke:none;fill-rule:nonzero;fill:rgb(15.686275%,64.705882%,85.490196%);fill-opacity:1;" d="M 100.140625 1.171875 C 91.671875 1.171875 84.78125 8.265625 84.78125 16.996094 C 84.78125 25.722656 91.671875 32.828125 100.140625 32.828125 C 108.613281 32.828125 115.5 25.722656 115.5 16.996094 C 115.5 8.265625 108.613281 1.171875 100.140625 1.171875 Z M 100.140625 1.171875 "/>
<path style="fill:none;stroke-width:20;stroke-linecap:butt;stroke-linejoin:miter;stroke:rgb(15.686275%,64.705882%,85.490196%);stroke-opacity:1;stroke-miterlimit:4;" d="M 50.107692 242.258777 C 31.234214 242.258777 15.391512 227.483542 14.048327 208.630075 C 14.048327 208.36265 14.048327 208.095225 14.013886 207.861228 C 13.70392 201.810736 13.325073 190.010605 14.048327 176.739637 C 14.530496 168.048322 14.771581 153.440228 14.771581 152.938806 C 14.771581 152.938806 14.771581 152.838522 14.771581 152.838522 C 14.874903 143.846354 18.318968 135.68989 23.863913 129.405401 C 21.143102 119.811527 20.213204 108.345678 21.969677 94.87414 L 22.210762 92.73474 C 23.209541 84.745416 24.656049 72.911857 30.648722 61.512864 C 39.775496 44.330804 56.410332 34.469505 76.385912 34.469505 C 77.556894 34.469505 78.693436 34.502933 79.933299 34.569789 C 81.724213 34.670073 83.687331 34.870642 85.788211 35.238352 C 92.159732 29.622425 100.528811 26.212756 109.690025 26.212756 C 109.793347 26.212756 109.93111 26.212756 110.034432 26.212756 C 129.872249 26.446753 145.852713 42.726253 145.783831 62.515708 C 145.783831 62.615992 145.783831 62.783133 145.783831 62.916845 C 145.783831 63.351411 143.958477 113.894748 143.441867 117.504986 C 143.441867 117.738983 143.338545 118.006408 143.304104 118.273833 C 142.821935 120.948084 142.064241 123.488622 141.031021 125.928875 C 149.778947 136.22474 154.497317 148.960859 154.66952 163.401812 C 154.876164 181.51986 146.541526 199.136486 131.904247 211.705463 C 119.298968 222.50275 103.318504 228.452958 86.924752 228.452958 C 84.238381 228.452958 81.586451 228.319245 78.968961 227.984964 C 78.417911 228.686955 77.86686 229.388946 77.246928 230.057508 C 70.840967 237.277985 62.024159 241.590214 52.380776 242.19192 C 51.726403 242.19192 50.934268 242.292205 50.107692 242.292205 Z M 50.107692 242.258777 " transform="matrix(0.11342,0,0,0.116855,1.945705,2.15956)"/>
<path style="fill:none;stroke-width:20;stroke-linecap:butt;stroke-linejoin:miter;stroke:rgb(15.686275%,64.705882%,85.490196%);stroke-opacity:1;stroke-miterlimit:4;" d="M 77.178047 126.73115 C 68.085714 125.327169 63.264023 119.243249 65.674868 100.42321 L 65.984834 98.150097 C 67.982392 81.736884 69.704425 78.160074 77.556894 78.561211 C 79.864418 78.728352 82.516349 80.132334 85.168279 82.372019 C 87.579125 85.146554 93.08963 88.857076 96.154848 96.177837 C 98.35905 101.526339 99.116744 105.036292 99.42671 108.746815 C 99.42671 108.880528 99.94332 113.359897 99.94332 113.359897 C 100.528811 116.502142 102.974097 119.076108 106.314841 119.677814 C 110.619923 120.446662 114.718361 117.60527 115.544936 113.259613 C 115.613818 112.791619 117.542494 63.18427 117.542494 62.381995 C 117.542494 58.036338 114.063988 54.459528 109.690025 54.4261 C 105.281621 54.4261 101.734234 57.936054 101.699793 62.315139 C 101.699793 62.415423 101.699793 69.234762 101.596471 76.154386 C 95.328272 69.335047 87.3036 63.251127 78.38347 62.749705 C 54.378334 61.446008 51.760844 83.441719 50.211014 96.177837 L 49.96993 98.417522 C 46.732508 123.488622 55.101587 139.333556 74.732761 142.408945 C 96.154848 145.785186 110.413279 150.699121 110.551042 163.869806 C 110.551042 168.917454 107.933552 174.165671 103.249623 178.243903 C 97.635796 183.057554 89.95553 185.230382 82.895196 184.02697 C 80.690994 183.65926 78.590114 183.090982 76.626997 182.422419 C 73.802863 180.851297 66.742529 176.605924 63.160701 171.625132 C 60.164364 167.446616 59.131144 160.894702 58.786737 156.716185 C 58.821178 154.84421 58.855619 153.607369 58.855619 153.440228 C 58.9245 149.061143 55.411553 145.484333 51.03759 145.384048 C 46.663627 145.317192 43.012918 148.793718 42.978477 153.23966 C 42.978477 153.4068 42.771833 168.884026 42.186342 178.243903 C 41.359766 193.286562 42.186342 206.089537 42.186342 206.624387 C 42.530748 211.003473 46.250339 214.312858 50.624302 214.045433 C 55.067147 213.744579 58.304568 210.000629 58.063484 205.621543 C 58.063484 205.521259 57.650196 199.370482 57.719077 190.812881 C 63.505107 194.523403 71.116492 198.133642 80.277706 199.671336 C 92.125291 201.643595 104.213961 198.233926 113.547378 190.27803 C 121.813136 183.191266 126.531505 173.46368 126.462624 163.669237 C 126.118217 134.386193 93.08963 129.23826 77.178047 126.73115 Z M 77.178047 126.73115 " transform="matrix(0.11342,0,0,0.116855,1.945705,2.15956)"/>
<path style="fill:none;stroke-width:20;stroke-linecap:butt;stroke-linejoin:miter;stroke:rgb(15.686275%,64.705882%,85.490196%);stroke-opacity:1;stroke-miterlimit:4;" d="M 323.910898 234.871159 C 317.057207 234.871159 310.169077 233.467178 302.867658 230.625786 C 296.358374 228.152105 291.226716 224.341297 287.19716 220.263065 C 284.476348 221.366194 281.652214 222.168469 278.759199 222.569606 L 240.461191 228.185533 C 238.670277 228.452958 236.948244 228.553242 235.226212 228.553242 C 217.351512 228.553242 201.956539 215.215417 199.442371 197.531935 C 198.064745 188.105202 200.475591 178.578184 206.22718 170.822857 C 209.120195 166.945194 212.667583 163.736093 216.697139 161.362696 L 216.697139 155.813626 C 209.326839 149.194856 204.711792 139.600981 204.711792 128.903979 C 204.711792 121.115224 207.225959 113.861319 211.427719 107.94454 C 202.920878 102.362042 196.756 93.336446 195.275052 82.7063 C 193.862985 73.379851 196.273831 63.785977 202.025421 56.03065 C 207.845891 48.275323 216.283852 43.194247 225.892794 41.823694 C 233.848586 40.653709 250.001253 38.648021 267.187139 38.648021 C 305.278504 38.648021 329.559165 48.375608 341.303428 68.465915 C 347.468306 78.995777 354.494199 100.088929 336.10289 127.299429 C 337.859363 132.881927 339.133667 139.066131 340.029124 146.019183 C 340.166887 146.019183 340.270209 146.019183 340.373531 146.019183 C 344.02424 146.019183 347.571628 146.520605 351.015693 147.590305 C 370.130256 153.507085 380.8413 173.797961 374.951948 192.818568 C 369.200359 211.304326 360.039145 222.770175 345.332985 229.990652 C 338.513735 233.233181 331.38452 234.871159 323.945338 234.871159 Z M 323.910898 234.871159 " transform="matrix(0.11342,0,0,0.116855,1.945705,2.15956)"/>
<path style="fill:none;stroke-width:20;stroke-linecap:butt;stroke-linejoin:miter;stroke:rgb(15.686275%,64.705882%,85.490196%);stroke-opacity:1;stroke-miterlimit:4;" d="M 342.749936 174.53338 C 338.513735 173.296539 334.03645 175.60308 332.796587 179.781597 C 329.903572 189.241758 327.596048 189.57604 325.977337 190.344887 C 324.358626 191.113734 322.223306 190.846309 318.813681 189.542612 C 318.26263 189.241758 316.850564 187.369783 316.023988 185.63152 C 314.784124 182.990698 313.303176 171.925986 313.165413 165.608069 C 312.545482 142.30866 308.515925 129.472257 301.972201 122.452349 C 306.346164 119.544102 309.583585 115.766723 309.962433 115.265301 C 310.065755 115.198445 310.065755 115.198445 310.100195 115.09816 C 319.846901 102.495754 322.154424 91.598183 316.988326 82.773156 C 304.03864 60.677161 247.039356 67.195646 229.88791 69.769613 C 225.479506 70.371319 222.51761 74.449551 223.171983 78.76178 C 223.826355 83.107437 227.855912 86.082541 232.160993 85.413979 C 236.259431 84.8457 240.426751 84.344278 244.59407 83.976569 L 244.731832 120.914655 C 243.423088 121.01494 242.114343 121.01494 240.840038 121.01494 C 236.466075 121.01494 232.884247 124.524894 232.884247 128.903979 C 232.884247 133.316493 236.466075 136.859875 240.840038 136.859875 C 242.148783 136.859875 243.491969 136.859875 244.800714 136.793018 L 244.972917 182.957269 L 234.08967 184.56182 C 229.750148 185.163526 226.71937 189.241758 227.373742 193.520559 C 228.028115 197.866217 232.023231 200.874748 236.397194 200.273042 L 274.660761 194.657116 C 278.965843 193.988553 281.996621 189.977177 281.342248 185.664948 C 280.722317 181.285863 276.658319 178.310759 272.318797 178.912465 L 260.850059 180.6173 L 260.643415 135.121612 C 268.220359 133.884771 275.418456 132.246792 281.44557 130.408245 C 281.548892 130.408245 283.202044 130.207676 284.235263 130.408245 C 287.438244 130.943095 289.160277 131.544802 291.020072 134.118768 C 293.637562 137.762434 296.771662 146.219752 297.288272 166.042634 C 297.391594 169.88687 298.424813 185.497807 301.627794 192.384003 C 302.592132 194.556831 306.449486 201.810736 313.062092 204.384702 C 317.952665 206.290106 325.288524 208.329222 332.899909 204.652127 C 339.960243 201.242458 344.334206 196.228238 347.950475 184.56182 C 349.224779 180.349875 346.917255 175.903933 342.715495 174.600236 Z M 297.598238 103.732595 C 296.943865 104.568299 294.877426 106.707699 292.810987 107.94454 C 290.813429 109.114525 288.195939 109.883372 285.61289 110.685647 L 281.583333 111.955916 C 276.003947 113.961604 268.564766 116.034148 260.608974 117.504986 L 260.436771 81.402603 C 281.44557 80.800896 299.733558 83.174294 303.280946 89.224786 C 303.625352 89.759636 303.728674 90.428199 303.728674 91.197046 C 303.728674 94.105293 301.627794 98.584663 297.598238 103.732595 Z M 297.598238 103.732595 " transform="matrix(0.11342,0,0,0.116855,1.945705,2.15956)"/>
<path style="fill:none;stroke-width:20;stroke-linecap:butt;stroke-linejoin:miter;stroke:rgb(15.686275%,64.705882%,85.490196%);stroke-opacity:1;stroke-miterlimit:4;" d="M 592.134717 233.266609 C 551.25366 233.266609 527.799574 202.546155 525.836457 172.193411 C 525.733135 170.288007 525.698694 166.410344 525.49205 156.28162 C 525.49205 155.947338 525.49205 155.613057 525.49205 155.312204 C 525.733135 136.625878 525.802016 132.982211 525.836457 131.544802 C 527.902896 102.462326 537.959567 82.17145 555.799826 71.207022 C 564.237787 65.992234 573.846729 63.317983 584.351129 63.317983 C 587.932957 63.317983 591.377023 63.652264 594.545563 64.120258 C 601.158169 56.665785 610.870433 51.91899 621.615918 51.91899 C 641.557057 51.91899 657.813046 68.165062 657.813046 88.088229 L 657.813046 122.452349 C 657.813046 126.56401 657.089792 130.541958 655.746606 134.285908 C 660.740501 140.16926 663.874601 147.623733 664.253448 155.780198 C 664.494533 158.554733 664.597855 160.326424 664.528973 162.164971 C 664.253448 171.424564 664.253448 171.524848 664.081245 172.761689 C 664.081245 173.062542 663.977923 173.396823 663.977923 173.697677 C 663.116907 179.681312 660.947145 191.113734 655.849928 200.105901 C 652.543626 205.822112 649.134001 210.000629 645.93102 213.644295 C 639.456177 220.931628 631.982555 224.943004 625.542152 227.984964 C 614.796668 233.06604 605.532132 233.132896 598.712882 233.199753 L 594.442241 233.300037 C 593.684547 233.300037 592.892411 233.300037 592.134717 233.300037 Z M 592.134717 233.266609 " transform="matrix(0.11342,0,0,0.116855,1.945705,2.15956)"/>
<path style="fill:none;stroke-width:20;stroke-linecap:butt;stroke-linejoin:miter;stroke:rgb(15.686275%,64.705882%,85.490196%);stroke-opacity:1;stroke-miterlimit:4;" d="M 628.021879 149.595993 C 623.716797 149.595993 620.238291 153.206231 620.238291 157.518461 C 620.238291 157.518461 620.479376 160.092427 620.479376 160.426708 C 620.479376 160.727561 620.307173 166.978622 620.307173 167.881182 C 619.790563 171.157139 618.58514 176.405355 617.55192 178.243903 C 616.346497 180.349875 615.106634 181.920997 612.902432 184.428107 C 611.662568 185.832089 608.666231 187.23607 606.840877 188.105202 C 604.808878 189.04119 602.845761 189.074618 598.196272 189.141474 L 593.409021 189.241758 C 572.779069 189.876893 570.19602 173.09597 569.851613 169.418876 C 569.851613 168.884026 569.576088 156.081051 569.576088 155.813626 C 569.576088 155.579629 569.851613 135.15504 569.851613 134.553333 C 570.815952 120.948084 574.053373 111.755347 578.909506 108.813671 C 582.629096 106.473702 588.58733 107.108837 597.128612 110.685647 C 607.667452 115.064732 614.831109 126.530582 614.89999 126.630866 C 616.725345 129.639398 620.410495 131.04338 623.785679 130.107392 C 627.229744 129.137976 629.571709 126.062588 629.571709 122.485778 L 629.571709 88.088229 C 629.571709 83.742572 626.024321 80.19919 621.650358 80.19919 C 617.276395 80.19919 613.694567 83.742572 613.694567 88.088229 L 613.694567 102.194901 C 610.629349 99.854932 607.116402 97.648675 603.224608 96.044125 C 598.196272 93.938152 582.973503 87.586807 570.574867 95.275278 C 560.828162 101.258913 555.386538 113.794463 554.008912 133.617346 C 554.008912 133.71763 553.698946 155.713341 553.698946 155.713341 C 553.698946 155.713341 553.974472 170.288007 554.008912 170.388292 C 554.835488 182.790129 564.237787 206.022681 593.89119 205.053265 L 598.334035 205.053265 C 603.706777 204.986409 608.356265 204.986409 613.591245 202.512727 C 617.345276 200.741036 621.650358 198.534779 624.784458 194.991397 C 627.091982 192.417431 629.296184 189.810037 631.362623 186.199798 C 634.3934 180.851297 635.805467 171.625132 636.046552 169.820013 C 636.046552 169.552588 636.356518 160.827846 636.356518 160.827846 C 636.356518 160.694133 636.115433 157.485032 636.115433 157.485032 C 636.012111 153.105947 632.430283 149.595993 628.021879 149.696278 Z M 628.021879 149.595993 " transform="matrix(0.11342,0,0,0.116855,1.945705,2.15956)"/>
<path style="fill:none;stroke-width:20;stroke-linecap:butt;stroke-linejoin:miter;stroke:rgb(15.686275%,64.705882%,85.490196%);stroke-opacity:1;stroke-miterlimit:4;" d="M 704.893421 245.969299 C 696.352138 245.969299 688.189703 242.793627 681.852623 236.977132 C 679.304014 234.67059 677.168694 232.029768 675.481102 229.221805 L 645.621054 228.720383 C 625.783237 228.352673 609.837214 211.972888 610.078298 192.150006 C 610.319383 177.642196 619.170631 165.206931 631.569267 159.591005 L 631.638148 104.167161 C 619.273953 98.417522 610.663789 85.881972 610.663789 71.340735 C 610.663789 51.417568 626.850897 35.204924 646.757596 35.204924 L 680.784962 35.204924 C 687.259806 27.349312 697.040951 22.234808 708.02752 22.000811 C 708.02752 22.000811 749.804035 21.265392 750.010679 21.265392 C 769.57297 21.265392 785.794519 37.210611 786.138925 56.832925 C 786.345569 71.140166 778.217575 83.642288 766.266668 89.69278 C 766.507752 129.004263 766.645515 153.640797 766.748837 169.920298 C 777.666524 175.569652 785.484553 186.667792 786.311129 199.738192 C 787.585433 219.627931 772.431545 236.876847 752.559287 238.113688 C 736.165535 239.216816 725.695576 241.055364 722.73368 241.891067 C 722.182629 242.158492 721.597138 242.325633 721.011647 242.526202 C 717.360938 243.896755 711.919314 245.969299 704.893421 245.969299 Z M 704.893421 245.969299 " transform="matrix(0.11342,0,0,0.116855,1.945705,2.15956)"/>
<path style="fill:none;stroke-width:20;stroke-linecap:butt;stroke-linejoin:miter;stroke:rgb(15.686275%,64.705882%,85.490196%);stroke-opacity:1;stroke-miterlimit:4;" d="M 415.523039 204.551843 C 407.67057 204.551843 400.196948 202.044733 393.894308 197.331366 C 392.585563 196.328522 391.276818 195.258822 390.105836 194.088838 C 385.59411 196.061097 380.600216 197.197654 375.365236 197.197654 C 374.814186 197.197654 374.297576 197.197654 373.746525 197.197654 L 334.174213 195.325678 C 314.301955 194.423119 298.838101 177.475056 299.767999 157.585317 C 300.629015 138.230428 316.506157 123.087484 335.896246 123.087484 C 336.068449 123.087484 336.206212 123.087484 336.412855 123.087484 C 338.20377 113.995032 342.612173 91.765324 342.853258 90.695624 C 329.731368 86.517107 319.674697 75.118114 317.780461 60.944586 C 315.197412 41.188559 329.111437 23.003655 348.777051 20.362833 L 382.735536 15.682894 C 384.319806 15.448897 385.972958 15.348613 387.626109 15.348613 C 397.579458 15.348613 407.188401 19.493701 414.007651 26.781034 C 416.452937 29.421857 420.069206 34.569789 421.963442 39.116015 L 451.754608 111.187069 C 451.892371 111.52135 452.064574 111.922488 452.236777 112.323625 C 452.340099 112.323625 452.443421 112.323625 452.546743 112.323625 C 467.769513 112.323625 481.408012 121.950928 486.57411 136.291596 C 493.255597 155.011351 483.508892 175.703365 464.876498 182.489276 C 452.960031 186.734648 445.348646 190.612312 442.558953 192.384003 C 435.774144 200.039045 425.855236 204.551843 415.523039 204.551843 Z M 415.523039 204.551843 " transform="matrix(0.11342,0,0,0.116855,1.945705,2.15956)"/>
<path style="fill:none;stroke-width:20;stroke-linecap:butt;stroke-linejoin:miter;stroke:rgb(15.686275%,64.705882%,85.490196%);stroke-opacity:1;stroke-miterlimit:4;" d="M 449.860372 141.004963 C 447.518408 141.840666 442.972241 144.147208 435.911907 147.256024 C 435.911907 147.256024 426.027439 122.652918 425.717473 122.051212 L 395.891866 49.913302 C 395.5819 49.144455 393.928749 46.603917 393.412139 46.102495 C 391.655666 44.197091 389.072617 43.261103 386.558449 43.628813 L 352.531082 48.308752 C 348.191559 48.87703 345.160782 52.854978 345.746273 57.234063 C 346.331764 61.57972 350.32688 64.588252 354.666402 64.053402 C 354.666402 64.053402 367.306123 62.214855 377.603879 60.810873 C 374.641982 75.285254 362.93216 134.386193 359.28145 152.370528 L 336.240652 151.233972 C 331.866689 151.066831 328.147098 154.443072 327.940454 158.822158 C 327.73381 163.201243 331.177876 166.911766 335.551839 167.078906 L 375.020829 168.950882 C 379.394793 169.151451 383.114383 165.775209 383.321027 161.396124 C 383.527671 157.017039 380.944622 153.039091 375.330795 153.039091 L 377.121709 141.004963 L 413.801007 134.887615 L 421.653476 154.30936 C 415.695243 157.719029 411.941211 159.891858 409.151518 163.669237 C 406.534029 167.179191 407.291723 172.159983 410.80467 174.733949 C 414.317617 177.374771 419.277071 176.639352 421.929001 173.129398 C 425.476389 168.349175 440.423633 161.262411 455.233114 155.947338 C 459.331552 154.4765 461.466873 149.930274 460.020365 145.818614 C 458.504977 141.673526 453.95881 139.534125 449.860372 141.004963 Z M 380.531334 128.235416 L 390.209158 80.600328 L 407.705011 123.722619 Z M 380.531334 128.235416 " transform="matrix(0.11342,0,0,0.116855,1.945705,2.15956)"/>
<path style="fill:none;stroke-width:20;stroke-linecap:butt;stroke-linejoin:miter;stroke:rgb(15.686275%,64.705882%,85.490196%);stroke-opacity:1;stroke-miterlimit:4;" d="M 471.626866 227.216117 C 452.030133 227.216117 435.774144 211.270898 435.464179 191.648584 C 435.223094 175.60308 445.486409 161.83069 459.882603 156.849898 L 459.882603 146.186324 C 458.814942 146.453749 457.747282 146.620889 456.610741 146.821458 C 454.854267 147.088883 453.063353 147.256024 451.272439 147.256024 C 433.225536 147.256024 418.209411 134.285908 415.523039 116.468714 L 409.461484 77.558367 C 407.842773 67.229075 410.83911 56.732641 417.623919 48.709889 C 424.339847 40.720565 434.258756 36.040627 444.797596 35.906914 L 495.253155 35.071211 C 519.809342 34.569789 541.679158 33.032095 542.85014 32.965239 C 543.022343 32.965239 543.194547 32.965239 543.332309 32.965239 C 544.158885 32.864954 544.95102 32.864954 545.708714 32.864954 C 555.386538 32.864954 564.788837 36.809474 571.504765 43.662241 C 578.771743 50.983002 582.560215 61.278867 581.733639 71.775301 C 581.079267 80.767468 580.872623 94.974425 580.838182 98.417522 C 581.25147 113.092472 573.261238 126.330013 560.20823 132.413933 C 555.386538 134.687046 549.910474 135.890459 544.537732 135.890459 C 540.23265 135.890459 536.065331 135.121612 532.173537 133.684202 L 532.173537 156.348476 C 545.880918 161.396124 555.799826 174.53338 556.040911 189.876893 C 556.213114 199.537623 552.493523 208.663503 545.777596 215.616555 C 538.958346 222.536178 529.934895 226.413842 520.291511 226.514126 C 520.291511 226.514126 471.730188 227.216117 471.592425 227.216117 Z M 471.626866 227.216117 " transform="matrix(0.11342,0,0,0.116855,1.945705,2.15956)"/>
<path style="fill:none;stroke-width:20;stroke-linecap:butt;stroke-linejoin:miter;stroke:rgb(15.686275%,64.705882%,85.490196%);stroke-opacity:1;stroke-miterlimit:4;" d="M 545.157664 61.078298 C 544.95102 61.111726 521.703578 62.783133 495.735324 63.284555 L 445.073121 64.120258 C 442.800038 64.120258 440.595836 65.15653 439.149329 66.928221 C 437.66838 68.666484 436.979567 70.939597 437.289533 73.21271 L 443.385529 112.256769 C 444.039902 116.568998 448.103899 119.57753 452.408981 118.908967 C 456.335215 118.340689 459.159349 114.93102 459.159349 111.086784 C 459.159349 110.719075 455.990809 90.729052 454.372098 79.864909 C 456.438537 79.83148 487.951736 79.263202 487.951736 79.263202 L 488.15838 182.890413 L 471.489103 183.12441 C 467.11514 183.224694 463.602193 186.834933 463.671075 191.147162 C 463.774397 195.559675 467.356225 199.069629 471.695747 199.002773 L 520.015986 198.300782 C 524.389949 198.300782 527.902896 194.623688 527.834015 190.244602 C 527.730693 185.832089 524.183305 182.388991 519.809342 182.422419 L 504.035522 182.656416 L 503.794438 78.995777 C 517.467378 78.59464 529.1772 77.926077 537.201873 77.491511 C 536.788585 84.110281 536.581941 89.057645 536.581941 92.701312 C 536.581941 101.158629 537.477398 102.763179 538.200652 104.00002 C 540.19821 107.643687 544.503292 108.613103 548.291764 106.841412 C 551.219219 105.43743 552.803489 102.161473 552.596845 98.885516 C 552.596845 98.785232 552.769049 81.001465 553.630065 69.6359 C 553.802268 67.329359 553.010133 65.056246 551.356982 63.418267 C 549.738271 61.780289 547.465188 60.944586 545.157664 61.078298 Z M 545.157664 61.078298 " transform="matrix(0.11342,0,0,0.116855,1.945705,2.15956)"/>
<path style="fill:none;stroke-width:20;stroke-linecap:butt;stroke-linejoin:miter;stroke:rgb(15.686275%,64.705882%,85.490196%);stroke-opacity:1;stroke-miterlimit:4;" d="M 175.092829 243.228192 C 134.418415 243.228192 111.033211 212.775164 108.760127 182.58956 C 108.656805 181.653572 108.656805 180.884725 108.656805 180.249591 L 108.34684 165.57464 C 108.34684 165.440928 108.656805 143.612357 108.656805 143.612357 C 108.656805 142.943795 108.656805 142.174948 108.760127 141.406101 C 110.826567 112.323625 120.917679 92.066177 138.723497 81.10175 C 147.195898 75.886961 156.7704 73.21271 167.240359 73.21271 C 170.856628 73.21271 174.266253 73.546992 177.503674 74.048414 C 184.11628 66.560512 193.794104 61.847145 204.574029 61.847145 C 224.480727 61.847145 240.702276 78.059789 240.702276 97.982956 L 240.702276 132.313649 C 240.702276 136.024171 240.116785 139.667838 239.083565 143.077507 C 243.905257 148.994287 246.901594 156.44876 247.21156 164.571796 L 247.418204 168.750313 C 247.418204 169.251735 247.418204 169.753157 247.418204 170.288007 C 247.418204 170.388292 247.314882 180.015594 246.798272 183.65926 C 245.765052 191.046877 243.52641 201.643595 238.704718 210.034057 C 235.363974 215.850552 231.885468 219.99564 228.889131 223.438738 C 222.276526 230.826355 214.837344 234.871159 208.396942 237.879691 C 197.685898 242.960767 188.386921 243.027624 181.567672 243.09448 L 177.469234 243.228192 C 176.677099 243.228192 175.884964 243.228192 175.092829 243.228192 Z M 175.092829 243.228192 " transform="matrix(0.11342,0,0,0.116855,1.945705,2.15956)"/>
<path style="fill:none;stroke-width:20;stroke-linecap:butt;stroke-linejoin:miter;stroke:rgb(15.686275%,64.705882%,85.490196%);stroke-opacity:1;stroke-miterlimit:4;" d="M 210.94555 157.88617 C 206.606028 158.053311 203.161962 161.563265 203.161962 165.842066 C 203.161962 165.842066 203.368606 169.987154 203.368606 170.354863 C 203.368606 170.655717 203.196403 176.873349 203.196403 177.775909 C 202.679793 181.051866 201.543251 186.300083 200.475591 188.172058 C 199.270168 190.244602 197.961423 191.882581 195.791662 194.322834 C 194.551798 195.726816 191.521021 197.164226 189.730107 197.966501 C 187.698108 198.902489 185.769432 198.969345 181.119943 199.002773 L 176.298251 199.103057 C 155.70274 199.77162 153.08525 182.990698 152.706403 179.313603 C 152.706403 178.778753 152.465318 165.94235 152.430878 165.708353 C 152.430878 165.440928 152.706403 145.016339 152.706403 144.414633 C 153.739623 130.809383 156.942603 121.683502 161.798736 118.674971 C 165.518327 116.368429 171.47656 116.970136 180.052283 120.546946 C 190.556683 124.926031 197.720339 136.391881 197.754779 136.525593 C 199.649015 139.534125 203.265284 141.004963 206.70935 139.968691 C 210.118974 139.032703 212.460939 135.923887 212.460939 132.380505 L 212.460939 98.016385 C 212.460939 93.637299 208.913552 90.093917 204.574029 90.093917 C 200.131185 90.093917 196.618238 93.637299 196.618238 98.016385 L 196.618238 112.123057 C 193.518579 109.749659 190.040073 107.509974 186.113838 105.905424 C 181.119943 103.83288 165.931614 97.514963 153.464097 105.136577 C 143.717392 111.153641 138.310209 123.722619 136.898142 143.478645 C 136.898142 143.645786 136.898142 143.779498 136.898142 143.913211 L 136.588177 165.608069 L 136.588177 165.908922 L 136.898142 179.915309 C 136.898142 180.049022 136.898142 180.149306 136.898142 180.249591 C 137.724718 192.718284 147.092576 215.917408 176.780421 215.014849 L 181.223265 214.914564 C 186.596007 214.914564 191.211055 214.81428 196.480475 212.340598 C 200.268947 210.602335 204.505148 208.396078 207.742569 204.819268 C 209.981212 202.211874 212.219854 199.604479 214.251853 196.061097 C 217.317071 190.679168 218.694697 181.453003 218.935782 179.681312 C 218.935782 179.380459 219.211307 170.388292 219.211307 170.288007 L 219.004663 165.741781 C 218.901341 161.362696 215.319513 157.852742 210.94555 157.88617 Z M 210.94555 157.88617 " transform="matrix(0.11342,0,0,0.116855,1.945705,2.15956)"/>
<path style=" stroke:none;fill-rule:nonzero;fill:rgb(96.862745%,97.254902%,97.647059%);fill-opacity:1;" d="M 7.628906 30.46875 C 5.488281 30.46875 3.691406 28.742188 3.539062 26.539062 C 3.539062 26.507812 3.539062 26.476562 3.535156 26.449219 C 3.5 25.742188 3.457031 24.363281 3.539062 22.8125 C 3.59375 21.796875 3.621094 20.089844 3.621094 20.03125 C 3.621094 20.03125 3.621094 20.019531 3.621094 20.019531 C 3.632812 18.96875 4.023438 18.015625 4.652344 17.28125 C 4.34375 16.160156 4.238281 14.820312 4.4375 13.246094 L 4.464844 12.996094 C 4.578125 12.0625 4.742188 10.679688 5.421875 9.347656 C 6.457031 7.339844 8.34375 6.1875 10.609375 6.1875 C 10.742188 6.1875 10.871094 6.191406 11.011719 6.199219 C 11.214844 6.207031 11.4375 6.234375 11.675781 6.277344 C 12.398438 5.621094 13.347656 5.222656 14.386719 5.222656 C 14.398438 5.222656 14.414062 5.222656 14.425781 5.222656 C 16.675781 5.25 18.488281 7.152344 18.480469 9.460938 C 18.480469 9.476562 18.480469 9.496094 18.480469 9.511719 C 18.480469 9.5625 18.273438 15.46875 18.214844 15.890625 C 18.214844 15.917969 18.203125 15.949219 18.199219 15.980469 C 18.144531 16.292969 18.058594 16.589844 17.941406 16.875 C 18.933594 18.078125 19.46875 19.566406 19.488281 21.253906 C 19.511719 23.371094 18.566406 25.429688 16.90625 26.898438 C 15.476562 28.160156 13.664062 28.855469 11.804688 28.855469 C 11.5 28.855469 11.199219 28.839844 10.902344 28.800781 C 10.839844 28.882812 10.777344 28.964844 10.707031 29.042969 C 9.980469 29.886719 8.980469 30.390625 7.886719 30.460938 C 7.8125 30.460938 7.722656 30.472656 7.628906 30.472656 Z M 7.628906 30.46875 "/>
<path style=" stroke:none;fill-rule:nonzero;fill:rgb(96.862745%,97.254902%,97.647059%);fill-opacity:1;" d="M 10.699219 16.96875 C 9.667969 16.804688 9.121094 16.09375 9.394531 13.894531 L 9.429688 13.628906 C 9.65625 11.710938 9.851562 11.292969 10.742188 11.339844 C 11.003906 11.359375 11.304688 11.523438 11.605469 11.785156 C 11.878906 12.109375 12.503906 12.542969 12.851562 13.398438 C 13.101562 14.023438 13.1875 14.433594 13.222656 14.867188 C 13.222656 14.882812 13.28125 15.40625 13.28125 15.40625 C 13.347656 15.769531 13.625 16.074219 14.003906 16.144531 C 14.492188 16.234375 14.957031 15.902344 15.050781 15.394531 C 15.058594 15.339844 15.277344 9.542969 15.277344 9.449219 C 15.277344 8.941406 14.882812 8.523438 14.386719 8.519531 C 13.886719 8.519531 13.484375 8.929688 13.480469 9.441406 C 13.480469 9.453125 13.480469 10.25 13.46875 11.054688 C 12.757812 10.257812 11.847656 9.550781 10.835938 9.492188 C 8.113281 9.339844 7.816406 11.910156 7.640625 13.398438 L 7.613281 13.660156 C 7.246094 16.589844 8.195312 18.441406 10.421875 18.800781 C 12.851562 19.195312 14.46875 19.769531 14.484375 21.308594 C 14.484375 21.898438 14.1875 22.511719 13.65625 22.988281 C 13.019531 23.550781 12.148438 23.804688 11.347656 23.664062 C 11.097656 23.621094 10.859375 23.554688 10.636719 23.472656 C 10.316406 23.292969 9.515625 22.796875 9.109375 22.214844 C 8.769531 21.726562 8.652344 20.960938 8.613281 20.472656 C 8.617188 20.253906 8.621094 20.109375 8.621094 20.089844 C 8.628906 19.578125 8.230469 19.160156 7.734375 19.148438 C 7.238281 19.140625 6.824219 19.546875 6.820312 20.066406 C 6.820312 20.085938 6.796875 21.894531 6.730469 22.988281 C 6.636719 24.746094 6.730469 26.242188 6.730469 26.304688 C 6.769531 26.816406 7.191406 27.203125 7.6875 27.171875 C 8.191406 27.136719 8.558594 26.699219 8.53125 26.1875 C 8.53125 26.175781 8.484375 25.457031 8.492188 24.457031 C 9.148438 24.890625 10.011719 25.3125 11.050781 25.492188 C 12.394531 25.722656 13.765625 25.324219 14.824219 24.394531 C 15.761719 23.566406 16.296875 22.429688 16.289062 21.285156 C 16.25 17.863281 12.503906 17.261719 10.699219 16.96875 Z M 10.699219 16.96875 "/>
<path style=" stroke:none;fill-rule:nonzero;fill:rgb(96.862745%,97.254902%,97.647059%);fill-opacity:1;" d="M 38.683594 29.605469 C 37.90625 29.605469 37.125 29.441406 36.296875 29.109375 C 35.558594 28.820312 34.976562 28.375 34.519531 27.898438 C 34.210938 28.027344 33.890625 28.121094 33.5625 28.167969 L 29.21875 28.824219 C 29.015625 28.855469 28.820312 28.867188 28.625 28.867188 C 26.597656 28.867188 24.851562 27.308594 24.566406 25.242188 C 24.410156 24.140625 24.683594 23.027344 25.335938 22.121094 C 25.664062 21.667969 26.066406 21.292969 26.523438 21.015625 L 26.523438 20.367188 C 25.6875 19.59375 25.164062 18.472656 25.164062 17.222656 C 25.164062 16.3125 25.449219 15.464844 25.925781 14.773438 C 24.960938 14.121094 24.261719 13.066406 24.09375 11.824219 C 23.933594 10.734375 24.207031 9.613281 24.859375 8.707031 C 25.519531 7.800781 26.476562 7.207031 27.566406 7.046875 C 28.46875 6.910156 30.300781 6.671875 32.25 6.671875 C 36.570312 6.671875 39.324219 7.8125 40.65625 10.160156 C 41.355469 11.386719 42.152344 13.855469 40.066406 17.035156 C 40.265625 17.6875 40.410156 18.410156 40.511719 19.222656 C 40.527344 19.222656 40.539062 19.222656 40.550781 19.222656 C 40.964844 19.222656 41.367188 19.28125 41.757812 19.40625 C 43.925781 20.097656 45.140625 22.46875 44.472656 24.691406 C 43.820312 26.851562 42.78125 28.191406 41.113281 29.035156 C 40.339844 29.414062 39.53125 29.605469 38.6875 29.605469 Z M 38.683594 29.605469 "/>
<path style=" stroke:none;fill-rule:nonzero;fill:rgb(96.862745%,97.254902%,97.647059%);fill-opacity:1;" d="M 40.820312 22.554688 C 40.339844 22.410156 39.832031 22.679688 39.691406 23.167969 C 39.363281 24.273438 39.101562 24.3125 38.917969 24.402344 C 38.734375 24.492188 38.492188 24.460938 38.105469 24.308594 C 38.042969 24.273438 37.882812 24.054688 37.789062 23.851562 C 37.648438 23.542969 37.480469 22.25 37.464844 21.511719 C 37.394531 18.789062 36.9375 17.289062 36.195312 16.46875 C 36.691406 16.128906 37.0625 15.6875 37.101562 15.628906 C 37.113281 15.621094 37.113281 15.621094 37.117188 15.609375 C 38.222656 14.136719 38.484375 12.863281 37.898438 11.832031 C 36.429688 9.25 29.964844 10.011719 28.019531 10.3125 C 27.519531 10.382812 27.183594 10.855469 27.257812 11.363281 C 27.332031 11.871094 27.789062 12.21875 28.277344 12.140625 C 28.742188 12.074219 29.214844 12.015625 29.6875 11.972656 L 29.703125 16.289062 C 29.554688 16.300781 29.40625 16.300781 29.261719 16.300781 C 28.765625 16.300781 28.359375 16.710938 28.359375 17.222656 C 28.359375 17.738281 28.765625 18.152344 29.261719 18.152344 C 29.410156 18.152344 29.5625 18.152344 29.710938 18.144531 L 29.730469 23.539062 L 28.496094 23.726562 C 28.003906 23.796875 27.660156 24.273438 27.734375 24.773438 C 27.808594 25.28125 28.261719 25.632812 28.757812 25.5625 L 33.097656 24.90625 C 33.585938 24.828125 33.929688 24.359375 33.855469 23.855469 C 33.785156 23.34375 33.324219 22.996094 32.832031 23.066406 L 31.53125 23.265625 L 31.507812 17.949219 C 32.367188 17.804688 33.183594 17.613281 33.867188 17.398438 C 33.878906 17.398438 34.066406 17.375 34.183594 17.398438 C 34.546875 17.460938 34.742188 17.53125 34.953125 17.832031 C 35.25 18.257812 35.605469 19.246094 35.664062 21.5625 C 35.675781 22.011719 35.792969 23.835938 36.15625 24.640625 C 36.265625 24.894531 36.703125 25.742188 37.453125 26.042969 C 38.007812 26.265625 38.839844 26.503906 39.703125 26.074219 C 40.503906 25.675781 41 25.089844 41.410156 23.726562 C 41.554688 23.234375 41.292969 22.714844 40.816406 22.5625 Z M 35.699219 14.28125 C 35.625 14.378906 35.390625 14.628906 35.15625 14.773438 C 34.929688 14.910156 34.632812 15 34.339844 15.09375 L 33.882812 15.242188 C 33.25 15.476562 32.40625 15.71875 31.503906 15.890625 L 31.484375 11.671875 C 33.867188 11.601562 35.941406 11.878906 36.34375 12.585938 C 36.382812 12.648438 36.394531 12.726562 36.394531 12.816406 C 36.394531 13.15625 36.15625 13.679688 35.699219 14.28125 Z M 35.699219 14.28125 "/>
<path style=" stroke:none;fill-rule:nonzero;fill:rgb(96.862745%,97.254902%,97.647059%);fill-opacity:1;" d="M 69.105469 29.417969 C 64.46875 29.417969 61.808594 25.828125 61.585938 22.277344 C 61.574219 22.058594 61.570312 21.605469 61.546875 20.417969 C 61.546875 20.382812 61.546875 20.34375 61.546875 20.308594 C 61.574219 18.125 61.582031 17.695312 61.585938 17.53125 C 61.820312 14.132812 62.960938 11.761719 64.984375 10.480469 C 65.941406 9.871094 67.03125 9.558594 68.222656 9.558594 C 68.628906 9.558594 69.019531 9.59375 69.378906 9.652344 C 70.128906 8.78125 71.230469 8.226562 72.449219 8.226562 C 74.710938 8.226562 76.554688 10.125 76.554688 12.449219 L 76.554688 16.46875 C 76.554688 16.949219 76.472656 17.414062 76.320312 17.851562 C 76.886719 18.539062 77.242188 19.410156 77.285156 20.363281 C 77.3125 20.683594 77.324219 20.894531 77.316406 21.109375 C 77.285156 22.191406 77.285156 22.203125 77.265625 22.34375 C 77.265625 22.382812 77.253906 22.421875 77.253906 22.457031 C 77.15625 23.15625 76.910156 24.492188 76.332031 25.542969 C 75.957031 26.210938 75.570312 26.699219 75.207031 27.125 C 74.472656 27.976562 73.625 28.445312 72.894531 28.800781 C 71.675781 29.394531 70.625 29.402344 69.851562 29.410156 L 69.367188 29.421875 C 69.28125 29.421875 69.191406 29.421875 69.105469 29.421875 Z M 69.105469 29.417969 "/>
<path style=" stroke:none;fill-rule:nonzero;fill:rgb(96.862745%,97.254902%,97.647059%);fill-opacity:1;" d="M 73.175781 19.640625 C 72.6875 19.640625 72.292969 20.0625 72.292969 20.566406 C 72.292969 20.566406 72.320312 20.867188 72.320312 20.90625 C 72.320312 20.941406 72.300781 21.671875 72.300781 21.777344 C 72.242188 22.160156 72.105469 22.773438 71.988281 22.988281 C 71.851562 23.234375 71.710938 23.417969 71.460938 23.710938 C 71.320312 23.875 70.980469 24.039062 70.773438 24.140625 C 70.542969 24.25 70.320312 24.253906 69.792969 24.261719 L 69.25 24.273438 C 66.910156 24.347656 66.617188 22.386719 66.578125 21.957031 C 66.578125 21.894531 66.546875 20.398438 66.546875 20.367188 C 66.546875 20.339844 66.578125 17.953125 66.578125 17.882812 C 66.6875 16.292969 67.054688 15.21875 67.605469 14.875 C 68.027344 14.601562 68.703125 14.675781 69.671875 15.09375 C 70.867188 15.605469 71.679688 16.945312 71.6875 16.957031 C 71.894531 17.308594 72.3125 17.472656 72.695312 17.363281 C 73.085938 17.25 73.351562 16.890625 73.351562 16.472656 L 73.351562 12.453125 C 73.351562 11.945312 72.949219 11.53125 72.453125 11.53125 C 71.957031 11.53125 71.550781 11.945312 71.550781 12.453125 L 71.550781 14.101562 C 71.203125 13.828125 70.804688 13.570312 70.363281 13.378906 C 69.792969 13.136719 68.066406 12.394531 66.660156 13.292969 C 65.554688 13.992188 64.9375 15.457031 64.78125 17.773438 C 64.78125 17.785156 64.746094 20.355469 64.746094 20.355469 C 64.746094 20.355469 64.777344 22.058594 64.78125 22.070312 C 64.875 23.519531 65.941406 26.234375 69.304688 26.121094 L 69.808594 26.121094 C 70.417969 26.113281 70.945312 26.113281 71.539062 25.824219 C 71.964844 25.617188 72.453125 25.359375 72.808594 24.945312 C 73.070312 24.644531 73.320312 24.335938 73.554688 23.917969 C 73.898438 23.292969 74.058594 22.214844 74.085938 22.003906 C 74.085938 21.972656 74.121094 20.949219 74.121094 20.949219 C 74.121094 20.9375 74.09375 20.5625 74.09375 20.5625 C 74.082031 20.050781 73.675781 19.640625 73.175781 19.652344 Z M 73.175781 19.640625 "/>
<path style=" stroke:none;fill-rule:nonzero;fill:rgb(96.862745%,97.254902%,97.647059%);fill-opacity:1;" d="M 81.894531 30.902344 C 80.925781 30.902344 80 30.53125 79.28125 29.851562 C 78.992188 29.582031 78.75 29.273438 78.558594 28.945312 L 75.171875 28.886719 C 72.921875 28.84375 71.113281 26.925781 71.140625 24.613281 C 71.167969 22.917969 72.171875 21.464844 73.578125 20.808594 L 73.585938 14.332031 C 72.183594 13.660156 71.207031 12.195312 71.207031 10.496094 C 71.207031 8.167969 73.042969 6.273438 75.300781 6.273438 L 79.160156 6.273438 C 79.894531 5.355469 81.003906 4.757812 82.253906 4.730469 C 82.253906 4.730469 86.988281 4.644531 87.011719 4.644531 C 89.230469 4.644531 91.070312 6.507812 91.109375 8.796875 C 91.132812 10.472656 90.210938 11.933594 88.855469 12.640625 C 88.882812 17.230469 88.898438 20.113281 88.910156 22.011719 C 90.148438 22.675781 91.035156 23.972656 91.128906 25.5 C 91.273438 27.824219 89.554688 29.839844 87.300781 29.984375 C 85.441406 30.113281 84.253906 30.328125 83.917969 30.425781 C 83.855469 30.457031 83.789062 30.476562 83.722656 30.5 C 83.3125 30.660156 82.691406 30.902344 81.894531 30.902344 Z M 81.894531 30.902344 "/>
<path style=" stroke:none;fill-rule:nonzero;fill:rgb(96.862745%,97.254902%,97.647059%);fill-opacity:1;" d="M 87.933594 25.710938 C 87.90625 25.203125 87.472656 24.8125 86.980469 24.847656 C 86.644531 24.871094 86.203125 24.902344 85.714844 24.957031 C 85.714844 23.371094 85.699219 20.179688 85.640625 9.820312 L 87.023438 9.796875 C 87.519531 9.792969 87.914062 9.367188 87.910156 8.855469 C 87.898438 8.34375 87.492188 7.933594 86.992188 7.945312 L 82.3125 8.023438 C 81.8125 8.035156 81.417969 8.457031 81.425781 8.96875 C 81.4375 9.476562 81.84375 9.886719 82.339844 9.878906 L 83.835938 9.851562 C 83.851562 11.878906 83.863281 14.0625 83.871094 16.277344 L 78.582031 17.1875 L 78.59375 11.425781 L 80.03125 11.425781 C 80.527344 11.425781 80.933594 11.011719 80.933594 10.496094 C 80.933594 9.984375 80.527344 9.570312 80.03125 9.570312 L 75.304688 9.570312 C 74.808594 9.570312 74.40625 9.984375 74.40625 10.496094 C 74.40625 11.011719 74.808594 11.425781 75.304688 11.425781 L 76.789062 11.425781 L 76.773438 23.761719 L 75.257812 23.738281 C 74.761719 23.726562 74.351562 24.140625 74.34375 24.652344 C 74.34375 25.160156 74.734375 25.582031 75.230469 25.589844 L 80.089844 25.675781 C 80.589844 25.683594 80.996094 25.269531 81.003906 24.761719 C 81.015625 24.25 80.613281 23.828125 80.121094 23.820312 L 78.570312 23.796875 L 78.582031 19.066406 L 83.890625 18.152344 C 83.90625 21.644531 83.917969 23.976562 83.917969 25.222656 C 82.691406 25.464844 81.875 25.5625 81.371094 26.140625 C 81.050781 26.515625 81.089844 27.082031 81.453125 27.421875 C 81.8125 27.769531 82.214844 27.5625 82.722656 27.367188 L 82.710938 27.367188 C 83.234375 27.125 84.945312 26.835938 87.09375 26.691406 C 87.589844 26.660156 87.96875 26.21875 87.933594 25.707031 Z M 87.933594 25.710938 "/>
<path style=" stroke:none;fill-rule:nonzero;fill:rgb(96.862745%,97.254902%,97.647059%);fill-opacity:1;" d="M 49.074219 26.0625 C 48.183594 26.0625 47.335938 25.769531 46.621094 25.21875 C 46.472656 25.101562 46.324219 24.976562 46.191406 24.839844 C 45.679688 25.070312 45.113281 25.203125 44.519531 25.203125 C 44.457031 25.203125 44.398438 25.203125 44.335938 25.203125 L 39.847656 24.984375 C 37.59375 24.878906 35.839844 22.898438 35.945312 20.574219 C 36.042969 18.3125 37.84375 16.542969 40.042969 16.542969 C 40.0625 16.542969 40.078125 16.542969 40.101562 16.542969 C 40.304688 15.480469 40.804688 12.882812 40.832031 12.757812 C 39.34375 12.269531 38.203125 10.9375 37.988281 9.28125 C 37.695312 6.972656 39.273438 4.847656 41.503906 4.539062 L 45.355469 3.992188 C 45.535156 3.964844 45.722656 3.949219 45.910156 3.949219 C 47.039062 3.949219 48.128906 4.4375 48.902344 5.289062 C 49.179688 5.597656 49.589844 6.199219 49.804688 6.730469 L 53.183594 15.152344 C 53.199219 15.191406 53.21875 15.238281 53.238281 15.285156 C 53.25 15.285156 53.261719 15.285156 53.273438 15.285156 C 55 15.285156 56.546875 16.410156 57.132812 18.085938 C 57.890625 20.273438 56.785156 22.691406 54.671875 23.484375 C 53.320312 23.980469 52.457031 24.433594 52.140625 24.640625 C 51.371094 25.535156 50.246094 26.0625 49.074219 26.0625 Z M 49.074219 26.0625 "/>
<path style=" stroke:none;fill-rule:nonzero;fill:rgb(96.862745%,97.254902%,97.647059%);fill-opacity:1;" d="M 52.96875 18.636719 C 52.703125 18.734375 52.1875 19.003906 51.386719 19.367188 C 51.386719 19.367188 50.265625 16.492188 50.230469 16.421875 L 46.847656 7.992188 C 46.8125 7.902344 46.625 7.605469 46.566406 7.546875 C 46.367188 7.324219 46.074219 7.214844 45.789062 7.257812 L 41.929688 7.800781 C 41.4375 7.871094 41.09375 8.335938 41.160156 8.847656 C 41.226562 9.355469 41.679688 9.707031 42.171875 9.644531 C 42.171875 9.644531 43.605469 9.429688 44.773438 9.265625 C 44.4375 10.957031 43.109375 17.863281 42.695312 19.964844 L 40.082031 19.832031 C 39.585938 19.8125 39.164062 20.207031 39.140625 20.71875 C 39.117188 21.230469 39.507812 21.664062 40.003906 21.683594 L 44.480469 21.902344 C 44.976562 21.925781 45.398438 21.53125 45.425781 21.019531 C 45.445312 20.507812 45.152344 20.042969 44.515625 20.042969 L 44.71875 18.636719 L 48.882812 17.921875 L 49.769531 20.191406 C 49.09375 20.589844 48.667969 20.84375 48.351562 21.28125 C 48.054688 21.695312 48.140625 22.277344 48.539062 22.578125 C 48.9375 22.886719 49.5 22.800781 49.800781 22.390625 C 50.203125 21.832031 51.898438 21.003906 53.578125 20.382812 C 54.042969 20.210938 54.285156 19.679688 54.121094 19.199219 C 53.949219 18.714844 53.433594 18.464844 52.96875 18.636719 Z M 45.105469 17.144531 L 46.203125 11.578125 L 48.1875 16.617188 Z M 45.105469 17.144531 "/>
<path style=" stroke:none;fill-rule:nonzero;fill:rgb(96.862745%,97.254902%,97.647059%);fill-opacity:1;" d="M 55.4375 28.710938 C 53.214844 28.710938 51.371094 26.847656 51.335938 24.554688 C 51.308594 22.675781 52.472656 21.070312 54.105469 20.488281 L 54.105469 19.242188 C 53.984375 19.273438 53.863281 19.292969 53.734375 19.316406 C 53.535156 19.347656 53.332031 19.367188 53.128906 19.367188 C 51.082031 19.367188 49.378906 17.851562 49.074219 15.769531 L 48.386719 11.222656 C 48.203125 10.015625 48.542969 8.789062 49.3125 7.851562 C 50.074219 6.917969 51.199219 6.371094 52.394531 6.355469 L 58.117188 6.257812 C 60.902344 6.199219 63.382812 6.019531 63.515625 6.011719 C 63.535156 6.007812 63.554688 6.007812 63.570312 6.007812 C 63.664062 6 63.753906 6 63.839844 6 C 64.9375 6 66.003906 6.460938 66.765625 7.261719 C 67.589844 8.117188 68.019531 9.320312 67.925781 10.546875 C 67.851562 11.597656 67.828125 13.257812 67.824219 13.660156 C 67.871094 15.371094 66.964844 16.921875 65.484375 17.628906 C 64.9375 17.894531 64.316406 18.039062 63.707031 18.039062 C 63.21875 18.039062 62.746094 17.949219 62.304688 17.78125 L 62.304688 20.429688 C 63.863281 21.019531 64.984375 22.554688 65.011719 24.347656 C 65.03125 25.476562 64.609375 26.542969 63.847656 27.355469 C 63.074219 28.164062 62.050781 28.617188 60.957031 28.628906 C 60.957031 28.628906 55.449219 28.710938 55.433594 28.710938 Z M 55.4375 28.710938 "/>
<path style=" stroke:none;fill-rule:nonzero;fill:rgb(96.862745%,97.254902%,97.647059%);fill-opacity:1;" d="M 63.777344 9.296875 C 63.753906 9.300781 61.117188 9.496094 58.171875 9.554688 L 52.425781 9.652344 C 52.167969 9.652344 51.917969 9.773438 51.753906 9.980469 C 51.585938 10.183594 51.507812 10.449219 51.542969 10.714844 L 52.234375 15.277344 C 52.308594 15.78125 52.769531 16.132812 53.257812 16.054688 C 53.703125 15.988281 54.023438 15.589844 54.023438 15.140625 C 54.023438 15.097656 53.664062 12.761719 53.480469 11.492188 C 53.714844 11.488281 57.289062 11.421875 57.289062 11.421875 L 57.3125 23.53125 L 55.421875 23.558594 C 54.925781 23.570312 54.527344 23.992188 54.535156 24.496094 C 54.546875 25.011719 54.953125 25.421875 55.445312 25.414062 L 60.925781 25.332031 C 61.421875 25.332031 61.820312 24.902344 61.8125 24.390625 C 61.800781 23.875 61.398438 23.472656 60.902344 23.472656 L 59.113281 23.503906 L 59.085938 11.386719 C 60.636719 11.34375 61.964844 11.265625 62.875 11.214844 C 62.828125 11.988281 62.804688 12.566406 62.804688 12.992188 C 62.804688 13.980469 62.90625 14.167969 62.988281 14.308594 C 63.214844 14.738281 63.703125 14.851562 64.132812 14.644531 C 64.464844 14.480469 64.644531 14.097656 64.621094 13.714844 C 64.621094 13.703125 64.640625 11.625 64.738281 10.296875 C 64.757812 10.027344 64.667969 9.761719 64.480469 9.570312 C 64.296875 9.378906 64.039062 9.28125 63.777344 9.296875 Z M 63.777344 9.296875 "/>
<path style=" stroke:none;fill-rule:nonzero;fill:rgb(96.862745%,97.254902%,97.647059%);fill-opacity:1;" d="M 21.804688 30.578125 C 17.191406 30.578125 14.539062 27.023438 14.28125 23.496094 C 14.269531 23.386719 14.269531 23.296875 14.269531 23.222656 L 14.234375 21.507812 C 14.234375 21.492188 14.269531 18.941406 14.269531 18.941406 C 14.269531 18.863281 14.269531 18.773438 14.28125 18.683594 C 14.515625 15.285156 15.660156 12.917969 17.679688 11.636719 C 18.640625 11.027344 19.726562 10.714844 20.914062 10.714844 C 21.324219 10.714844 21.710938 10.753906 22.078125 10.8125 C 22.828125 9.9375 23.925781 9.386719 25.148438 9.386719 C 27.40625 9.386719 29.246094 11.28125 29.246094 13.609375 L 29.246094 17.621094 C 29.246094 18.054688 29.179688 18.480469 29.0625 18.878906 C 29.609375 19.570312 29.949219 20.441406 29.984375 21.390625 L 30.007812 21.878906 C 30.007812 21.9375 30.007812 21.996094 30.007812 22.058594 C 30.007812 22.070312 29.996094 23.195312 29.9375 23.621094 C 29.820312 24.484375 29.566406 25.722656 29.019531 26.703125 C 28.640625 27.382812 28.246094 27.867188 27.90625 28.269531 C 27.15625 29.132812 26.3125 29.605469 25.582031 29.957031 C 24.367188 30.550781 23.3125 30.558594 22.539062 30.566406 L 22.074219 30.578125 C 21.984375 30.578125 21.894531 30.578125 21.804688 30.578125 Z M 21.804688 30.578125 "/>
<path style=" stroke:none;fill-rule:nonzero;fill:rgb(96.862745%,97.254902%,97.647059%);fill-opacity:1;" d="M 25.871094 20.609375 C 25.378906 20.628906 24.988281 21.039062 24.988281 21.539062 C 24.988281 21.539062 25.011719 22.023438 25.011719 22.066406 C 25.011719 22.101562 24.992188 22.828125 24.992188 22.933594 C 24.933594 23.316406 24.804688 23.929688 24.683594 24.148438 C 24.546875 24.390625 24.398438 24.582031 24.152344 24.867188 C 24.011719 25.03125 23.667969 25.199219 23.464844 25.292969 C 23.234375 25.402344 23.015625 25.410156 22.488281 25.414062 L 21.941406 25.425781 C 19.605469 25.503906 19.308594 23.542969 19.265625 23.113281 C 19.265625 23.050781 19.238281 21.550781 19.234375 21.523438 C 19.234375 21.492188 19.265625 19.105469 19.265625 19.035156 C 19.382812 17.445312 19.746094 16.378906 20.296875 16.027344 C 20.71875 15.757812 21.394531 15.828125 22.367188 16.246094 C 23.558594 16.757812 24.371094 18.097656 24.375 18.113281 C 24.589844 18.464844 25 18.636719 25.390625 18.515625 C 25.777344 18.40625 26.042969 18.042969 26.042969 17.628906 L 26.042969 13.613281 C 26.042969 13.101562 25.640625 12.6875 25.148438 12.6875 C 24.644531 12.6875 24.246094 13.101562 24.246094 13.613281 L 24.246094 15.261719 C 23.894531 14.984375 23.5 14.722656 23.054688 14.535156 C 22.488281 14.292969 20.765625 13.554688 19.351562 14.445312 C 18.246094 15.148438 17.632812 16.617188 17.472656 18.925781 C 17.472656 18.945312 17.472656 18.960938 17.472656 18.976562 L 17.4375 21.511719 L 17.4375 21.546875 L 17.472656 23.183594 C 17.472656 23.199219 17.472656 23.210938 17.472656 23.222656 C 17.566406 24.679688 18.628906 27.390625 21.996094 27.285156 L 22.5 27.273438 C 23.109375 27.273438 23.632812 27.257812 24.230469 26.972656 C 24.660156 26.769531 25.140625 26.511719 25.507812 26.09375 C 25.761719 25.789062 26.015625 25.484375 26.246094 25.066406 C 26.59375 24.441406 26.75 23.363281 26.777344 23.15625 C 26.777344 23.121094 26.808594 22.070312 26.808594 22.058594 L 26.785156 21.527344 C 26.773438 21.015625 26.367188 20.605469 25.871094 20.609375 Z M 25.871094 20.609375 "/>
<path style=" stroke:none;fill-rule:nonzero;fill:rgb(97.647059%,65.490196%,21.568627%);fill-opacity:1;" d="M 10.699219 16.96875 C 9.667969 16.804688 9.121094 16.09375 9.394531 13.894531 L 9.429688 13.628906 C 9.65625 11.710938 9.851562 11.292969 10.742188 11.339844 C 11.003906 11.359375 11.304688 11.523438 11.605469 11.785156 C 11.878906 12.109375 12.503906 12.542969 12.851562 13.398438 C 13.101562 14.023438 13.1875 14.433594 13.222656 14.867188 C 13.222656 14.882812 13.28125 15.40625 13.28125 15.40625 C 13.347656 15.769531 13.625 16.074219 14.003906 16.144531 C 14.492188 16.234375 14.957031 15.902344 15.050781 15.394531 C 15.058594 15.339844 15.277344 9.542969 15.277344 9.449219 C 15.277344 8.941406 14.882812 8.523438 14.386719 8.519531 C 13.886719 8.519531 13.484375 8.929688 13.480469 9.441406 C 13.480469 9.453125 13.480469 10.25 13.46875 11.054688 C 12.757812 10.257812 11.847656 9.550781 10.835938 9.492188 C 8.113281 9.339844 7.816406 11.910156 7.640625 13.398438 L 7.613281 13.660156 C 7.246094 16.589844 8.195312 18.441406 10.421875 18.800781 C 12.851562 19.195312 14.46875 19.769531 14.484375 21.308594 C 14.484375 21.898438 14.1875 22.511719 13.65625 22.988281 C 13.019531 23.550781 12.148438 23.804688 11.347656 23.664062 C 11.097656 23.621094 10.859375 23.554688 10.636719 23.472656 C 10.316406 23.292969 9.515625 22.796875 9.109375 22.214844 C 8.769531 21.726562 8.652344 20.960938 8.613281 20.472656 C 8.617188 20.253906 8.621094 20.109375 8.621094 20.089844 C 8.628906 19.578125 8.230469 19.160156 7.734375 19.148438 C 7.238281 19.140625 6.824219 19.546875 6.820312 20.066406 C 6.820312 20.085938 6.796875 21.894531 6.730469 22.988281 C 6.636719 24.746094 6.730469 26.242188 6.730469 26.304688 C 6.769531 26.816406 7.191406 27.203125 7.6875 27.171875 C 8.191406 27.136719 8.558594 26.699219 8.53125 26.1875 C 8.53125 26.175781 8.484375 25.457031 8.492188 24.457031 C 9.148438 24.890625 10.011719 25.3125 11.050781 25.492188 C 12.394531 25.722656 13.765625 25.324219 14.824219 24.394531 C 15.761719 23.566406 16.296875 22.429688 16.289062 21.285156 C 16.25 17.863281 12.503906 17.261719 10.699219 16.96875 Z M 10.699219 16.96875 "/>
<path style=" stroke:none;fill-rule:nonzero;fill:rgb(97.647059%,65.490196%,21.568627%);fill-opacity:1;" d="M 40.820312 22.554688 C 40.339844 22.410156 39.832031 22.679688 39.691406 23.167969 C 39.363281 24.273438 39.101562 24.3125 38.917969 24.402344 C 38.734375 24.492188 38.492188 24.460938 38.105469 24.308594 C 38.042969 24.273438 37.882812 24.054688 37.789062 23.851562 C 37.648438 23.542969 37.480469 22.25 37.464844 21.511719 C 37.394531 18.789062 36.9375 17.289062 36.195312 16.46875 C 36.691406 16.128906 37.0625 15.6875 37.101562 15.628906 C 37.113281 15.621094 37.113281 15.621094 37.117188 15.609375 C 38.222656 14.136719 38.484375 12.863281 37.898438 11.832031 C 36.429688 9.25 29.964844 10.011719 28.019531 10.3125 C 27.519531 10.382812 27.183594 10.855469 27.257812 11.363281 C 27.332031 11.871094 27.789062 12.21875 28.277344 12.140625 C 28.742188 12.074219 29.214844 12.015625 29.6875 11.972656 L 29.703125 16.289062 C 29.554688 16.300781 29.40625 16.300781 29.261719 16.300781 C 28.765625 16.300781 28.359375 16.710938 28.359375 17.222656 C 28.359375 17.738281 28.765625 18.152344 29.261719 18.152344 C 29.410156 18.152344 29.5625 18.152344 29.710938 18.144531 L 29.730469 23.539062 L 28.496094 23.726562 C 28.003906 23.796875 27.660156 24.273438 27.734375 24.773438 C 27.808594 25.28125 28.261719 25.632812 28.757812 25.5625 L 33.097656 24.90625 C 33.585938 24.828125 33.929688 24.359375 33.855469 23.855469 C 33.785156 23.34375 33.324219 22.996094 32.832031 23.066406 L 31.53125 23.265625 L 31.507812 17.949219 C 32.367188 17.804688 33.183594 17.613281 33.867188 17.398438 C 33.878906 17.398438 34.066406 17.375 34.183594 17.398438 C 34.546875 17.460938 34.742188 17.53125 34.953125 17.832031 C 35.25 18.257812 35.605469 19.246094 35.664062 21.5625 C 35.675781 22.011719 35.792969 23.835938 36.15625 24.640625 C 36.265625 24.894531 36.703125 25.742188 37.453125 26.042969 C 38.007812 26.265625 38.839844 26.503906 39.703125 26.074219 C 40.503906 25.675781 41 25.089844 41.410156 23.726562 C 41.554688 23.234375 41.292969 22.714844 40.816406 22.5625 Z M 35.699219 14.28125 C 35.625 14.378906 35.390625 14.628906 35.15625 14.773438 C 34.929688 14.910156 34.632812 15 34.339844 15.09375 L 33.882812 15.242188 C 33.25 15.476562 32.40625 15.71875 31.503906 15.890625 L 31.484375 11.671875 C 33.867188 11.601562 35.941406 11.878906 36.34375 12.585938 C 36.382812 12.648438 36.394531 12.726562 36.394531 12.816406 C 36.394531 13.15625 36.15625 13.679688 35.699219 14.28125 Z M 35.699219 14.28125 "/>
<path style=" stroke:none;fill-rule:nonzero;fill:rgb(97.647059%,65.490196%,21.568627%);fill-opacity:1;" d="M 73.175781 19.640625 C 72.6875 19.640625 72.292969 20.0625 72.292969 20.566406 C 72.292969 20.566406 72.320312 20.867188 72.320312 20.90625 C 72.320312 20.941406 72.300781 21.671875 72.300781 21.777344 C 72.242188 22.160156 72.105469 22.773438 71.988281 22.988281 C 71.851562 23.234375 71.710938 23.417969 71.460938 23.710938 C 71.320312 23.875 70.980469 24.039062 70.773438 24.140625 C 70.542969 24.25 70.320312 24.253906 69.792969 24.261719 L 69.25 24.273438 C 66.910156 24.347656 66.617188 22.386719 66.578125 21.957031 C 66.578125 21.894531 66.546875 20.398438 66.546875 20.367188 C 66.546875 20.339844 66.578125 17.953125 66.578125 17.882812 C 66.6875 16.292969 67.054688 15.21875 67.605469 14.875 C 68.027344 14.601562 68.703125 14.675781 69.671875 15.09375 C 70.867188 15.605469 71.679688 16.945312 71.6875 16.957031 C 71.894531 17.308594 72.3125 17.472656 72.695312 17.363281 C 73.085938 17.25 73.351562 16.890625 73.351562 16.472656 L 73.351562 12.453125 C 73.351562 11.945312 72.949219 11.53125 72.453125 11.53125 C 71.957031 11.53125 71.550781 11.945312 71.550781 12.453125 L 71.550781 14.101562 C 71.203125 13.828125 70.804688 13.570312 70.363281 13.378906 C 69.792969 13.136719 68.066406 12.394531 66.660156 13.292969 C 65.554688 13.992188 64.9375 15.457031 64.78125 17.773438 C 64.78125 17.785156 64.746094 20.355469 64.746094 20.355469 C 64.746094 20.355469 64.777344 22.058594 64.78125 22.070312 C 64.875 23.519531 65.941406 26.234375 69.304688 26.121094 L 69.808594 26.121094 C 70.417969 26.113281 70.945312 26.113281 71.539062 25.824219 C 71.964844 25.617188 72.453125 25.359375 72.808594 24.945312 C 73.070312 24.644531 73.320312 24.335938 73.554688 23.917969 C 73.898438 23.292969 74.058594 22.214844 74.085938 22.003906 C 74.085938 21.972656 74.121094 20.949219 74.121094 20.949219 C 74.121094 20.9375 74.09375 20.5625 74.09375 20.5625 C 74.082031 20.050781 73.675781 19.640625 73.175781 19.652344 Z M 73.175781 19.640625 "/>
<path style=" stroke:none;fill-rule:nonzero;fill:rgb(97.647059%,65.490196%,21.568627%);fill-opacity:1;" d="M 87.933594 25.710938 C 87.90625 25.203125 87.472656 24.8125 86.980469 24.847656 C 86.644531 24.871094 86.203125 24.902344 85.714844 24.957031 C 85.714844 23.371094 85.699219 20.179688 85.640625 9.820312 L 87.023438 9.796875 C 87.519531 9.792969 87.914062 9.367188 87.910156 8.855469 C 87.898438 8.34375 87.492188 7.933594 86.992188 7.945312 L 82.3125 8.023438 C 81.8125 8.035156 81.417969 8.457031 81.425781 8.96875 C 81.4375 9.476562 81.84375 9.886719 82.339844 9.878906 L 83.835938 9.851562 C 83.851562 11.878906 83.863281 14.0625 83.871094 16.277344 L 78.582031 17.1875 L 78.59375 11.425781 L 80.03125 11.425781 C 80.527344 11.425781 80.933594 11.011719 80.933594 10.496094 C 80.933594 9.984375 80.527344 9.570312 80.03125 9.570312 L 75.304688 9.570312 C 74.808594 9.570312 74.40625 9.984375 74.40625 10.496094 C 74.40625 11.011719 74.808594 11.425781 75.304688 11.425781 L 76.789062 11.425781 L 76.773438 23.761719 L 75.257812 23.738281 C 74.761719 23.726562 74.351562 24.140625 74.34375 24.652344 C 74.34375 25.160156 74.734375 25.582031 75.230469 25.589844 L 80.089844 25.675781 C 80.589844 25.683594 80.996094 25.269531 81.003906 24.761719 C 81.015625 24.25 80.613281 23.828125 80.121094 23.820312 L 78.570312 23.796875 L 78.582031 19.066406 L 83.890625 18.152344 C 83.90625 21.644531 83.917969 23.976562 83.917969 25.222656 C 82.691406 25.464844 81.875 25.5625 81.371094 26.140625 C 81.050781 26.515625 81.089844 27.082031 81.453125 27.421875 C 81.8125 27.769531 82.214844 27.5625 82.722656 27.367188 L 82.710938 27.367188 C 83.234375 27.125 84.945312 26.835938 87.09375 26.691406 C 87.589844 26.660156 87.96875 26.21875 87.933594 25.707031 Z M 87.933594 25.710938 "/>
<path style=" stroke:none;fill-rule:nonzero;fill:rgb(97.647059%,65.490196%,21.568627%);fill-opacity:1;" d="M 52.96875 18.636719 C 52.703125 18.734375 52.1875 19.003906 51.386719 19.367188 C 51.386719 19.367188 50.265625 16.492188 50.230469 16.421875 L 46.847656 7.992188 C 46.8125 7.902344 46.625 7.605469 46.566406 7.546875 C 46.367188 7.324219 46.074219 7.214844 45.789062 7.257812 L 41.929688 7.800781 C 41.4375 7.871094 41.09375 8.335938 41.160156 8.847656 C 41.226562 9.355469 41.679688 9.707031 42.171875 9.644531 C 42.171875 9.644531 43.605469 9.429688 44.773438 9.265625 C 44.4375 10.957031 43.109375 17.863281 42.695312 19.964844 L 40.082031 19.832031 C 39.585938 19.8125 39.164062 20.207031 39.140625 20.71875 C 39.117188 21.230469 39.507812 21.664062 40.003906 21.683594 L 44.480469 21.902344 C 44.976562 21.925781 45.398438 21.53125 45.425781 21.019531 C 45.445312 20.507812 45.152344 20.042969 44.515625 20.042969 L 44.71875 18.636719 L 48.882812 17.921875 L 49.769531 20.191406 C 49.09375 20.589844 48.667969 20.84375 48.351562 21.28125 C 48.054688 21.695312 48.140625 22.277344 48.539062 22.578125 C 48.9375 22.886719 49.5 22.800781 49.800781 22.390625 C 50.203125 21.832031 51.898438 21.003906 53.578125 20.382812 C 54.042969 20.210938 54.285156 19.679688 54.121094 19.199219 C 53.949219 18.714844 53.433594 18.464844 52.96875 18.636719 Z M 45.105469 17.144531 L 46.203125 11.578125 L 48.1875 16.617188 Z M 45.105469 17.144531 "/>
<path style=" stroke:none;fill-rule:nonzero;fill:rgb(97.647059%,65.490196%,21.568627%);fill-opacity:1;" d="M 63.777344 9.296875 C 63.753906 9.300781 61.117188 9.496094 58.171875 9.554688 L 52.425781 9.652344 C 52.167969 9.652344 51.917969 9.773438 51.753906 9.980469 C 51.585938 10.183594 51.507812 10.449219 51.542969 10.714844 L 52.234375 15.277344 C 52.308594 15.78125 52.769531 16.132812 53.257812 16.054688 C 53.703125 15.988281 54.023438 15.589844 54.023438 15.140625 C 54.023438 15.097656 53.664062 12.761719 53.480469 11.492188 C 53.714844 11.488281 57.289062 11.421875 57.289062 11.421875 L 57.3125 23.53125 L 55.421875 23.558594 C 54.925781 23.570312 54.527344 23.992188 54.535156 24.496094 C 54.546875 25.011719 54.953125 25.421875 55.445312 25.414062 L 60.925781 25.332031 C 61.421875 25.332031 61.820312 24.902344 61.8125 24.390625 C 61.800781 23.875 61.398438 23.472656 60.902344 23.472656 L 59.113281 23.503906 L 59.085938 11.386719 C 60.636719 11.34375 61.964844 11.265625 62.875 11.214844 C 62.828125 11.988281 62.804688 12.566406 62.804688 12.992188 C 62.804688 13.980469 62.90625 14.167969 62.988281 14.308594 C 63.214844 14.738281 63.703125 14.851562 64.132812 14.644531 C 64.464844 14.480469 64.644531 14.097656 64.621094 13.714844 C 64.621094 13.703125 64.640625 11.625 64.738281 10.296875 C 64.757812 10.027344 64.667969 9.761719 64.480469 9.570312 C 64.296875 9.378906 64.039062 9.28125 63.777344 9.296875 Z M 63.777344 9.296875 "/>
<path style=" stroke:none;fill-rule:nonzero;fill:rgb(97.647059%,65.490196%,21.568627%);fill-opacity:1;" d="M 25.871094 20.609375 C 25.378906 20.628906 24.988281 21.039062 24.988281 21.539062 C 24.988281 21.539062 25.011719 22.023438 25.011719 22.066406 C 25.011719 22.101562 24.992188 22.828125 24.992188 22.933594 C 24.933594 23.316406 24.804688 23.929688 24.683594 24.148438 C 24.546875 24.390625 24.398438 24.582031 24.152344 24.867188 C 24.011719 25.03125 23.667969 25.199219 23.464844 25.292969 C 23.234375 25.402344 23.015625 25.410156 22.488281 25.414062 L 21.941406 25.425781 C 19.605469 25.503906 19.308594 23.542969 19.265625 23.113281 C 19.265625 23.050781 19.238281 21.550781 19.234375 21.523438 C 19.234375 21.492188 19.265625 19.105469 19.265625 19.035156 C 19.382812 17.445312 19.746094 16.378906 20.296875 16.027344 C 20.71875 15.757812 21.394531 15.828125 22.367188 16.246094 C 23.558594 16.757812 24.371094 18.097656 24.375 18.113281 C 24.589844 18.464844 25 18.636719 25.390625 18.515625 C 25.777344 18.40625 26.042969 18.042969 26.042969 17.628906 L 26.042969 13.613281 C 26.042969 13.101562 25.640625 12.6875 25.148438 12.6875 C 24.644531 12.6875 24.246094 13.101562 24.246094 13.613281 L 24.246094 15.261719 C 23.894531 14.984375 23.5 14.722656 23.054688 14.535156 C 22.488281 14.292969 20.765625 13.554688 19.351562 14.445312 C 18.246094 15.148438 17.632812 16.617188 17.472656 18.925781 C 17.472656 18.945312 17.472656 18.960938 17.472656 18.976562 L 17.4375 21.511719 L 17.4375 21.546875 L 17.472656 23.183594 C 17.472656 23.199219 17.472656 23.210938 17.472656 23.222656 C 17.566406 24.679688 18.628906 27.390625 21.996094 27.285156 L 22.5 27.273438 C 23.109375 27.273438 23.632812 27.257812 24.230469 26.972656 C 24.660156 26.769531 25.140625 26.511719 25.507812 26.09375 C 25.761719 25.789062 26.015625 25.484375 26.246094 25.066406 C 26.59375 24.441406 26.75 23.363281 26.777344 23.15625 C 26.777344 23.121094 26.808594 22.070312 26.808594 22.058594 L 26.785156 21.527344 C 26.773438 21.015625 26.367188 20.605469 25.871094 20.609375 Z M 25.871094 20.609375 "/>
<path style=" stroke:none;fill-rule:nonzero;fill:rgb(97.647059%,65.490196%,21.568627%);fill-opacity:1;" d="M 113.039062 16.996094 C 113.039062 24.335938 107.261719 30.285156 100.140625 30.285156 C 93.019531 30.285156 87.246094 24.335938 87.246094 16.996094 C 87.246094 9.660156 93.019531 3.710938 100.140625 3.710938 C 107.261719 3.710938 113.039062 9.660156 113.039062 16.996094 Z M 113.039062 16.996094 "/>
<path style=" stroke:none;fill-rule:nonzero;fill:rgb(96.862745%,97.254902%,97.647059%);fill-opacity:1;" d="M 96.277344 5.945312 C 95.191406 5.898438 94.289062 6.570312 93.785156 7.203125 C 93.300781 7.792969 92.8125 8.820312 93.089844 9.929688 C 92.875 10.21875 92.691406 10.570312 92.628906 11.078125 L 92.628906 11.175781 C 92.601562 11.476562 92.585938 11.789062 92.679688 12.234375 C 92.765625 12.671875 93.054688 13.390625 93.78125 13.828125 C 94.226562 14.09375 94.695312 14.226562 95.15625 14.285156 C 95.179688 14.398438 95.21875 14.554688 95.230469 14.65625 C 95.355469 15.503906 95.433594 16.039062 95.488281 16.367188 C 95.5625 16.78125 95.628906 17.164062 95.6875 17.5 C 95.726562 17.753906 95.746094 17.953125 95.746094 18.105469 C 95.746094 18.507812 95.609375 19.289062 95.367188 20.238281 C 95.308594 20.066406 95.230469 19.878906 95.105469 19.671875 C 94.839844 19.214844 94.085938 18.484375 93.128906 18.484375 L 92.953125 18.484375 C 92.628906 18.515625 92.371094 18.542969 92.105469 18.589844 C 91.742188 18.652344 91.535156 18.75 91.257812 18.957031 C 90.511719 19.511719 90.019531 20.605469 90.019531 21.484375 C 90.019531 22.902344 90.769531 24.222656 91.773438 25.113281 C 92.339844 25.597656 92.859375 25.875 93.382812 25.980469 C 93.777344 26.042969 94.148438 26.082031 94.535156 26.082031 C 95.835938 26.082031 97.003906 25.554688 98.121094 24.773438 C 98.890625 24.269531 99.429688 24.035156 100.007812 23.042969 C 100.03125 23.019531 100.035156 22.992188 100.046875 22.964844 C 100.109375 23.023438 100.164062 23.09375 100.230469 23.140625 C 100.851562 23.570312 101.371094 23.632812 101.84375 23.695312 C 102.3125 23.738281 102.074219 23.738281 102.523438 23.738281 C 102.773438 23.738281 103.117188 23.71875 103.558594 23.71875 L 103.671875 23.71875 L 103.789062 23.695312 C 104.121094 23.65625 104.398438 23.609375 104.613281 23.589844 L 104.652344 23.589844 C 104.820312 23.609375 104.894531 23.589844 105.074219 23.632812 L 105.121094 23.632812 C 106.382812 23.804688 107.660156 22.945312 108.257812 22.042969 L 108.671875 21.425781 C 108.835938 21.132812 108.832031 20.617188 108.695312 20.167969 L 108.4375 19.578125 C 108.175781 18.976562 107.644531 18.425781 107.09375 18.152344 C 106.882812 18.039062 106.679688 17.988281 106.476562 17.9375 C 106.476562 17.816406 106.453125 17.539062 106.453125 17.449219 L 106.453125 17.429688 C 106.433594 16.84375 106.421875 16.386719 106.421875 16.09375 C 106.421875 16 106.445312 15.945312 106.453125 15.875 C 106.453125 15.851562 106.496094 15.804688 106.511719 15.78125 C 107.078125 16.320312 107.894531 16.671875 108.550781 16.671875 C 109.496094 16.671875 110.636719 16.027344 111.144531 15.191406 L 111.324219 14.894531 L 111.402344 14.554688 C 111.460938 14.300781 111.476562 14.074219 111.476562 13.867188 C 111.476562 12.96875 111.132812 12.285156 110.75 11.722656 C 110.160156 10.835938 109.234375 10.046875 108.082031 9.835938 C 107.753906 9.753906 107.644531 9.75 107.339844 9.710938 L 107.296875 9.710938 C 106.503906 9.621094 105.84375 9.804688 105.183594 10.050781 C 104.945312 9.882812 104.699219 9.742188 104.457031 9.671875 C 103.808594 9.464844 103.3125 9.5 102.789062 9.585938 C 102.789062 9.585938 102.667969 9.609375 102.636719 9.609375 C 101.945312 9.796875 101.550781 9.785156 101 9.773438 L 100.953125 9.773438 C 100.574219 9.773438 100.226562 9.851562 99.914062 9.980469 C 99.894531 9.941406 99.875 9.917969 99.855469 9.878906 C 99.96875 9.570312 100.054688 9.242188 100.054688 8.902344 C 100.054688 7.855469 99.207031 6.730469 98.449219 6.351562 C 97.722656 6 96.882812 5.953125 96.277344 5.945312 Z M 106.394531 15.980469 L 106.394531 16.003906 Z M 106.394531 15.980469 "/>
<path style=" stroke:none;fill-rule:nonzero;fill:rgb(97.647059%,65.490196%,21.568627%);fill-opacity:1;" d="M 109.394531 14.113281 C 109.195312 14.433594 108.914062 14.59375 108.539062 14.59375 C 108.222656 14.59375 107.988281 14.472656 107.835938 14.226562 C 107.761719 14.101562 107.667969 13.914062 107.546875 13.65625 C 107.332031 13.347656 107.050781 13.195312 106.691406 13.195312 C 106.207031 13.195312 105.738281 13.457031 105.269531 13.976562 C 104.835938 14.433594 104.550781 14.917969 104.414062 15.421875 C 104.355469 15.628906 104.351562 16.339844 104.390625 17.546875 C 104.40625 18.019531 104.445312 18.8125 104.503906 19.910156 C 104.519531 19.941406 104.550781 19.96875 104.597656 20 C 104.699219 20 104.851562 19.992188 105.046875 19.976562 C 105.253906 19.964844 105.414062 19.953125 105.519531 19.953125 C 106.0625 19.953125 106.40625 20.128906 106.554688 20.476562 C 106.539062 20.5625 106.539062 20.699219 106.554688 20.886719 C 106.210938 21.40625 105.8125 21.636719 105.359375 21.582031 C 104.941406 21.507812 104.59375 21.492188 104.324219 21.539062 C 104.128906 21.566406 103.867188 21.605469 103.539062 21.648438 C 102.667969 21.664062 102.199219 21.664062 102.140625 21.648438 C 101.476562 21.589844 101.148438 21.359375 101.148438 20.949219 C 101.148438 20.460938 101.472656 20.199219 102.113281 20.167969 L 102.949219 20.128906 C 103.011719 19.957031 103.03125 19.757812 103.019531 19.542969 C 103.003906 19.398438 102.980469 19.210938 102.949219 18.976562 C 102.859375 17.71875 102.792969 16.367188 102.75 14.917969 C 102.734375 14.53125 102.714844 14.265625 102.703125 14.113281 C 102.675781 13.761719 102.605469 13.515625 102.5 13.378906 C 102.425781 13.367188 102.34375 13.355469 102.253906 13.355469 C 102.101562 13.355469 101.867188 13.394531 101.550781 13.472656 C 101.25 13.53125 101.027344 13.5625 100.878906 13.5625 C 100.769531 13.5625 100.671875 13.546875 100.585938 13.515625 C 100.210938 13.4375 100.023438 13.171875 100.023438 12.714844 C 100.023438 12.519531 100.128906 12.34375 100.339844 12.1875 C 100.550781 12.023438 100.75 11.9375 100.941406 11.9375 C 101.605469 11.953125 102.058594 11.929688 102.296875 11.867188 C 102.433594 11.839844 102.679688 11.785156 103.042969 11.710938 C 103.714844 11.601562 104.136719 11.730469 104.304688 12.097656 C 104.363281 12.21875 104.371094 12.449219 104.324219 12.785156 C 104.414062 12.785156 104.585938 12.707031 104.847656 12.558594 C 105.1875 12.359375 105.375 12.253906 105.402344 12.234375 C 106.113281 11.929688 106.667969 11.796875 107.070312 11.84375 C 107.417969 11.890625 107.621094 11.917969 107.679688 11.9375 C 108.195312 12.015625 108.652344 12.359375 109.054688 12.96875 C 109.296875 13.316406 109.414062 13.632812 109.414062 13.902344 C 109.414062 13.980469 109.410156 14.046875 109.394531 14.113281 Z M 98 8.957031 C 98 9.226562 97.871094 9.476562 97.613281 9.703125 C 97.355469 9.9375 97.085938 10.042969 96.800781 10.027344 C 96.679688 10.097656 96.507812 10.136719 96.285156 10.136719 C 95.609375 10.136719 95.203125 9.898438 95.066406 9.425781 C 94.992188 9.167969 95.089844 8.875 95.359375 8.550781 C 95.628906 8.203125 95.90625 8.042969 96.195312 8.054688 C 97.398438 8.085938 98 8.386719 98 8.957031 Z M 99.054688 18.417969 C 99.027344 19.957031 98.761719 21.148438 98.261719 21.988281 C 98.117188 22.246094 97.695312 22.601562 97.003906 23.066406 C 96.089844 23.695312 95.273438 24.015625 94.546875 24.015625 C 94.320312 24.015625 94.050781 23.984375 93.738281 23.929688 C 93.574219 23.898438 93.363281 23.773438 93.105469 23.550781 C 92.417969 22.941406 92.070312 22.269531 92.070312 21.523438 C 92.070312 21.167969 92.199219 20.898438 92.453125 20.710938 C 92.601562 20.683594 92.828125 20.65625 93.128906 20.628906 C 93.292969 20.628906 93.421875 20.84375 93.511719 21.28125 C 93.558594 21.574219 93.601562 21.871094 93.648438 22.171875 C 93.917969 22.699219 94.316406 22.960938 94.84375 22.960938 C 95.277344 22.960938 95.734375 22.792969 96.21875 22.457031 C 96.625 22.171875 96.953125 21.824219 97.203125 21.402344 C 97.597656 20.046875 97.792969 18.957031 97.792969 18.132812 C 97.792969 17.832031 97.765625 17.507812 97.703125 17.15625 C 97.640625 16.804688 97.578125 16.417969 97.5 15.996094 C 97.457031 15.742188 97.371094 15.191406 97.25 14.355469 C 97.191406 13.925781 97.09375 13.445312 96.957031 12.917969 C 96.894531 12.707031 96.800781 12.441406 96.667969 12.128906 C 96.652344 12.109375 96.464844 12.132812 96.101562 12.1875 C 95.5625 12.261719 95.125 12.195312 94.796875 11.996094 C 94.675781 11.929688 94.628906 11.710938 94.660156 11.355469 C 94.675781 11.226562 94.796875 11.105469 95.023438 10.988281 C 95.265625 10.875 95.457031 10.820312 95.605469 10.820312 C 95.9375 10.820312 96.371094 10.761719 96.914062 10.648438 C 97.066406 10.621094 97.292969 10.648438 97.589844 10.734375 C 97.90625 10.820312 98.074219 10.925781 98.109375 11.054688 C 98.167969 11.269531 98.261719 11.683594 98.378906 12.296875 C 98.441406 12.785156 98.558594 13.667969 98.738281 14.953125 C 98.964844 16.515625 99.070312 17.671875 99.054688 18.417969 Z M 99.054688 18.417969 "/>
</g>
</svg>
